<svg xmlns="http://www.w3.org/2000/svg" viewBox="0 0 192.76 250"><defs><style>.cls-1{fill:#e83789;}.cls-2{fill:#2a99d6;}</style></defs><g id="Capa_4" data-name="Capa 4"><path class="cls-1" d="M178.27,0H82.75V40.61h77c16.61,0,23.28,9.08,23.28,20.29v0c0,11.21-7.74,20.29-23.28,20.29h-77v40.58h95.52c29.69,0,39.37-41.58,39.37-52.78l.21-8.11C217.85,39.43,204.08,0,178.27,0Z" transform="translate(-25.09 0)"/></g><g id="Capa_3" data-name="Capa 3"><path class="cls-2" d="M178.27,140.16H82.75v36.62h77c16.61,0,23.28,8.19,23.28,18.3v0c0,10.11-7.74,18.3-23.28,18.3h-98V0H25.09V250H178.27c29.69,0,39.37-37.5,39.37-47.6l.21-7.32C217.85,175.72,204.08,140.16,178.27,140.16Z" transform="translate(-25.09 0)"/></g></svg>