<svg xmlns="http://www.w3.org/2000/svg" xmlns:xlink="http://www.w3.org/1999/xlink" viewBox="0 0 203.13 223.93"><defs><style>.cls-1,.cls-2,.cls-3,.cls-4{fill:none;stroke-miterlimit:10;stroke-width:14.17px;}.cls-1{stroke:url(#Degradado_sin_nombre_100);}.cls-2{stroke:url(#Degradado_sin_nombre_100-2);}.cls-3{stroke:url(#Degradado_sin_nombre_100-3);}.cls-4{stroke:url(#Degradado_sin_nombre_100-4);}.cls-5{fill:url(#Degradado_sin_nombre_130);}</style><linearGradient id="Degradado_sin_nombre_100" y1="111.97" x2="203.13" y2="111.97" gradientUnits="userSpaceOnUse"><stop offset="0" stop-color="#e31b84"/><stop offset="0.1" stop-color="#e3237f"/><stop offset="0.26" stop-color="#e33970"/><stop offset="0.46" stop-color="#e45d58"/><stop offset="0.68" stop-color="#e48e37"/><stop offset="0.93" stop-color="#e5cd0d"/><stop offset="1" stop-color="#e5e000"/></linearGradient><linearGradient id="Degradado_sin_nombre_100-2" x1="18.78" y1="111.97" x2="184.36" y2="111.97" xlink:href="#Degradado_sin_nombre_100"/><linearGradient id="Degradado_sin_nombre_100-3" x1="37.56" y1="111.97" x2="165.59" y2="111.97" xlink:href="#Degradado_sin_nombre_100"/><linearGradient id="Degradado_sin_nombre_100-4" x1="56.31" y1="111.97" x2="146.82" y2="111.97" xlink:href="#Degradado_sin_nombre_100"/><radialGradient id="Degradado_sin_nombre_130" cx="110.25" cy="111.97" r="31.36" gradientUnits="userSpaceOnUse"><stop offset="0.2" stop-color="#fff"/><stop offset="0.3" stop-color="#fafafa"/><stop offset="0.4" stop-color="#ececed"/><stop offset="0.52" stop-color="#d5d5d8"/><stop offset="0.65" stop-color="#b4b5b9"/><stop offset="0.77" stop-color="#8a8b92"/><stop offset="0.9" stop-color="#575963"/><stop offset="0.94" stop-color="#474954"/></radialGradient></defs><g id="Capa_2" data-name="Capa 2"><g id="Capa_1-2" data-name="Capa 1"><path class="cls-1" d="M199.4,26.66c-21.75-13.43-48.83-20.86-78-19.39C58.21,10.46,8,55.91,7.1,110.5,6.17,169.09,61,216.85,128.7,216.85a135.44,135.44,0,0,0,65.18-16.36"/><path class="cls-2" d="M180.64,43.31a108.91,108.91,0,0,0-62.23-15.62C67.67,30,27,66.26,25.9,110.08c-1.22,47.48,43.05,86.3,97.83,86.3a109,109,0,0,0,52.46-13.17"/><path class="cls-3" d="M161.87,60A82.4,82.4,0,0,0,115.43,48.1C77.12,49.56,46,76.62,44.69,109.66,43.19,146,76.93,175.9,118.76,175.9a82.51,82.51,0,0,0,39.74-10"/><path class="cls-4" d="M143.1,76.61a55.93,55.93,0,0,0-30.66-8.1C86.58,69.1,65.07,87,63.49,109.24c-1.79,25.24,21.42,46.19,50.3,46.19a56.09,56.09,0,0,0,27-6.78"/><ellipse class="cls-5" cx="110.25" cy="111.97" rx="32.94" ry="29.7"/></g></g></svg>