<svg xmlns="http://www.w3.org/2000/svg" viewBox="0 0 394.05 349.5"><defs><style>.cls-1{fill:#7b6a58;}.cls-2{fill:none;}.cls-3{fill:#009fe3;}</style></defs><g id="Capa_2" data-name="Capa 2"><g id="Capa_1-2" data-name="Capa 1"><path class="cls-1" d="M155.05,20.89h22.12l-1.48,141.93H283.2v17.36H155.05Z"/><path class="cls-2" d="M155.05,20.89h22.12l-1.48,141.93H283.2v17.36H155.05Z"/><path class="cls-1" d="M135.94,21.57c.28-.85-3-.55-3.6-.68C133.07,22.32,136.79,21.53,135.94,21.57Z"/><polygon class="cls-1" points="143.4 35.61 142.06 35.37 145.35 37.44 143.4 35.61"/><path class="cls-1" d="M143.34,48.75c5.61-1.24-.9-4.76,1.09-7.1l1.28-.39-4.51-1C141.91,43.05,144.91,46.75,143.34,48.75Z"/><path class="cls-1" d="M131.22,55.75c2.18-.43,1.88,1.52.68-1.63a4.52,4.52,0,0,1-.55.3A3.75,3.75,0,0,1,131.22,55.75Z"/><path class="cls-1" d="M131.35,54.42c-.16-1.39-1.83.9,0,0Z"/><path class="cls-1" d="M132.6,60.81,130.65,59c-1.28.38-1.58,2-2.51,1.4C129.21,62.25,130.49,61.87,132.6,60.81Z"/><path class="cls-1" d="M136.69,62.53l-.82-.94C135.33,61.75,135.14,62,136.69,62.53Z"/><path class="cls-1" d="M134.13,59.59l1.74,2c.9-.27,2.72-.29-.63-.92C136.9,60.83,135.3,60.44,134.13,59.59Z"/><path class="cls-1" d="M135,58.45c1.22-1,2-2.34,3.93-.51C138.14,54.45,134.2,55,135,58.45Z"/><path class="cls-1" d="M149.14,49.42l1.64-1.37-1.88-1.18C149.83,47.46,147.38,49.51,149.14,49.42Z"/><path class="cls-1" d="M129.7,72.16c1.19.11,3.18-.62,4.7-.75L133,70.06C132.22,70.75,131.47,72.06,129.7,72.16Z"/><path class="cls-1" d="M134.4,71.41l2,2C136.69,71.62,135.72,71.29,134.4,71.41Z"/><polygon class="cls-1" points="142.91 62.86 138.61 59.55 142.97 63.49 142.91 62.86"/><polygon class="cls-1" points="129.55 79.85 126.79 78.71 130.96 80.74 129.55 79.85"/><path class="cls-1" d="M130,85c-2.28-.85-3.86,1.16-5.27.26.41,1.39,2.37,2.57,4.14,3.64C127.91,87.72,128.16,86.51,130,85Z"/><path class="cls-1" d="M131.47,90.64a14.57,14.57,0,0,0-2.57-1.79A7.35,7.35,0,0,0,131.47,90.64Z"/><path class="cls-1" d="M135.86,76.85c-.72.16-2.61.46-3.4,1.59l3.35-.8Z"/><path class="cls-1" d="M135.92,77.62l-.11,0c-.07.86-.15,1.46-.19,1.72C135.65,79.14,135.74,78.61,135.92,77.62Z"/><path class="cls-1" d="M135.87,76.65c0,.08,0,.13,0,.2C136.19,76.78,136.3,76.73,135.87,76.65Z"/><path class="cls-1" d="M139.88,68.14c1.87,1.18,3.88,3.65,6.74,1.26C144.33,68.55,142.7,69.92,139.88,68.14Z"/><path class="cls-1" d="M140.07,75.67l.76-2.14c-.88,0-2.17.43-3.1-.16Z"/><polygon class="cls-1" points="141.13 76.72 140.07 75.67 139.78 76.46 141.13 76.72"/><path class="cls-1" d="M134.61,87a3.84,3.84,0,0,1,1.81,3.08,7.72,7.72,0,0,0,1-3.69C136.38,86.19,134.49,85.66,134.61,87Z"/><path class="cls-1" d="M135.54,82.43c.07.06.11.14.19.2C136,82.51,136.1,82.4,135.54,82.43Z"/><path class="cls-1" d="M136.4,101.29l.61-.18-.58,0Z"/><path class="cls-1" d="M138.06,86.15c.64-.92-.18-1.46-1.21-2a5.41,5.41,0,0,1,.58,2.2C137.91,86.44,138.22,86.45,138.06,86.15Z"/><path class="cls-1" d="M133,93.77a11.52,11.52,0,0,0,1.85-1.59C133.82,92.65,132.16,93.6,133,93.77Z"/><path class="cls-1" d="M134.8,82.94a1,1,0,0,1-.15-.14C133.93,83.11,134.28,83.07,134.8,82.94Z"/><path class="cls-1" d="M134.8,82.94a8.36,8.36,0,0,0,2,1.22,5,5,0,0,0-1.12-1.53A4.82,4.82,0,0,1,134.8,82.94Z"/><path class="cls-1" d="M157.93,104.7c-3.1-.17-6-2.58-2.64-4.67C153,98,142.73,99.32,137,101.11a5.12,5.12,0,0,1,4.45,2.18c1.69-.74,4-4.69,6.78-2.91,1.6,2.8-1.1,2.29-2.74,3.66,3.87-1.16,5.63,3.56,11.33,2.95l-2-2.46C155.71,104.49,157.13,105.38,157.93,104.7Z"/><path class="cls-1" d="M137.33,97.08l-.39-.87c-.54,1-1.78,1.7-4.22,3a5.78,5.78,0,0,0,3.71,1.85l.43-4.29Z"/><path class="cls-1" d="M136.93,92.31c3.38.68,4.82,2.77,8.48,1.49-.23-2.56-2.82-1.79-4.29-3.32.84,4.12-1.89-1.18-3.8,1.8a5.34,5.34,0,0,1-.9-2.23,10.94,10.94,0,0,1-1.54,2.13l.21-.09v0h0c.42-.18.68-.24.43,0,.05,0,.06.06.07.08a9.12,9.12,0,0,1,1.28.19c-.7,1.19-.88.18-1.28-.19-.16,0-.32-.05-.5-.05l0,0,1.85,4.12C137.41,95.34,137.32,94.25,136.93,92.31Z"/><path class="cls-1" d="M153.9,71.6a2,2,0,0,1-.79.13C153.53,72,153.81,72.1,153.9,71.6Z"/><path class="cls-1" d="M151.85,73.3c-.47-.3-1.82-.55-1.47-1.53,1-.84,1.62,0,2.73,0-.89-.59-2.42-2-4.07-.21l.46.29c-1.16,1.66-5.38,3.8-5.84,3.51A39.21,39.21,0,0,0,151.85,73.3Z"/><path class="cls-1" d="M145.25,82.92l1.66,3.44,2.93-1.75-1.76.09C148.77,82.74,146.61,83.16,145.25,82.92Z"/><polygon class="cls-1" points="134.72 101.68 131.15 101.23 136.19 103.21 134.72 101.68"/><polygon class="cls-1" points="135.15 106.15 132.04 105.98 133.91 107.16 135.15 106.15"/><path class="cls-1" d="M250.78,181.47l-1,.88A3.21,3.21,0,0,0,250.78,181.47Z"/><path class="cls-1" d="M258.09,181.68l.18-1.53C257.93,181,257.79,181.61,258.09,181.68Z"/><path class="cls-1" d="M190.68,199.74c1.47,2.9,3.11,7.4,2.93,3.9l-.45-3.4A1.8,1.8,0,0,1,190.68,199.74Z"/><path class="cls-1" d="M265.78,179.4l-.43-1c-.36,1.17-.69,2.27-1,3.25C264.79,180.93,265.27,180.18,265.78,179.4Z"/><path class="cls-1" d="M266.82,165.31l1.94,2.19A7.64,7.64,0,0,0,266.82,165.31Z"/><path class="cls-1" d="M210.86,185.08l-1.18,3.47C211.52,188.53,210.71,186.78,210.86,185.08Z"/><path class="cls-1" d="M136.4,153.1a13,13,0,0,0-2.05,5.47C136.3,155.62,139.23,153.56,136.4,153.1Z"/><path class="cls-1" d="M253.65,145.32a2.77,2.77,0,0,0-.86,2.07A2.2,2.2,0,0,0,253.65,145.32Z"/><path class="cls-1" d="M134.36,164.74c.34-.48.51-.89.8-1.35a9.24,9.24,0,0,1-.81-4.82C132.89,160.69,132,163.31,134.36,164.74Z"/><path class="cls-1" d="M157.4,53c.16-.1.23-.23.41-.32C157.35,52.65,157.33,52.79,157.4,53Z"/><path class="cls-1" d="M167.31,6A5.34,5.34,0,0,1,169,5.7C168.73,5.47,168.21,5.49,167.31,6Z"/><path class="cls-1" d="M133.66,124.11c-.22-.94-.38-.15,0,0Z"/><path class="cls-1" d="M147.13,119.51a3.7,3.7,0,0,0,1.65.38A4.56,4.56,0,0,1,147.13,119.51Z"/><path class="cls-1" d="M155.55,167.84v.09C156.21,167.25,156.08,167.38,155.55,167.84Z"/><path class="cls-1" d="M135.21,122.69a4.26,4.26,0,0,0-1,1.21A4.81,4.81,0,0,0,135.21,122.69Z"/><path class="cls-1" d="M133.6,122.88c.15-.33.24-.58.33-.83C133.36,121.93,133,122,133.6,122.88Z"/><path class="cls-1" d="M133.84,125.43a2.77,2.77,0,0,1,.36-1.53c-.23.19-.43.26-.54.21C133.71,124.39,133.78,124.78,133.84,125.43Z"/><path class="cls-1" d="M165.71,130.67c.11-.06.18-.13.32-.2C164.63,129.5,164.85,129.93,165.71,130.67Z"/><path class="cls-1" d="M215.32,164.37s-.06.12-.1.16l.14.12Z"/><path class="cls-1" d="M218.73,161.83c-1.45,4.24-2.28,3.72-3.37,2.82l1.12,9.82Z"/><path class="cls-1" d="M233.28,182.45l2.38,3.06c-2.88,5-5,3.3-2.72,7.6.34-10.66,9.28-1.09,9.61-11.74l1.58,2.24c-.45-.1-.52.52-1,.42,3.06,5.1,2.27-7.71,6.22-6.19,1.38.81,2.33,2.36,1.4,3.63l3.06-2.64c.89.21.67,2.06-.21,1.85l4.67-.85,0,.32a35.67,35.67,0,0,1,2.91-5.36c1.19,1.53-.59,1.13-.29,2.46l2.59-2.58c1,2.76-1.09,5.44-2.88,5,2.42,10.65,2.15-2.68,7.36,3.54l-2.44,1.35c1.57,6.05,3.48,3.86,6.24,7.63-.65-2-5.53-9.5-2.72-12.16.79.81,1.84,1.19,3.35-1,0,3.79,1.49,2.86,3.34,2.65l-.12,5c2-1.45,1.84-4,3-6.27,2.23.5,2.69,4.39,3.22,7.66,3.44.77-2-5.71,1.35-7l-18.3-18.3a1.8,1.8,0,0,1,.13.41c-1.92,3,.13,5.06,3.14,8.61-1.73,2.08-3.07-.36-4.51.38l4,1.85c-.1.45-1.33.3-1.95.23,1.55,1.55,5,.12,6.38,2.57,2.87.34.58,1.68-1.41,3.31l12.51-12.51c-1.51-1.83-3.26-3.41-4.72-.39-.74-1.42.36-3.08.14-5-4.15,4.12-3.56,3-7,8.54l-2.9-3.3c2.13,3.77-.59,8.24-3,11.9.76,1.82,1.4,3.42,1.84,4.18l-3.81,2.69c-.46-.82-.08-2.55.55-4.65-.26.42-.51.83-.7,1.21-1.36-1.86-.66-4.76.32-7.56.46,1,.92,2,1.37,3.1.94-3.05,1.82-6.43,1.62-9.37a2.77,2.77,0,0,1-1.24,1.35,4.75,4.75,0,0,0,.29-2.06c-.13-.53-.53.58-1.15,1.86l-.87-5.6-.21,2.23-5-3.51c-3.56,5.64-6.66,13.93-12.31,16.24,1.4-4.1.3-6.7.38-11.57,1.54,5.15,4.38-2.18,7.31-1.14-1.53-.54-1.2-2.86-.81-3.67l-5.22,4.69c.11-4-1.11-3-2.48-4.63,1,7.86-3.9,5.24-6,7.65-.13-2.64.38-5.34,3-4.7-2.86-5.92-3.7,9.23-6.51,4.2.64-.06,1,.34,1.23-1-1.48,2.35-5.1.49-4.25-1.81l.63-.05c-4.2-.93-12.8-.06-13.43,6.62,0-.87.55-8,.81-9.4l-7.5,22.46c.66-5.73-1.88-19.39,1.61-22.63-1-.81-2.24-1.77-4.36.26.69.81,1.71,8.29.77,8.81-2.56-6.38-1.77-3.41-4.93-8.86,1,1.23-.12,10.23-1.73,9.94.25-1.35-.14-8.88.45-9.81l-4,8.82c1-1.59.18-7.48-.72-10,.42,1.73-3.48-.16-4.55.71l1.7,2c-4.55-1.34-4.49,12.41-9,12,.55-1.83,1.35-11.23-.95-12.34-.51,2.26-1.71,7.7-3.19,13a32.34,32.34,0,0,1-3.24,7.45,13.83,13.83,0,0,1-4.46,4.77c-.17-.86-.33-1.72-.46-2.58q-2.29,1.47-4.89,2.94a114.15,114.15,0,0,0,8.88-13.81,60.83,60.83,0,0,0,3.25-7.31c.41-1.12.74-2.16,1-3.1l.38-1.32.16-.6a5.52,5.52,0,0,1,.26-.55,1.57,1.57,0,0,1-.26-.37l-.11-.35a5.79,5.79,0,0,1-.14-.61l-.14-.93c-.08-.48-.2-.67-.72-.55a7.34,7.34,0,0,1,.39-2.76,2.66,2.66,0,0,1,.56-1.06,9.13,9.13,0,0,1-1.32-1.56,12.71,12.71,0,0,1-2,5.17,17.32,17.32,0,0,0-2.49,4.52,26.91,26.91,0,0,0,4.34-5.47,26.87,26.87,0,0,1-2.92,9.35c-1.63,3-4.14,5.16-5.73,4.7,0-1,1.17-3.4,2.32-5.71s2.25-4.57,2.56-5.45a6.39,6.39,0,0,1-2.07,2.26c-.75.48-1.35.57-1.11-.08q1.23-1.41,2.28-2.82c0-1-1.28.76-2.6,2.13s-2.66,2.35-1.68-.17c-.14-.17.71-1.87,1.42-3.13s1.21-2.1-.07-.54c-4.3,6-17,24.65-21.93,29.17a12.39,12.39,0,0,1-.89-3.4,9.09,9.09,0,0,1,1-5.33c1.46-2.36,4.91-5.17,8-7.9a54.67,54.67,0,0,0,7.39-7.41,34.6,34.6,0,0,1-4.43,3.79c.4-.91,2.75-2.9,3.16-3.63.26-.36.35-.63.18-.79-2.67,2.49-2.56,1.63-2.4,1.08s.37-.92-2.12,2.55c-.77-.06-.49-.76,0-1.56a5,5,0,0,0,.92-2.52,26.71,26.71,0,0,1-7.38,4.65c-2.7,1.14-5.15,1.37-5.92.62a25.11,25.11,0,0,0,3.94-3,25.07,25.07,0,0,1,1.65-6.19,15.91,15.91,0,0,0,1.31-5.31c.65-.32,1.37-1,2.21-1.52a4.74,4.74,0,0,1,3-.81c-1-.24-2.76-.38-2.89-1.41,2.31-1.21,2.49-.63,2.79-.12s.71,1,3.49,0a4.71,4.71,0,0,1-3.56-.9,11.68,11.68,0,0,1-1.32-1.15c-.21-.21-.43-.39-.66-.64a9.58,9.58,0,0,0-.69-.73c-4.81.68-.92,3.89,1,4.86a17.9,17.9,0,0,1-9.64-.67c-3-1.08-5.45-3.69-7-5.66-1.64-3.44,4.28-1.49,3.34-2.09,1.16-6.46-11.57-5.5-6.79-10.87,4.22-2.13,8.4-.1,11.44-.57,1.6,2.81-2.68,4.31-2.51,6.21l2-2.34c1.4.89,2.47,2.76,1.24,3.78,3.8-1.79.73-10.92,4.23-15.91-1.41-.88-2.88-2.41-4.57-1.69l.59,1.58c-3.41,1.45-4.71-3-6.3-1-2.39-2.12-6.15-4.49-4.23-7.47l4.82-.56c-1.41.06-2.87,2-1.41,2.79-2.13-1.25,6.52-4.57.22-5.93L144,115.65c-2.42-2.13-7.53-4.76-6-7.4-4.75,1.21.55.61-5,2.49,6.92-1.63-.29,6.75,7,4.14-6.45,1.93-2.73,3.33-8.24,5.85,1.59-.08,3-.89,2.26,1.32a8.78,8.78,0,0,1,1.4.49l-.12.15.19-.12c.23.09.28.1.06,0a6,6,0,0,1,2.42-1.13c3.64,1.1,3.53,4.63,5.41,5.82-.75,1.31-1.82-.55-3.51.17l2.82,1.78c-3.53.17-5.86,3.49-7.92.39l-.16,2.79c-2,1.64-2.77,3.9-1.28,5.29-.77,1.32,3.9,3.33,1.14,2.18l2.18,4.37-.88,0a7.2,7.2,0,0,0,.63,3.28c.21.56.45,1.12.69,1.68l.17.43a2,2,0,0,1,.17.51q.16.68.3,1.35c.72,3.64.7,7-2.48,11.91.89,2.2,2,4.13,1,8.48-1,.72-2,1.44-3.06,2.19.54,1.35-.23,4.11-.72,6.63s-.74,4.71.85,4.33a15.58,15.58,0,0,0-4.27,10.72c-.06,3.47.78,6.57,1.12,9.44a12.45,12.45,0,0,1,4.39.09l3.87-4c3.63.23,8.35-.9,14-2.5l2.12-3.52c2.79-1.44,4.55-.82,6.66.12s4.53,2.2,7.62,2a1.87,1.87,0,0,1-3.08.18,4.66,4.66,0,0,0,4.75,2.55,18.84,18.84,0,0,0,6.2-1.73,32.56,32.56,0,0,1,5.7-2.13,5.78,5.78,0,0,1,2.55,0,3.15,3.15,0,0,1,.59.18,3.43,3.43,0,0,1,.41.29,4.77,4.77,0,0,1,.78.86c1-1.28,1.78-.84,2.51,0a.37.37,0,0,0-.26.19,1.09,1.09,0,0,0,.42,0c.46.61.93,1.31,1.44,1.88a7.52,7.52,0,0,0-1.21-1.89,6.84,6.84,0,0,0,3.19-1.39l.5,3.78a1.53,1.53,0,0,0,.27-.11c1.17,1.39.94-1.79.32-4.63a8.41,8.41,0,0,0,1.56-2.28c.95,6.1,3.11-2.06,4.4,4.45.79-3.17,5.94-2.39,6.57-9.07,0,.87.39,1.29-.25,1.34,1.32.76,2.64,1.52,3.83-.36l.55,4.81,2.89-6.46c1.74,2.92,2.47,4.63.73,8.33,4.2-5.69,3.41-2.15,7-7.79l-.17,3.11c1.28-.12,3.32-4.28,4.08-1.71,2.86,5.91,14.12.82,21.44,6.3-1.42-9.14,3.41,4.11,3.7-3,.42,2.17,1.45,3.39.26,5.27,3.74-2.13,5.61,3.43,8.2-2.55.42,2.18-.8,3.18-.42,4.46.3-.47,1.18-1.88,1.57-.59s-.55,1.82-1.14,2.76c3.82-.36,4.21-7,4.48-13.29,1.94,3,2.91,2.54,4.3-1.56.68,2,1.8,4.19-.57,4.92,1.33.3,8.15,3,8.29-2,.41,1.27,1.86.37,2.21-.21,2.89.29,3.24.72,6,.32l19-2.71-8.44-7.81a1.45,1.45,0,0,1-.05-.23l-.23.23L283.2,190.42l-.58-.59a11.83,11.83,0,0,1,.58-2.17l7.48-7.48c-2.49-1,.7-2.24.1-4.23l.62.07c4.36-5.43-2.1-2.35,2.89-7.71l-3.77.29c-6.38-.39.27-3.12,1.85-5.78l1.64-2.75-10.81-6.42a1.56,1.56,0,0,0-2.08.17l1.12,2.15c-1.7,2.77-4.75-11-6.46-12-.37-.71.59-1.13,1.11-1.65-4.47-4.78-.58,4.93-3.91,6.08-.61-2.66.79-6.77-1.45-7.26-1.11-2.16-6.5,8.63-9.56,3.53.68,2,1.35,4.1-.2,5.64-2.37.73-6.41-7.75-8.55-1.29a3.5,3.5,0,0,1-.43-1.61c-1.81,1.67-5.89,2.78-7,6.28-1.68-13-11.27,6.32-11.23-5.67l-5.57.64.14-1.22c-3.56-.8-4.82,2.08-6.07,5-.83-.82-.23-1.94-.16-2.57-5.21-2.42-5.72-1.91-10.09,4.07l-.45-3.89c-.59,1.13-2.48-.4-4.85-1.64-1.47-.62-1.8-1.17-2.48-1.28s-1.28.22-2.19,1.36a8.58,8.58,0,0,1,.64-1.75c-.91,1.14-1.76,1-2.31.46a5.68,5.68,0,0,1-1.07-2.37c-.47-1.5-.71-1.8-6.47,5.29-1.57,1.16-3.28,2.33-5.15,3.49,1.23.55,0,2.09-1.79,3.78s-4.17,3.55-4.15,4.72c-1.29.42-1.63-.65-1.12-1.91a5.43,5.43,0,0,1,3-3.09l-.32.71c4.49-4.7,2.49-4.48,1.71-5a7.83,7.83,0,0,1,2.7-3.8c-.16-2.66.81-6.22,1.86-9.1s2.17-5.25,2.35-7.24c-1.92.17-3.83.41-5.75.71l.17-1,.18-1.58c1.35-.81,4.51-1.06,4.25,1.19,3.26-1.15-2.69-3.8-3.94-3.88,2.38-4.38,6.68,1.79,6.83.44l-.41-1.84-.67.41c-2.33-1.51-4.82-1.67-4.51-4.37,1.17-1.7,3.55-.84,3.78-1.51.41,0,.6-.22.18-1l.53-4-4.55,1.54c-2.22-1.79.28-3.74-4.88-2,7.95-2.61,3-14.79,5.47-16.42-3.27-2.5-3.19-4.93-2.76-7.94-1,.74-6.05,1.13-5.4-1.46,10.5,1.06,4.61-4.72,12.2-6.74-5,1.83-1.16-7.41-8.32-4.54.88-2.16,3.94-.09,6.43-1.71-4-5.21,2.77-11.35,1.46-17.76-1.38-.11-3.5.94-5.54-.45l6.94-3.3c-.67-1.27-8-1.25-3.14-3.5-1.17.31-2.93.78-3.36-.07,5.54-10-1.28-20.56,2.6-30.86l2.86-7.59L177.17,7.51a20.21,20.21,0,0,1-7.39-4.85c1.72,2.68.58,2.94-.74,3,.86.64,0,3.41.15,5.28l-5.32-5.2c-1,5.2-5.7.36-6.26,5.32l1.69-.89c-2.24,5.86,3.13,13,2.81,20.54,2.5-6.66,6.61,9.87,10.72.33.91,1.54-.77,2.42-.28,4.17,1-3.22,2.29-3.89,4.62-2.46l-11.9-12h0l11.94,12.07-.25.76.25,0L164.5,20.76c.6,6.4-2.55,9.2-4.71,16.44l3.72-.51c-.51,1.58-1.68,1.9-2.62,2.63,5.62,1.88.37-4.44,6.56-2.72-7.58,2-.23,11.16-8.84,12.49-.07,2.44,4.31-.67,4.24,1.77l-2.34.62,3,.65c-.52,1.59-3.43,2.36-5.4,2.4.23-.38-.54-1.1-.71-1.52-2.76,2,.88,5.85,0,6.55l1.45-2.33c2.11,6.67-1,14.76,3.63,21.23l1.77-.47c3.19,4.94-2,3.91-.53,9.31l-.41-.2c1.73,1.09,2.6,2.54,2.39,4-2-1.38-4,2.52-6.28.71,3.43,5.35,2.71,2.66,9.19,6.24l-2.91.78c2.62,1.22,4,1.34,4.73,4-2.48-2.24-4.45,1.67-7.73-.84-6.43,5.58,6.34,8.45-3,10.94,8,2.67,4.53-4.84,6.24-3.37,2.64-1.19,6,2.2,5.17,4-.2,1.81-10.34,3-10.23,7.5,0-.45-.57-.49-.53-.94-2.07,1.68,2.75,3.35-.61,5.4,4.86,1.22-.31,2.7,5.9,3.1l-1.4-4.17c.8,1.18,3,2.35,4.58,3.7a4.54,4.54,0,0,1,1.61,2.19,2.19,2.19,0,0,1,0,1.24,4.12,4.12,0,0,1-.32.69,5.34,5.34,0,0,1-.55.86,7,7,0,0,1-2-1.14,13.34,13.34,0,0,1-1.77-1.33c-.46.28-.62.56-.62.84a2.77,2.77,0,0,0,.28.91,1.73,1.73,0,0,1-.37,2.31,3.18,3.18,0,0,1-2.9-1.26,3.9,3.9,0,0,1-.49-1.33,6.92,6.92,0,0,1-.17-1.11c-.14-1.54-.09-3.35-2.45-4.64-2.64,1.19,4.45,4.82-2.27,3.48,2.14.48,3.14,1,3.53,1.56a1.34,1.34,0,0,1,.2.42,1.64,1.64,0,0,1,0,.22,1.9,1.9,0,0,1,0,.34,6.94,6.94,0,0,1-.29,1.41,7.92,7.92,0,0,0-.47,3.11,3.93,3.93,0,0,0,2.38,3l-3.73.3c.58.69,2.32,1.89,2.21,3.23a49.63,49.63,0,0,1-4.81-1.54c2,1.67,1.12,3.69,0,6s-2.56,4.91-1.45,6.49c0-4.26,1.12-5.1,2.6-5.46s3.31-.34,4.69-2.34c1.22,1.85,1.23,3.19.56,4.54a18.45,18.45,0,0,1-3.43,4.06,23.1,23.1,0,0,0-4,5,10.9,10.9,0,0,0-1.27,7c-.25-.64.33-2.53,1.18-4s2-2.55,2.85-1.89a35.14,35.14,0,0,1-4.25,9.17c.35,3.71,1.32,2.59,2.49.87s2.52-4,3.66-3.37c-2.3,2.95-1.84,3.56-.63,3.51s3.18-.71,3.89.05l-3.82,3.44c-.94,3.84-.1,4.15,1.18,3.38,1.54-1.09,3-2.49,4.35-3.38s2.57-1.29,3.76-.36q-3.76,2.63-7.86,5.25l5-1.36-4.68,4.31c3.65-1.6,5.48-2.19,6.9-2.23s2.36.47,4.05,1.07a12,12,0,0,1,3.49-4.45c1.65-1.4,3.51-2.48,5.14-2.54.88,2.25-3.51,3.6,1.67,3.06a19.74,19.74,0,0,1-3.65,3.12c-1.1.61-2,.48-2-1.27-1,1.24-2.7,2.38-3.77,3.6.55,1.29,2.34,1.44,4.15,1.26s3.68-.69,4.68-.71c-.7-.14-1.51-.34-1.69-.88q5.34-2.62,9.85-5.25c.59,1.42-.69,2.57-2.08,3.68,1.72-.41,3.37-2.15,5.61-2.47-1.49,3.08-2.21,6.25-6.29,7.7q4.65-1.71,8.79-3.41a7.84,7.84,0,0,0,1.57,2.48c.66.89,1.19,1.76.56,2.33,2.17.9,5.24-.59,8.12-2l.55-.27a1.27,1.27,0,0,0,.35-.26q.31-.25.63-.48a6.21,6.21,0,0,1,1.26-.76,2.44,2.44,0,0,1,2.53.19,2.72,2.72,0,0,1,1.22-1.61c3.12.7,5.88,4.48,9.58.26l2.09,5.52c2.9-1.26-2.84-7,2-9,3.42-1.76,1.28,4.71,2.47,6.25,1.7-2.79,4.65-8.45,7.79-4C235.06,182.85,234.24,182,233.28,182.45ZM269,180c-.69.8-2.07,3.25-2.57,1C267.18,176.67,267.79,178.75,269,180Zm-8.44-7.88c.51-1.25,1.31-.63,2.2.8C262.08,173.23,261.34,173.09,260.53,172.12ZM136.74,134.49l.18.08C135.45,136.11,136,135.56,136.74,134.49Zm1.64-3.2a1.92,1.92,0,0,0-1.58-.16c1,.22,1,.94.76,1.76C138.55,132.66,139.23,132.25,138.38,131.29Zm52.92-10.46-1,.61C189.23,120,190.21,120.42,191.3,120.83Z"/><path class="cls-1" d="M266.68,166.94A9.14,9.14,0,0,1,267,169,1.88,1.88,0,0,0,266.68,166.94Z"/><path class="cls-1" d="M211.07,184.44s-.07,0-.1-.05a3.3,3.3,0,0,0-.11.69Z"/><path class="cls-1" d="M170.86,164.74a9.39,9.39,0,0,1-1.21,1.95C170.54,165.76,171.11,165,170.86,164.74Z"/><path class="cls-1" d="M132,114.31l1,2c-.18-1,.65-1.34,1.25-1.84C133.29,114.56,132,115,132,114.31Z"/><path class="cls-1" d="M155.38,96.5c-.46-.3,0-.64-.52-.93l-1.76.08C153.22,96.93,154.64,97.82,155.38,96.5Z"/><path class="cls-1" d="M144.53,112.41c3.19-.16,2.11-1.45,1.52-2.89a.46.46,0,0,1,0,.26C141.59,109.36,143.07,110.89,144.53,112.41Z"/><path class="cls-1" d="M145.94,109.19a2,2,0,0,1-.08-1.33C144.07,107.69,145.49,108.4,145.94,109.19Z"/><path class="cls-1" d="M136.27,127.23c.82-.68-4.07-.43-2.77-.82C129.44,125.65,138.4,131,136.27,127.23Z"/><polygon class="cls-1" points="155.03 111.25 151.1 111.76 154.27 112.57 155.03 111.25"/><path class="cls-1" d="M152.14,122.6l1.09-2.3a1.48,1.48,0,0,1-1.34-.61C151.76,121.1,151,122.65,152.14,122.6Z"/><path class="cls-1" d="M151.89,119.69a1.77,1.77,0,0,0-.65-1.85A3.65,3.65,0,0,0,151.89,119.69Z"/><polygon class="cls-1" points="156.21 114.39 155.39 115.07 155.1 116.69 156.21 114.39"/><path class="cls-1" d="M151.38,147.29l1.13,2.51c1.35.26,2.17-.43,1.64-1.36C153.21,147.84,152.69,146.91,151.38,147.29Z"/><path class="cls-1" d="M162.15,139.71c-.81.68-1.69.72-3,1.11l4.88.07Z"/><path class="cls-1" d="M163.29,147c1.36.25,3.88,3.64,3.58.46C165.53,147.23,164.4,144.72,163.29,147Z"/><path class="cls-1" d="M161.42,178.11l-.64.06-6.84,8Q157.75,182.14,161.42,178.11Z"/><path class="cls-1" d="M193,159c-3-1.92-.71,4.93-3.39,2.54-.7,1.89,2.19,1.95,1.48,3.58C192.84,163.11,193.78,164.24,193,159Z"/><path class="cls-1" d="M191.05,165.1a8,8,0,0,0-.92,1.22A4,4,0,0,0,191.05,165.1Z"/><polygon class="cls-1" points="160.31 1.67 158.4 0 159.63 2.69 160.31 1.67"/><path class="cls-1" d="M156.64,7.6l-.45-5.1-1.14,4.61C155.48,6.89,156.32,6.45,156.64,7.6Z"/><path class="cls-1" d="M274.28,190.27l.15-1.23c-.3-1.33-.75-1.43-1.64-1.63Z"/><polygon class="cls-1" points="248.37 186.45 248.82 186.56 247.98 181.95 248.37 186.45"/><path class="cls-1" d="M226.63,192.33c.88.19,1.93-.84,2.82-.64C227.51,192.52,226.39,186.58,226.63,192.33Z"/><path class="cls-1" d="M366.12,37.59c8.17,17.91,16.57,54.68,16.57,101.48,0,108.15-62,189.26-176.12,189.26-109.13,0-182.43-81.24-182.43-200.42,0-47.43,9.1-78,15.29-91.11L76,49c-8,18.66-21.52,45.44-21.52,77.35,0,90.17,61.56,174.27,152.87,174.27,85.08,0,145.38-77.34,145.38-170.34,0-30.5-13.7-62.61-22.41-82.74Z"/><path class="cls-2" d="M366.12,37.59c8.17,17.91,16.57,54.68,16.57,101.48,0,108.15-62,189.26-176.12,189.26-109.13,0-182.43-81.24-182.43-200.42,0-47.43,9.1-78,15.29-91.11L76,49c-8,18.66-21.52,45.44-21.52,77.35,0,90.17,61.56,174.27,152.87,174.27,85.08,0,145.38-77.34,145.38-170.34,0-30.5-13.7-62.61-22.41-82.74Z"/><path class="cls-1" d="M359.06,22.31c3.36-.67,1.4-3.09,1.77-3.73-2.85,1.13-3.15,2.21-2.83,3S359.25,22.65,359.06,22.31Z"/><path class="cls-1" d="M317.56,43.52l-1.95-1.58q3.51,4.56,6.79,8.56Z"/><path class="cls-1" d="M334.24,85.53c1.84-2.29.65-5.13-1.08-8.25-1.08-2-2.31-4.21-3.38-6.43a24.2,24.2,0,0,1-2.41-6.51c.22-.43.45-.84.68-1.24-1.92-1.22-3.91-2.58-5.95-4.06,1.26,2.61,2.76,5.4,4.19,8.15l2.16,4.1c.65,1.3,1.3,2.59,1.94,3.85s1.12,2.31,1.66,3.43c.4.85.77,1.69,1.08,2.5A14.25,14.25,0,0,1,334.24,85.53Z"/><path class="cls-1" d="M328.81,105.06c1.61-1.43,2.43,3.14-.33-3.92a4.75,4.75,0,0,1-.3.8A26.6,26.6,0,0,1,328.81,105.06Z"/><path class="cls-1" d="M328.18,101.94c-.92-3.16-1,2.48,0,0Z"/><path class="cls-1" d="M332.17,116.42c-.74-1.3-1.57-2.6-2.34-3.88-1,1.06-.6,4.72-1.63,3.49C329.65,120,330.64,119.09,332.17,116.42Z"/><path class="cls-1" d="M336.19,120l-1-2.11C334.78,118.29,334.69,118.87,336.19,120Z"/><path class="cls-1" d="M333,113.42l1.14,2.21,1,2.22c.71-.71,2.26-1-.8-2.06C335.88,116,334.38,115.23,333,113.42Z"/><path class="cls-1" d="M333.33,110.66c.56-2.58.55-5.9,3.1-1.86-1.16-4.12-2.61-5.66-3.37-5.15-.39.24-.58,1-.56,2.19A18.17,18.17,0,0,0,333.33,110.66Z"/><path class="cls-1" d="M339.58,85.63l.23-3.85c-.82-.82-1.7-1.62-2.55-2.42C338.58,80.56,338.19,86.32,339.58,85.63Z"/><path class="cls-1" d="M330.26,142.59c1,.34,2.84-1.3,4.19-1.57-.34-1.12-.63-2.23-1-3.34C332.67,139.34,331.79,142.47,330.26,142.59Z"/><path class="cls-1" d="M334.45,141l1.47,5.07C336.4,141.66,335.61,140.8,334.45,141Z"/><path class="cls-1" d="M341.65,120.19c-1.57-2.58-3.07-5.06-4.79-7.49l1.33,2.21,1.24,2.24c.82,1.51,1.67,3,2.39,4.58Z"/><polygon class="cls-1" points="328.08 160.84 326.1 157.78 327.55 160.45 328.89 163.14 328.08 160.84"/><path class="cls-1" d="M326.07,172.83c-1.49-2.39-3.88,1.88-4.6-.45a17,17,0,0,0,.2,4.69,44.69,44.69,0,0,0,1.1,4.46,10.31,10.31,0,0,1,.69-4.2,14.5,14.5,0,0,1,1.08-2.16A22.1,22.1,0,0,1,326.07,172.83Z"/><path class="cls-1" d="M323.63,186.23a22.07,22.07,0,0,0-.86-4.7A14.09,14.09,0,0,0,323.63,186.23Z"/><path class="cls-1" d="M334.54,154.44a5.64,5.64,0,0,0-3.48,3.43l3.16-1.5C334.32,155.78,334.43,155.12,334.54,154.44Z"/><path class="cls-1" d="M334.32,156.31l-.1.06c-.38,2.08-.65,3.52-.76,4.14Z"/><path class="cls-1" d="M334.62,154l-.08.48C334.85,154.29,335,154.19,334.62,154Z"/><path class="cls-1" d="M339.48,133.07c.78,1.5,1.58,3.83,2.51,5.05s2,1.34,3.28-1.7C343.32,134.2,341.84,137.61,339.48,133.07Z"/><path class="cls-1" d="M338.49,152l1.21-5.29c-.78.05-2,.91-2.66-.61C337.54,148,338,150,338.49,152Z"/><polygon class="cls-1" points="339.14 154.68 338.49 151.95 338.04 153.9 339.14 154.68"/><path class="cls-1" d="M328.73,178.53c.61,2.48.15,4.95-.56,7.65.36-.67.71-1.36,1.05-2.05s.6-1.41.88-2.13c.54-1.43,1-2.87,1.41-4.3C330.73,177.06,329.48,175.43,328.73,178.53Z"/><path class="cls-1" d="M332.05,167.9c0,.17,0,.37.08.53C332.42,168.18,332.55,168,332.05,167.9Z"/><path class="cls-1" d="M317.93,211.6c.21-.07.45-.09.67-.15-.13-.11-.27-.2-.4-.32Z"/><path class="cls-1" d="M332.17,177.34a5.38,5.38,0,0,0,.09-5,28.8,28.8,0,0,1-.75,5.4C331.86,178,332.11,178.08,332.17,177.34Z"/><path class="cls-1" d="M322.46,193.78a27.42,27.42,0,0,0,2.84-3.07C324,191.48,321.89,193.13,322.46,193.78Z"/><path class="cls-1" d="M331.2,169c0-.11-.06-.23-.07-.35C330.38,169.25,330.68,169.22,331.2,169Z"/><path class="cls-1" d="M331.2,169a12.94,12.94,0,0,0,1.06,3.29,16.32,16.32,0,0,0-.13-3.87A3.46,3.46,0,0,1,331.2,169Z"/><path class="cls-1" d="M330.25,228.14c-1.07-.86-1.27-3-.74-5.36a12.61,12.61,0,0,1,4.54-6.85c.52-5.86-9.15-6.15-15.45-4.48,1,.67,2,1.11.93,6.53,1.07-.46,3.22-2.66,5.09-4.16s3.41-2.33,3.53.29a14,14,0,0,1-1.45,3.79,4.32,4.32,0,0,1-1.46,1.59c-1,.62-2.07.67-3.52,1.85,2.21-.47,2.15,2.09,2.1,5a17.36,17.36,0,0,0,.29,4.21,2.92,2.92,0,0,0,2.16,2.48c.67-2.19,1.25-4.4,1.86-6.57C328.86,226.7,328.71,229.39,330.25,228.14Z"/><path class="cls-1" d="M323,202.61l.51-2.09c-1.38,2-3,3.27-6.27,5.19-.28,3.68.32,4.82,1,5.42l2.4-4.64c.39-.77.81-1.53,1.18-2.33l1.09-2.38Z"/><path class="cls-1" d="M326.88,191.58c2.2,2.5,1.55,7.92,5.64,6,2.08-6.19-.77-5.11-.79-9.15-1.23,5-1.39,4.2-1.72,2.93s-.85-2.94-2.79.27a34,34,0,0,1,.95-5.44,40.26,40.26,0,0,1-2.87,4.53,1.75,1.75,0,0,1,.25-.16v-.05l0,0c.48-.29.73-.36.38,0,0,0,0,.16,0,.21a3.22,3.22,0,0,1,.89.79c-1.58,2.54-.88.18-.89-.79a3.41,3.41,0,0,0-.37-.25l-.05,0-1,5c-.17.83-.31,1.67-.5,2.5l-.6,2.48a15.22,15.22,0,0,0,1.68-3.43C325.67,195.65,326.21,193.86,326.88,191.58Z"/><path class="cls-1" d="M351.33,142.46a.77.77,0,0,1-.7.31C350.94,143.5,351.17,143.79,351.33,142.46Z"/><path class="cls-1" d="M349.28,146.84c-.36-.83-1.49-1.57-1-4.1,1-2.17,1.4.09,2.38,0-.69-1.61-1.78-5.5-3.5-.76l.35.78c-1.18,4.33-5.51,9.4-5.8,8.6A18.4,18.4,0,0,0,349.28,146.84Z"/><path class="cls-1" d="M340.1,170.81c-.21,2.95-.34,5.95-.61,8.93,1.23-1.24,2.34-2.53,3.52-3.82l-1.54-.12C343.19,171,341.11,171.66,340.1,170.81Z"/><path class="cls-1" d="M316.18,211.78l-2.26-2.37q.85,3.06,1.67,6.23Z"/><path class="cls-1" d="M311.3,221.35l-2.12-1.73c0,1.07,0,2.18-.06,3.24C309.88,222.39,310.58,221.86,311.3,221.35Z"/><path class="cls-1" d="M46.58,183.41l1.3,2.27A10.06,10.06,0,0,0,46.58,183.41Z"/><path class="cls-1" d="M43.3,165.49l-1.38-.25C42.77,166,43.35,166.23,43.3,165.49Z"/><path class="cls-1" d="M98.16,220.45c0-2.14.54-4.62.63-6.23s-.14-2.48-1.36-1.55l-2,2.42A11,11,0,0,1,98.16,220.45Z"/><path class="cls-1" d="M64.92,46a12.79,12.79,0,0,1,.61,1.15,24.11,24.11,0,0,1,4.13-1.6C68,45.67,66.39,45.8,64.92,46Z"/><path class="cls-1" d="M52,54.61l-.15-.06c-.06,0,0,0,0,0l0,0,.08,0,.15-.07.3-.15a4.85,4.85,0,0,0,.5-.34,2.68,2.68,0,0,0,.67-.78,2.58,2.58,0,0,1-.63.82,2.71,2.71,0,0,1-.5.33l-.31.14-.17.06-.08,0,0,0h0Z"/><path class="cls-1" d="M94.69,266l4.11-.29C95.67,262.78,96,265.14,94.69,266Z"/><path class="cls-1" d="M226.77,282.83a29.42,29.42,0,0,0-4.18-.69c-.62-.05-1.2-.07-1.76-.08s-1.1-.06-1.62-.05a48.94,48.94,0,0,0,4.95,1.86C225.53,284.22,226.5,284.11,226.77,282.83Z"/><path class="cls-1" d="M14.24,182.63c.83,1.62,1.63,2.22,2.25,2C15.58,183,14.9,182.11,14.24,182.63Z"/><path class="cls-1" d="M210.72,282.55c.53.28,1,.42,1.59.65a29.52,29.52,0,0,1,6.9-1.19,11.34,11.34,0,0,0-4.21-.88A7,7,0,0,0,210.72,282.55Z"/><path class="cls-1" d="M362.65,178.39a7.29,7.29,0,0,1,.49-.74C362.76,177.51,362.67,177.86,362.65,178.39Z"/><path class="cls-1" d="M388.44,66.17a35,35,0,0,1,1.2,4.73A12.82,12.82,0,0,0,388.44,66.17Z"/><path class="cls-1" d="M283.31,253.19c1.56-1.57.06-.47,0,0Z"/><path class="cls-1" d="M299.51,253.85a1.86,1.86,0,0,0,.36,1.7A2.39,2.39,0,0,1,299.51,253.85Z"/><path class="cls-1" d="M186,299.44l-.22-.05C186.44,300.08,186.33,300,186,299.44Z"/><path class="cls-1" d="M286.68,251.94a17.92,17.92,0,0,0-2.68,1.28A11.33,11.33,0,0,0,286.68,251.94Z"/><path class="cls-1" d="M285.41,251.22c.64-.43,1.13-.78,1.6-1.12C286.88,249.55,286.48,249.49,285.41,251.22Z"/><path class="cls-1" d="M281.07,255.29a15.65,15.65,0,0,1,2.93-2.07c-.46.13-.71.12-.69,0C282.85,253.64,282.19,254.28,281.07,255.29Z"/><path class="cls-1" d="M246.44,315.56a3.53,3.53,0,0,1,.57.16C249.13,314,248.13,314.42,246.44,315.56Z"/><path class="cls-1" d="M45.63,171.68c.06.11.15.16.22.27v-.42Z"/><path class="cls-1" d="M41.59,162.49c4.42,3.47,4.36,5.8,4.27,9,2.51-1.64,5.13-3.27,7.72-4.84Q47.61,164.76,41.59,162.49Z"/><path class="cls-1" d="M61.74,223.69c-.05-2.15-.16-4.22-.07-6.36a43.6,43.6,0,0,1,4.12,3.23c1.07,1,1.85,1.8,2.45,2.29,1.19,1,1.63.62,2.16-2.54-2.16.86-3.89.08-5.44-1.53s-2.67-4.16-3.91-6.64c-.63-1.24-1.17-2.52-1.75-3.71a18.11,18.11,0,0,0-1.89-3.15,6.58,6.58,0,0,0-2.34-2,4.15,4.15,0,0,0-2.94-.27l.64-4.3c.26,1.08.83,1.08,1.08,2.14,1-4.25-1.09-5-3.54-6s-5.31-2.29-6-7.26c-.1-3.56.69-6.19,2.28-4.16l-2-3.47c-.67-1.16-1.33-2.33-1.91-3.53-.23-2.25,1.45-2,1.67.21l-1.42-5.69c-.23-1-.49-1.9-.71-2.85l-.59-2.89.28.05a43.18,43.18,0,0,1-5.62-6.72c1-3.19,1.12,1.4,2.2.49l-2.89-6.36c2.14-2.89,5,2.33,5.12,6.82,4.22-3.57,3.57-4.78,2.27-6.89a12.16,12.16,0,0,1-1.78-4.17,15.82,15.82,0,0,1,1-7.63l1.53,6A10.39,10.39,0,0,0,47.42,140l.31-1.95c.13-.68.27-1.39.43-2.12a24.36,24.36,0,0,1,1.59-4.73c-.84.81-2.84,4.23-4.93,6.67s-4.14,3.87-5.5.37c.66-2,1-4.66-1-8.49,1.65,0,2.22-1,2.42-2.5a44.63,44.63,0,0,0-.08-6l4.36.4c-1.17-5.07-3.34-4.74-5.21-7.83.67-5.68,4.19-6.63,7.08-7.74.66-4.41-.77-3-2.44-1.77-.82.61-1.67,1.18-2.34.92s-1.13-1.35-1.1-4c2.3-7.37,1.1-12.69,0-22,2.35-4.92,2.47,1.35,4-.3-.89-1.7-1.72-3.41-2.58-5.16.29-1.1,1.27-.53,1.76-.25-.3-2-1.32-2.33-2.3-2.9a3.1,3.1,0,0,1-1.29-1.32,4.91,4.91,0,0,1-.39-1.3c-.09-.51-.11-1.28-.15-1.78-2.19-1.1.07-3.18,2.22-4.57A9.27,9.27,0,0,0,45,59.27c.59-.92.7-2.15.1-4.63.66.1,1.08,1,1.55,1.9a10.91,10.91,0,0,0,1.63,2.71,34.65,34.65,0,0,1-.32-4.84v-.47c0-.15,0-.33-.1-.39l-.46-.48a8,8,0,0,1-.68-.86,4.76,4.76,0,0,1-.81-1.83,2.8,2.8,0,0,1,.26-1.87l0-.08s0,0,0,0l.24,0,.93.09,1.9.18,2.13,1.09,1.1.56.57.28.28.14c.08,0,0,0,.06.07a3.38,3.38,0,0,1,.28.85,2.15,2.15,0,0,1-.17,1.45,10.45,10.45,0,0,0,.55-2.51,4.26,4.26,0,0,1,1.14-2.41,6.85,6.85,0,0,1,3.35-1.66c.39-.1.81-.19,1.25-.26a5.82,5.82,0,0,1,1.66-.11c.71,0,1.36,0,2,0l.83,0,.63-.11c-.28-.51-.7-1.06-.89-1.5a2.6,2.6,0,0,1-.28-1.17,7.15,7.15,0,0,0-1.34-2l1.77.28.9.15.23,0c.06,0,0,0,.08,0l.09,0a.89.89,0,0,0,.27-.22l0-.06s0,0,.06,0l.22,0,.87.14c2.36.37,4.89.81,7.58,1.3,1.15,1.13-1.84,1.72-4.86,2.63l2.87-.15c1.39,1.32.62,2.15-.84,2.86s-3.58,1.31-5.28,2a8.63,8.63,0,0,0-.88-3.13,10.78,10.78,0,0,0-2.14,1.43c-1.24.31-2.67.56-4.09.82l-2.09.39-.5.1-.24.19L56,50.5a21.61,21.61,0,0,0-1.6,1.55c-.39-.4,2,.15,3.74.52.94.21,1.94.45,3,.7l.71.17.07,0,.15-.06a5.41,5.41,0,0,0-.49.9s0,.07-.06.1a.76.76,0,0,0-.16.06.42.42,0,0,0-.19.15.23.23,0,0,0,0,.2.42.42,0,0,0,.08.12s.11.1.08.12c-.11.45.16-.48,1.15-1.32a14.6,14.6,0,0,1-3.3,4c.46-.53,1-1,1.47-1.54a3.68,3.68,0,0,1-.91.44c-.18.07-.38.12-.59.18l-.33.07-.18,0a.21.21,0,0,0-.19.11q-1.8,2.13-3.43,3.85a10.93,10.93,0,0,1,5.77,7,20,20,0,0,1,.72,3.36l.1,1a7.74,7.74,0,0,1,.07,1c0,.79,0,1.59,0,2.41a73.59,73.59,0,0,1-1.1,10.49c-2.24-4.69-5.29-2.57-9.26-4,2.77-1.41,3.31-4.42,3.65-8.08l.28-2.82.07-.73c0-.25,0-.24,0-.43s0-.57,0-.85A5.42,5.42,0,0,1,56,66.11a2.32,2.32,0,0,1-3.69.62c.15.52.29,1.09.41,1.7l.18.95c0,.07.07.05,0,.21l0,.48-.09,1c-.25,2.53-.41,5.1-.58,7.63-3.18-1.44-3.47,2.16-6,5.53,3.69-.44,4,2.58,3.47,6.45-.2,2-.66,4.13-.93,6.25a22.59,22.59,0,0,0-.2,5.71c-2.31,0-4.45-2-2.18-9.19a6,6,0,0,0-2.14,5A11.56,11.56,0,0,0,46,103a16.12,16.12,0,0,1,1.95,4.49,6,6,0,0,1-1.19,5c.16-1.81.63-2.72-.43-3.59a11.74,11.74,0,0,1,.39,4.11,27.25,27.25,0,0,1-.55,4.53c-.66,2.77-1.53,4.77-2.52,3.48,0-.61,0-1.23,0-1.85a71.29,71.29,0,0,0-.4,11c.08,2,.13,4,.36,6.06s.52,4,.84,6a44.48,44.48,0,0,0,1.27,5.42A34.84,34.84,0,0,0,47.33,152c1.21,2.55,2.63,4.18,4.12,4.39A32.67,32.67,0,0,1,43,155.34c3.74,3.09,7.43,6,11.33,8.76,1.92,1.37,3.81,2.7,5.75,4s3.93,2.52,5.89,3.71c-2.62-.26-6.44,1.93-10.19,3.19s-7.46,1.53-10-3a23.16,23.16,0,0,0,.36,5.09,19.66,19.66,0,0,0,2.9,6.92c.15-2.11,5.66-6.5,6.8-4.13-1.72,4.14-2.1,5.59-2.29,7.16a83.87,83.87,0,0,1-1,8.36c.05-1.57,2.18-2.19,4.44-1.9s4.7,1.42,5.35,3.54c-1.34-.25-7.09,3.06-8.44,1.75,1.87,1.37,3.73,2.69,5.58,4s3.83,2.5,5.73,3.7c-2.36-2-6.19,2.06-7.15,5.35.23-.43.57-.06,1,.76A37.29,37.29,0,0,1,60.75,216c.6,1.4,1.23,2.93,1.84,4.26a16.1,16.1,0,0,0,1.83,3c-.23-1.73-.51-3.41-.65-5.15a13.52,13.52,0,0,0,4.58,6.24A18.66,18.66,0,0,0,74.11,227,28.44,28.44,0,0,1,80,229.35a14,14,0,0,1,5.29,5.21,9.54,9.54,0,0,0-5.54,1.74,5.68,5.68,0,0,0-2.19,2.62,4.62,4.62,0,0,0,.37,3.86l5.84.14c2.52.07,5.44.21,8.57.4a71.4,71.4,0,0,1,9.23,1.16,24.51,24.51,0,0,1,8,2.79l-.29,2.93,3.61,1.92c1.18.64,2.46,1.17,3.67,1.75a69.18,69.18,0,0,1-17.17-.44c-1.69-.25-3.41-.54-5.11-.87s-3.4-.67-5-1.12A67.27,67.27,0,0,1,81,248.7c1.6,5-1.27,2.69,3.51,8.41,0,3.42-5-1.18-6.51-2.88,3.24,4.94,6.73,9.76,10.49,14.41,1.4-1.85,4.58-.19,7.64,1.47s6.26,3.14,7.31,1.5c-2.78-1.55-5.66-3.06-8.35-4.81l-4.13-2.59c-1.37-.87-2.67-1.83-4-2.75.73-.9,2.17-1.36,4-1.43a16.67,16.67,0,0,1,3,.18,30.52,30.52,0,0,1,3.46.68,32.38,32.38,0,0,1,14.14,8c.52,1.65-1.21,2.85-3.23,3.76s-4.31,1.54-4.72,2.19c1.13-.06,3.83,1.25,6.25,2.76.61.37,1.19.77,1.74,1.14s1.09.72,1.53,1.06c.89.67,1.47,1.28,1.53,1.67-1.86-.41-3.78-.79-5.63-1.28,2.14,2.84,5.37,3.32,8.39,4.15a15.14,15.14,0,0,1,4.51,1.66,9.27,9.27,0,0,1,2,1.65,16.37,16.37,0,0,1,1.84,2.5c1.12.86,2.16,3.22,3.2,5.13s2.1,3.27,3,2.22c-.84-3.39.73-8.77,3-13.43s5.31-8.73,7.4-9.75c.27.38,2.47,2.94,4.87,6,1.22,1.48,2.54,3,3.63,4.37a25.05,25.05,0,0,1,2.42,3.54c1.18,2.66-1.22,4.38-3.78,5.85s-5.24,2.72-4.17,5.16c.67-1.07,3.58-1.4,4.75-1.52,2.3,2.07-2.63,3.14,3.56,5a2.76,2.76,0,0,1,2.86-1,11.55,11.55,0,0,1,3.17.93c1.74.72,2.09,1-1.86-2.56a13.3,13.3,0,0,1,6.14,2,22.82,22.82,0,0,0,6.8,2.69c-.37-.87,0-1.82.84-2.76a15.88,15.88,0,0,1,3.66-2.73,28.13,28.13,0,0,1,4.92-2.25,21.45,21.45,0,0,1,2.5-.7,16.47,16.47,0,0,1,2.32-.41c-.52,1.12.51,2.83,1,3.62,1.47.26,2.85.54,4.16.84l3.8.69c2.42.45,4.67,1,6.92,1.34s4.49.73,6.88,1,4.92.21,7.75.13c1.08,1,6.75,1.92,4.56,4.12,1.61-1,3-2.58,6.46-3.25,3.69,1.49,1.77,1.93-.4,2.5s-4.57,1.16-1.61,3.3c.07-1.38,2.3-2.64,5.06-3.85.69-.3,1.42-.61,2.15-.9l2.19-1c1.45-.68,2.84-1.36,4-2-1.23-1.89-4.05-1.48-7.22-.35a42.81,42.81,0,0,0-4.87,1.93l-2.31,1.07-2,.87a7.49,7.49,0,0,1,1.08-4.41,20.6,20.6,0,0,1,3.61-4.6,49.8,49.8,0,0,1,5.5-4.45c2.07-1.5,4.4-2.76,6.83-4.17a9.32,9.32,0,0,1,4.09-1.11,1.32,1.32,0,0,1,1.35.89c.34.95-.17,2.26.44,1.62a28.91,28.91,0,0,0,5.07-1.8,14.18,14.18,0,0,0,3.41-2.3,18.17,18.17,0,0,0,3.88-4.88,12.77,12.77,0,0,1,10.27-7.1c3.14.24,4.16,1.75,4.62,3.46s.38,3.58,1.57,4.4a13.63,13.63,0,0,1-4.25,2.62,22.43,22.43,0,0,1-4,1.16c-2.63.4-5,.51-7.21,1.6l6.28-1a15.87,15.87,0,0,1-3.86,3.31,10.42,10.42,0,0,1-2.5,1.2,7.53,7.53,0,0,1-2.39.45c1.39.32,3.86-.05,6.84-1.21,1.5-.56,3.18-1.18,4.91-2l5.41-2.72c1.86-1,3.72-2.15,5.62-3.22l1.43-.81,1.38-.88,2.76-1.7c1.87-1.07,3.61-2.23,5.32-3.25s3.41-1.9,4.92-2.73c1.08-2.52,3.35-6.11.9-6l-2.87,3.1c-2.41.1-1.54-2-.75-3.73s1.57-3.23-.83-2.1c1.44-2.48,2.54-5.5,4.19-8.2a29.36,29.36,0,0,1,2.78-4,17.5,17.5,0,0,1,1.81-1.85,25.27,25.27,0,0,1,2.11-1.77l4.07,1.7c-.52-.34-1.81.19-3,1.1s-2.44,2.12-2.71,3.34a4.32,4.32,0,0,1,2.24-2.3c1.13-.72,2.54-1.45,3.89-2.25,2.73-1.58,5-3.73,3.94-6.78-1.89.79-3.69,1.61-5.57,2.31a43.73,43.73,0,0,0,1.16-4.46c.35-1.59.77-3.15,1.17-4.77a18.73,18.73,0,0,1,4.31-8.58c-2.53.1-2.62.46-2.91,1s-.76,1.13-4,1.53c1.79.09,2.09.92,1.66,2.14a17,17,0,0,1-2.76,4.28c-2.34,2.92-4.5,5.67-.09,5.19a13,13,0,0,0-4.31.74,12.23,12.23,0,0,0-2.89,1.68,16.57,16.57,0,0,1-3,1.88,14,14,0,0,1-4.44,1.23c.55.42,1.37.51,1.55.9.1.2,0,.47-.33.9A13.4,13.4,0,0,1,287,250.1a5.84,5.84,0,0,1,0,1.67l-.33.17c.11,0,.21-.05.32-.08,0,.31,0,.35.12,0a6.13,6.13,0,0,1,3.41-.32,6.77,6.77,0,0,1-.86,3.33,19.52,19.52,0,0,1-2.29,3.54c-1.82,2.27-3.76,4.5-4.47,6-3,1.44.1-2.07-2.2-2.16l-2,4.6c-1.07-1.1-3.57-1-5.11-1.26s-2.15-1.05.32-3.8c-1.83,1.15-3.61,2.4-5.47,3.49a24,24,0,0,0-6.29,1.77,12.86,12.86,0,0,0-4.9,3.23c-3,.62-5.58,6.3-4.13,3-.69.51-1.42,1-2.15,1.41L248.79,276c-.73.45-1.46.93-2.21,1.37l-2.28,1.24-.33-.7a34.72,34.72,0,0,0-3.58,1.27c-1.21.42-2.41.91-3.62,1.42a75.88,75.88,0,0,1-7.54,2.87,25.64,25.64,0,0,1-4,1,30.37,30.37,0,0,1-4.18.47,26.6,26.6,0,0,1-4.32-.4c-.73-.13-1.46-.29-2.19-.49a17.53,17.53,0,0,1-2.21-.84,38.64,38.64,0,0,1-5.46,1.17,26.92,26.92,0,0,1-7.26-.41l-.94-2.74a13.21,13.21,0,0,1-3.87-.32c-.71-.15-1.45-.3-2.18-.51l-2.15-.67a19.6,19.6,0,0,0-3.88-.87,3.15,3.15,0,0,0-2.62.56,8.15,8.15,0,0,0-4.47-4.27,18.85,18.85,0,0,0-3.36-1.35c-1.21-.39-2.53-.61-3.83-1-2.6-.72-5.42-1.16-7.89-2-1.25-.37-2.44-.75-3.52-1.15a14.63,14.63,0,0,1-2.77-1.49l-1.7,3c-1.17-.61-2.37-1.1-3.58-1.61s-2.43-1-3.74-1.51c-2.64-.87-5.37-2-8.61-3.1l-1.29,2.79a10.47,10.47,0,0,1-4.55-2.19,28.5,28.5,0,0,1-2.21-1.87c-.71-.73-1.41-1.5-2.13-2.31l-2.17-2.46c-.75-.82-1.43-1.75-2.18-2.6a57.47,57.47,0,0,0-4.82-4.93,2,2,0,0,1,1.93.74,8.8,8.8,0,0,1,1.62,2.23,18.94,18.94,0,0,0-1.92-4.09A15.09,15.09,0,0,0,120,247.1a35,35,0,0,0-3.31-2.69c-1.17-.85-2.46-1.58-3.67-2.41-4.86-3.23-9.9-6.63-10.8-12.26a6.55,6.55,0,0,1-3.47-5,1.4,1.4,0,0,0,.47.44,6.63,6.63,0,0,0-.53-.89c-.17-1.23-.28-2.52-.53-3.81a11.6,11.6,0,0,0,.22,3.35,55,55,0,0,0-5.17-6l2.21-2.72c-.15-.18-.24-.35-.41-.53-.37-3-2.52-1.2-3.89,1.34a19.05,19.05,0,0,0-3.61-2.45c1.78-2.31.49-3.77-.82-5.4s-2.49-3.47-.61-6.09c-1.73-.28-3.6-3.48-5.87-6.52s-4.61-6.06-7.65-5.86c.67-.35.7-1.31,1.32.21a41,41,0,0,0-.93-5,10.05,10.05,0,0,0-2.41-4.23L74.16,178l-3.69-2.75-1.85-1.41-1.79-1.47c1.44-5,2.48-7,6.61-3.52a37.29,37.29,0,0,1-3.68-5.24,34.89,34.89,0,0,1-1.57-3.2,29.54,29.54,0,0,0-1.5-2.95,46,46,0,0,0-3.15-4.72l2.74.07a10.46,10.46,0,0,0-1-2.61L64,147.4c-.84-1.88-1.38-3.66-.37-4.74,1.16-1.93,1.61-5.12,1.8-9.1.15-2,.22-4.2.24-6.54,0-1.18.11-2.29.15-3.49s.06-2.4.21-3.63a84.38,84.38,0,0,1,2.46-15.27,51.13,51.13,0,0,1,5.76-13.81c-4.34.52-2.83-1.26-1-3.46s4.22-4.72,1.47-6.13c2.15-.38,4-2.38,4.53,1,.09-.59.21-1.15.34-1.69l.1-.4,0-.19c0-.07,0-.11.08-.26l.46-1.34c.61-1.65,1.26-3.17,1.92-4.63,1.28-2.9,2.74-5.5,4-8a43.19,43.19,0,0,0,3-7.22,12,12,0,0,0,.37-6.54c1.52-1.12,2-.62,2.42,0s.6,1.36,1.61.42A15,15,0,0,1,94,49.57a6.76,6.76,0,0,1,1.85-3.44c2.12-2.06,1,1.54,1,3.81,2.44-5.87,3.09-9.46,2.48-11.24l-.3,0-.46,0-.92-.07c-.61,0-1.2-.08-1.76-.1-1.13,0-2.18,0-3.15,0a27,27,0,0,0-5.13.7,30.36,30.36,0,0,0-7.39,2.93,26.27,26.27,0,0,0-9.42-4.86,18.53,18.53,0,0,0-2.38-.47l-.59-.07-.3,0s.08.08.12.12a5.73,5.73,0,0,1,.56.54,2.83,2.83,0,0,1,.67,1.16c.15.14-.27.1-.49.12l-.76,0c-.52,0-1,.08-1.55.15-.72-1.18-2.23-2.65-2.18-3.44,0-.39.49-.61,1.73-.5a22,22,0,0,1,2.51.42c.53.12,1.13.26,1.78.43l1,.27.55.15L71,36l.3.09.16,0h0l-.1,0-.84-.32-2.1-.82-5.59-2.15-7-2.6L52.07,28.8l-1.9-.67.72.22,1.52.5.18.07.09,0-.19,0-.89-.24-1.75-.44c-2.29-.56-4.39-1-6.13-1.31-3.52-.58-5.54-.47-5.28.69A9.54,9.54,0,0,0,36,26.4c-.91-.23-2.45-1.13-2.41.15a21.36,21.36,0,0,0-1.13,4.24c-1.06,2.31-1.88,4.08-2.56,5.59s-1.24,2.78-1.78,4.06a43.27,43.27,0,0,0-1.59,4.22c-.52,1.65-1.19,3.54-1.8,6.15.49-.8.93-1.61,1.45-2.34,1.63,3.52,1.45,5.43.49,7.7-.44,1.13-1,2.36-1.61,3.82-.29.73-.57,1.51-.82,2.36a14.61,14.61,0,0,0-.47,2.37l-.49-.29a34,34,0,0,0-2.85,7.17,8.65,8.65,0,0,0-.23,3.16,8.36,8.36,0,0,1-.27,3.11,25.41,25.41,0,0,1-.94,2.8c-.43,1.17-1,2.58-1.79,4.36l3.34-.37a2.49,2.49,0,0,1,2,3,17.68,17.68,0,0,1-2,5.1,45.39,45.39,0,0,0-2.88,6.43,16.26,16.26,0,0,0-.79,3.42A9.85,9.85,0,0,0,17,106l2-2.94c1.07,2.39-1.55,5.44-4.49,8.6S8.28,118,7.83,120.38c-.62,1-1-1.66-1.36-3.14-4.37,12.49,4.23,1.73,5.12,11C9.31,130,5.67,126,5.36,132.37c-.45.8-.19,2.36.4,4.37.3,1,.65,2.12,1.09,3.31l1.39,3.75a47.63,47.63,0,0,1,2.22,8,13.77,13.77,0,0,1-.39,7.52c1.58-2.11,3.17-4.12,4.93,0a13.3,13.3,0,0,1,.18,2.67A30.13,30.13,0,0,1,15,165.1c-.21,2.13-.58,4.44-.79,6.72-.34,4.54.1,9,3.38,11.38-.29.93-.67,1.34-1.1,1.46,1.31,2.35,2.76,6.28,4.5,9.85s3.74,6.75,5.6,7.77c-4.67,3.82-1,11.18,3.08,17.43L31.14,222l1.45,2.19a25.06,25.06,0,0,1,2.16,3.93,5.32,5.32,0,0,1,.46,3.17,3.15,3.15,0,0,1-2,2.19l3.76,7c1.28,2.32,2.7,4.57,4,6.85l-1.12.16c.54,1.16,1.07,2.21,1.62,3.15s1.15,1.74,1.71,2.47a21.34,21.34,0,0,0,3.25,3.47,13.87,13.87,0,0,0,1.55,1.16,16.48,16.48,0,0,0,1.58.86c1,.5,2.07.87,3.09,1.24.74,2.31-1,1.48-1.58,1.63.84,1.67,1.6,3.15,2.3,4.48s1.48,2.42,2.15,3.44a27.35,27.35,0,0,0,4,4.9,27.56,27.56,0,0,0,4.93,3.48c1,.56,2,1.15,3.24,1.72s2.6,1.16,4.13,1.82l-1.55,3.27a3.86,3.86,0,0,1,1.57,1.14c.58.62,1.23,1.44,2,2.38,1.52,1.87,3.29,4.44,5.49,7.12,4.44,5.25,10.51,11.22,17.8,13.64a2.57,2.57,0,0,1-2.21.34,30.38,30.38,0,0,1,5.83,3,62.7,62.7,0,0,1,5.67,3.83c.93.69,1.84,1.43,2.76,2.14l2.8,2.08c1.86,1.38,3.67,2.82,5.49,4.07s3.65,2.32,5.4,3.24c.87.46,1.74.88,2.58,1.23a18.61,18.61,0,0,0,2.54.75c3.3.73,6.27.31,8.71-2,3.77.18,7.45.43,11.12.48-6.4-2.54-5.44-3.7-3.57-4.6s4.67-1.69,2.4-3.52a15.67,15.67,0,0,1,7.09,3.83c1.56,1.57,1.71,2.93-1.52,2.36l-.81-.87c-1,1.38-.56,2.49.71,3.45a11.86,11.86,0,0,0,2.4,1.33c.47.21,1,.41,1.49.61s1.06.33,1.6.5c4.34,1.28,9,2.42,8.43,4.46a364.19,364.19,0,0,0,40.06,5.31c13.2.88,26.46.8,39.31-1.27-1.26-1.47-2.51-2.95-3.73-4.43l4.4-.59c1.46-.19,2.93-.38,4.38-.67,1.26.32,2.23,1.1,2.1,1.95a2,2,0,0,1-1.14,1.28,9.37,9.37,0,0,1-3.43,1,3.53,3.53,0,0,0,1.55.46,4.93,4.93,0,0,0,1.67-.26,11.22,11.22,0,0,0,3.29-1.81c2-1.55,3.49-3.48,3.45-4,6.27-.59,5.51,1.07,3.55,2.89s-5.14,3.45-3.2,3.12c1.71-.47,3.4-1.11,5.08-1.69l-1.31-.24c1.83-1.56,2.67-2.88,4-4a10.84,10.84,0,0,1,2.53-1.62,23.1,23.1,0,0,1,4.28-1.66c5-.6,3.39,2.11,5.3,1.68.06.17.25.24.7.13a11.32,11.32,0,0,0,2.16-1.06c3.64-1.28,7.31-2.5,10.87-4.06-2-.56-3.87-1.1-5.77-1.72,3.83-3.84,9.75-4.23,3.18-6.11a10.83,10.83,0,0,0,4.5.23,30.75,30.75,0,0,0,5.76-1.61q1.56-.58,3.21-1.29c1.08-.49,2.16-1.08,3.26-1.66s2.21-1.22,3.32-1.85l1.66-1c.54-.34,1.07-.71,1.6-1.06,2.13-1.44,4.21-2.89,6.17-4.28l5.28-4.13c1.63-1.21,3-2.35,4.12-3.21a10.61,10.61,0,0,1,2.68-1.61c.44-.85.9-1.66,1.38-2.44s.95-1.58,1.46-2.33a40.71,40.71,0,0,1,3.33-4.32l.93-1c.3-.35.6-.71.91-1.06.62-.72,1.27-1.42,1.94-2.14l2.07-2.15,1.09-1.1,1.06-1.17c-2,1.1-6.06-.93-1.09-6,1.35,1.95,2.73,2.47,4.22,2.09a7.17,7.17,0,0,0,2.3-1.15,23.94,23.94,0,0,0,2.35-2.1c1.58-1.6,3.36-3.43,5.15-5a12.15,12.15,0,0,1,6-3.28c-1.67.54-1.81-.35-1.26-1.91s1.66-3.87,2.73-6.1c.52-1.12,1-2.22,1.38-3.21a8.85,8.85,0,0,0,.56-2.59c0-1.38-.8-1.88-3.13-.8,3.5-5,3.17,1.32,7.28-1.83.23-.93.51-1.84.81-2.75s.57-1.84.9-2.76a57.89,57.89,0,0,1,2.29-5.45c.82-1.84,1.66-3.7,2.59-5.56l1.44-2.81c.49-.94.91-1.91,1.38-2.88l2.83-5.89c.89-2,1.72-4.07,2.54-6.16.4-1,.8-2.09,1.18-3.15s.67-2.15,1-3.24c.61-2.18,1.16-4.39,1.56-6.63-.54-.27-1.44.22-2.31.25s-1.66-.38-2.14-2.45c2.59-2.61,5.28-5.3,7.84-8.08,0-3.69-6.23-4.42-1.08-10.15-1.12.76-2.83,1.86-2.87-.53,5.4-16.83,5.06-35.2,3.81-52.66-.56-8.82-1.25-17.62-1.55-26.49a187.63,187.63,0,0,1,.9-27.17c-1.37,5.2-2.21,2-3-1.55-.09,2.46-2.92.51-4.42,1.29.56-5.1.91-10.26,1.15-15.52a5.33,5.33,0,0,1-2.92-3.07,47.31,47.31,0,0,1-1.93-5.29,27.06,27.06,0,0,0-2-5.07c-.75-1.37-1.68-2.27-2.84-2.27.85,1.43,1.56,2.85,2.33,4.29-3.44-2.21-5.36.89-7.36,4.41s-4.19,7.56-7.47,8c3.65,2.31,2.69,7.06,1.9,12.1-.19,1.26-.35,2.54-.43,3.83a17.08,17.08,0,0,0,.12,3.85,12.24,12.24,0,0,0,4,7.33c-.93,2.52-2.41-1.64-3.7-.16A7.92,7.92,0,0,1,369.3,89a13.47,13.47,0,0,1,.59,3.16,27.48,27.48,0,0,1-.08,4.1l-.77-.59a88.72,88.72,0,0,1,1.14,11.2c.06,3.38,0,6.49-.24,9.68s-.53,6.42-.95,10.06-.85,7.66-1.25,12.4l3.21-1.42c-.41,4.1-1.51,4.91-2.33,6.79,2.41,2.37,2.53-.47,2.71-3.37s.29-5.94,3-3.78c-1.6,1.39-2.48,3.86-3,6.85-.25,1.49-.39,3.12-.5,4.81s-.29,3.42-.42,5.14-.23,3.45-.49,5.06a34.3,34.3,0,0,1-.95,4.47,12,12,0,0,1-1.53,3.44,5,5,0,0,1-2.46,1.89c-.85,6.06,3.94-1.33,3.09,4.78L365.93,175c.78.64,1.6,1.29,2.35,1.93-1.12,4-3.95,5.5-5.66,5.33.37-.92,0-2.79,0-3.83-1.63,2.34-2,5.93-2.31,9.1s-.26,6.06-.9,6.8c.93-1.75,1.66-3.57,2.5-5.38a84.68,84.68,0,0,1-2.38,12.77l-1.93,6.47c-.31,1.1-.68,2.17-1.07,3.23l-1.13,3.21c-3.06,8.54-6.35,16.8-8.45,24.75l1.91-.35a23.62,23.62,0,0,1-2.63,6.51,15.42,15.42,0,0,1-2.71,3.39,33.55,33.55,0,0,0-3.21,3.27c-.6.71-1.2,1.57-1.92,2.58s-1.53,2.18-2.4,3.63v-.61a14.12,14.12,0,0,1-1.47,4.7,21.56,21.56,0,0,1-3.12,4.4c.41-1.89-1.28-1.21-2.87-.69s-3.21.8-2.47-1.43c-1.63,2.85-2.63,4.7-3.22,6a7.85,7.85,0,0,0-.89,2.71,24.31,24.31,0,0,1-.89,7.8l-3.25-.54a24.32,24.32,0,0,1-1,4.41,10.06,10.06,0,0,1-1.33,2.27,32.47,32.47,0,0,1-2.88,3c1.6-2.6.11-2.67-1.33-2.89s-2.82-.6-1.28-3.59a23.61,23.61,0,0,0-4.69,1.88A26.53,26.53,0,0,0,301.7,288a26,26,0,0,0-2.82,2.53L296.45,293a15.74,15.74,0,0,1-4.53,3.64,7,7,0,0,1-5.81-.36c-1.22,4.61,1.85,4.08,5,2.72.79-.34,1.59-.71,2.3-1.09l1.83-1.07c1-.57,1.46-.75.87.05,1.9.19,1.42,2-.12,4a16.29,16.29,0,0,1-6.49,4.77,5.52,5.52,0,0,1-3.69.16c-1.4-.28-3-.79-4.68-1.21a24.34,24.34,0,0,0-2.7-.53,23.78,23.78,0,0,0-3-.29,19,19,0,0,0-7,1.31c1.07-.31,1-.85,2-1.23a7.51,7.51,0,0,0-3.07.65,28.4,28.4,0,0,0-2.82,1.57,14,14,0,0,1-3.08,1.43,7.89,7.89,0,0,1-3.83,0c-.82,2.42-2.48,2.81-3.83,3.27s-2.46.88-2.27,3.61l2.52-.87,2.46-1,4.9-2a22.1,22.1,0,0,0-3.85,2.87,39.16,39.16,0,0,1-4.13,3.4c-3.05,2-6.8,3.85-12.07,3.08a8.09,8.09,0,0,1,2.1-2.15c1-.76,2.11-1.5,3-2.13a6.42,6.42,0,0,0-4.23.49,6.11,6.11,0,0,1-4.32.41c0-2.75,3.1-3.55,6.86-4.33,1.86-.48,3.9-.95,5.79-1.64a14.55,14.55,0,0,0,2.68-1.23,9.62,9.62,0,0,0,2.17-1.83,4.1,4.1,0,0,0-3,.37c-1.13.42-2.29,1.06-3.3,1.55-2,1-3.38,1.37-2.46-1.83a5.86,5.86,0,0,1-3,3.79,11.89,11.89,0,0,1-4.4.68c-.8,0-1.62,0-2.46.08s-1.69.16-2.56.31a10.35,10.35,0,0,0-5.27,2.72l.16-3.28c-.57.32-1.44.94-2.45,1.5a7.86,7.86,0,0,1-3.3,1c1.24-1.5,2.47-2.93,3.64-4.51a7,7,0,0,1-4.42,1.41,17.31,17.31,0,0,1-4.48-.72c-1.48-.36-3-.89-4.42-1.16a8.28,8.28,0,0,0-4.38.23c6.14-.19,6.88.77,6.74,2.06s-1.19,2.94,1.52,4c-3.84,1.26-6.39,1.26-8.24.76a9,9,0,0,1-4.24-2.92,15.14,15.14,0,0,0-4.43-3.57,13.83,13.83,0,0,0-3.62-1.11,23.66,23.66,0,0,0-5.26-.41,8.82,8.82,0,0,1,4.59,1.32,2.69,2.69,0,0,1,1.29,1.31c.11.42-.19.87-1.11,1.17-3.2-.93-7.37-2.38-9.12-4.32-5.5-.33-5.21.55-4.11,1.69s3,2.53.51,3.23c-1.68-2.19-3.08-1.95-4.75-1.09s-3.57,2.18-6.17,2.38l.54-3.25c-3.09-1-4.86-1.29-6-1a3.62,3.62,0,0,0-2.27,1.72,3.38,3.38,0,0,1-2.05,1.69,4.82,4.82,0,0,1-2.06-.1,14.82,14.82,0,0,1-3.28-1.37c2-1,4-2,5.9-3.19-2.06,0-4.07-.25-6.12-.38l2.18-3.28c-7,1-8.77-.46-14.35-3.5.57,2.72-2.83,5.29-8.3,3.25-2.85-3.35,3.19-1.95-4.35-4.87a10.52,10.52,0,0,1,3.85-1.22,2.91,2.91,0,0,1,1.8.6,5.32,5.32,0,0,1,1.67,2.07c.74-.86,2.42-1.26,3.14-2.12-1.47-1.8-3.79-2.78-6-3.69s-4.46-1.35-5.72-2a8.45,8.45,0,0,1,2.44,2c-1-.06-2.07-.08-3.08-.17l-3.06-.33c-2-.23-4.15-.4-6.2-.73-1-2,.79-2.11,2.48-2.26-2.17-.86-4.31-.39-7.44-1.92,2.17-1.81,3.48-4.26,8.13-2.95l-5.33-1.44c-1.79-.49-3.5-1.14-5.28-1.71a14.51,14.51,0,0,0-1.14-3.36c-.47-1.24-.65-2.39.17-2.37a10.13,10.13,0,0,0-3.9-2.8c-.8-.37-1.7-.68-2.57-1.05l-2.73-1.13c-.93-.38-1.88-.78-2.82-1.21l-1.38-.68c-.45-.26-.87-.54-1.29-.82a14.52,14.52,0,0,1-4.26-4.22c-.68.1-1.58-.16-3-1.11-1.18-1.46-2.21-3-3.21-4.51S86,257.4,85,255.88c-.51-.77-1.07-1.51-1.65-2.25a21.16,21.16,0,0,0-4.12-4.31c-.85-.66-1.79-1.3-2.78-2q.51-3.48,1.1-6.83c-1.21-1.22-1.86-1.32-2.33-.86A7.39,7.39,0,0,0,74.14,242c-.35.91-.79,1.72-1.65,1.76a3,3,0,0,1-1.67-.61,13.57,13.57,0,0,1-2.44-2.37c-5.73-6.36,1.81-4.74,1.51-7.91a35.91,35.91,0,0,1-7.49-5.15,15.58,15.58,0,0,1-3-4.35,12.7,12.7,0,0,1-.9-2.67,14,14,0,0,1-.16-3.07,10.7,10.7,0,0,1,1.86,3A21,21,0,0,0,61.74,223.69ZM39.27,138.36c.79,1.74,3.12,5.06,1.26,6.45C36.65,143.06,38.36,141.37,39.27,138.36ZM65.81,55.05c-.5-.18-.45-.64,0-1.37.09-.13.07-.14.06-.17a.17.17,0,0,1,0-.1,1,1,0,0,1,.06-.26l.24-.76a2.93,2.93,0,0,1,.82.14,1.64,1.64,0,0,1,.33.14l.13.09s.13,0,0,.18A16.91,16.91,0,0,1,65.81,55.05ZM265.13,269.5a.88.88,0,0,0-.07.23,20.91,20.91,0,0,1-2.34.36C262.9,270,263.89,269.88,265.13,269.5Zm7.22-2.79c.38-.82.08-1.16-.44-1.36,0,1-1.35,2-3.17,2.8C269.64,268.58,270.87,268.65,272.35,266.71Zm6.43,62.77c-.65,0-1.33-.14-2-.22,1.77-1.06,2.41-1.42,2.57-1.23S279.14,328.83,278.78,329.48Z"/><path class="cls-1" d="M54.5,54a5.36,5.36,0,0,1-.86-.73l-.13-.16L53.45,53s0,0,0-.05l.18-.17.74-.72a5.69,5.69,0,0,0-.7.69l-.36.36-.21.17,0,0s0,0,0,0l.09,0,.4.19Z"/><path class="cls-1" d="M93.92,266c0,.08.12.13.17.21a1.72,1.72,0,0,0,.6-.25Z"/><path class="cls-1" d="M148,302.22a7.55,7.55,0,0,1-2.72-3.05c-.22.34-.19.76.21,1.28A7,7,0,0,0,148,302.22Z"/><path class="cls-1" d="M298,235.63l-1.15,2.16-1.26,2.08a6.59,6.59,0,0,1,1.92-1.78c.58-.37,1.13-.57,1.7-.87C298.52,236.82,297.09,236.84,298,235.63Z"/><path class="cls-1" d="M338,207.33c-.06-.9.62-1.59.54-2.48l-1.5-.37C335.82,207.64,336,210.34,338,207.33Z"/><path class="cls-1" d="M309.47,238.7c2.45,1.33,3.65-1.92,5.33-5.2a2.46,2.46,0,0,1-.37.54C311.85,231,310.69,234.8,309.47,238.7Z"/><path class="cls-1" d="M315.18,232.73a15.08,15.08,0,0,1,1.78-2.88C315.89,228.66,316,230.82,315.18,232.73Z"/><path class="cls-1" d="M279.12,259.59c1.73-.42-1.38-3.38,0-3-.41-1.91-1.79.51-2.45,2.6S276.16,263,279.12,259.59Z"/><path class="cls-1" d="M318.58,241.64l-3.56-.9c.33,1.11.67,2.24,1,3.37Z"/><path class="cls-1" d="M296.85,262.57c1.66-1.17,3.42-2.25,5-3.53-.47-.34-.18-1.13.29-2-.66.65-1.37,1.29-2,1.89s-1.36,1.12-1.9,1.61C297.11,261.52,296.45,262.25,296.85,262.57Z"/><path class="cls-1" d="M302.16,257.06c1.38-1.36,2.65-2.7,2.93-3.91A30.93,30.93,0,0,0,302.16,257.06Z"/><path class="cls-1" d="M314.3,249l-1.69,1c-1,1.09-2,2.09-3,3.14l2.4-2C312.79,250.4,313.52,249.67,314.3,249Z"/><path class="cls-1" d="M240.6,293.15l-3.06,1.31-3.11,1.15c-.43,1.27,1.51,1.64,3.83.64C239.62,295,241.86,294,240.6,293.15Z"/><path class="cls-1" d="M263,295.22c-2,.16-2.43-.54-3.84-1.19l1.41,4,1.24-1.37C262.25,296.19,262.64,295.7,263,295.22Z"/><path class="cls-1" d="M244,303c-.19.65-2.47,2.13-3.66,3.13s-1.22,1.53,3.18.21C243.94,305,250.54,302.21,244,303Z"/><path class="cls-1" d="M143,287.08c.52.25,1,.53,1.56.75l2.87-6.33C145.94,283.39,144.48,285.23,143,287.08Z"/><path class="cls-1" d="M64.75,233.64c1.51,4.21,2.69,4.1,3.79,3.9s2.07-.46,3.33,3.39c2.47.79-2.05-6.26.29-5.28C68,232.17,67.48,229.24,64.75,233.64Z"/><path class="cls-1" d="M72.16,235.65a20.41,20.41,0,0,0,2.32,1.64A10.39,10.39,0,0,0,72.16,235.65Z"/><path class="cls-1" d="M387,45.78c-.06-1.93-.28-3.92-.43-5.9l-1,4.26C386,44.69,386.5,45.23,387,45.78Z"/><path class="cls-1" d="M378.52,37.24c1.22-1,2.39-1.94,3.57-2.94-1.71-.61-3.4-1.16-5.07-1.68C377.7,33.74,379.09,36,378.52,37.24Z"/><path class="cls-1" d="M48,125,47,124.57c-1.15.73-1.29,1.87-1.45,4.1C46.31,127.44,47.19,126.18,48,125Z"/><polygon class="cls-1" points="52.21 188.1 52.01 187.03 48.69 190.03 52.21 188.1"/><path class="cls-1" d="M76.84,233.36a14,14,0,0,0-2-2.61A14.42,14.42,0,0,1,73.07,228a6.06,6.06,0,0,1,1.18,2.78,23.55,23.55,0,0,1,.26,2.37C74.63,234.44,74.86,234.9,76.84,233.36Z"/><path class="cls-3" d="M149.91,29H172L170.56,170.9H278.07v17.36H149.91Z"/><path class="cls-2" d="M149.91,29H172L170.56,170.9H278.07v17.36H149.91Z"/><path class="cls-3" d="M130.8,29.64c.29-.85-3-.54-3.59-.67C127.94,30.39,131.66,29.61,130.8,29.64Z"/><polygon class="cls-3" points="138.27 43.69 136.93 43.44 140.22 45.51 138.27 43.69"/><path class="cls-3" d="M138.21,56.83c5.6-1.24-.91-4.76,1.09-7.1l1.27-.39-4.51-1.05C136.78,51.13,139.77,54.82,138.21,56.83Z"/><path class="cls-3" d="M126.09,63.83c2.18-.43,1.88,1.52.68-1.63a4.35,4.35,0,0,1-.55.29A4,4,0,0,1,126.09,63.83Z"/><path class="cls-3" d="M126.22,62.49c-.16-1.38-1.83.91,0,0Z"/><path class="cls-3" d="M127.47,68.88l-2-1.82c-1.29.38-1.58,2-2.51,1.4C124.07,70.33,125.35,70,127.47,68.88Z"/><path class="cls-3" d="M131.56,70.61l-.83-.94C130.19,69.83,130,70.08,131.56,70.61Z"/><path class="cls-3" d="M129,67.66l1.74,2c.91-.27,2.72-.3-.63-.92C131.76,68.91,130.17,68.51,129,67.66Z"/><path class="cls-3" d="M129.85,66.53c1.22-1,2-2.34,3.92-.51C133,62.53,129.06,63,129.85,66.53Z"/><path class="cls-3" d="M144,57.5l1.64-1.37L143.77,55C144.7,55.54,142.25,57.58,144,57.5Z"/><path class="cls-3" d="M124.57,80.23c1.19.12,3.17-.61,4.7-.74l-1.37-1.35C127.08,78.83,126.33,80.14,124.57,80.23Z"/><path class="cls-3" d="M129.27,79.49l2,2C131.56,79.7,130.58,79.37,129.27,79.49Z"/><polygon class="cls-3" points="137.78 70.94 133.48 67.63 137.84 71.57 137.78 70.94"/><polygon class="cls-3" points="124.42 87.92 121.66 86.78 125.83 88.82 124.42 87.92"/><path class="cls-3" d="M124.9,93c-2.28-.85-3.87,1.15-5.28.26.41,1.39,2.38,2.57,4.14,3.64C122.78,95.79,123,94.59,124.9,93Z"/><path class="cls-3" d="M126.33,98.72a14.06,14.06,0,0,0-2.57-1.79A7.55,7.55,0,0,0,126.33,98.72Z"/><path class="cls-3" d="M130.73,84.93c-.72.16-2.61.45-3.41,1.58l3.36-.79Z"/><path class="cls-3" d="M130.78,85.69l-.1,0c-.08.86-.15,1.46-.19,1.71C130.52,87.21,130.6,86.69,130.78,85.69Z"/><path class="cls-3" d="M130.74,84.73a1.34,1.34,0,0,0,0,.2C131.06,84.85,131.17,84.81,130.74,84.73Z"/><path class="cls-3" d="M134.74,76.21c1.88,1.19,3.89,3.65,6.75,1.27C139.19,76.63,137.56,78,134.74,76.21Z"/><path class="cls-3" d="M134.93,83.75l.77-2.14c-.88,0-2.18.42-3.11-.16Z"/><polygon class="cls-3" points="136 84.79 134.93 83.75 134.65 84.54 136 84.79"/><path class="cls-3" d="M129.47,95.05a3.84,3.84,0,0,1,1.82,3.08,7.87,7.87,0,0,0,1-3.69C131.24,94.27,129.35,93.74,129.47,95.05Z"/><path class="cls-3" d="M130.4,90.5c.08.07.12.15.2.21C130.88,90.58,131,90.48,130.4,90.5Z"/><path class="cls-3" d="M131.27,109.37l.61-.18-.58,0Z"/><path class="cls-3" d="M132.92,94.23c.65-.92-.17-1.47-1.21-2a5.42,5.42,0,0,1,.59,2.2C132.77,94.51,133.09,94.53,132.92,94.23Z"/><path class="cls-3" d="M127.9,101.85a11.44,11.44,0,0,0,1.84-1.59C128.68,100.73,127,101.68,127.9,101.85Z"/><path class="cls-3" d="M129.67,91a.69.69,0,0,1-.15-.14C128.8,91.18,129.15,91.15,129.67,91Z"/><path class="cls-3" d="M129.67,91a9.18,9.18,0,0,0,2,1.22,4.79,4.79,0,0,0-1.11-1.53A5.62,5.62,0,0,1,129.67,91Z"/><path class="cls-3" d="M152.8,112.77c-3.11-.16-6-2.58-2.65-4.66-2.33-2.06-12.56-.72-18.27,1.08a5.12,5.12,0,0,1,4.44,2.17c1.7-.74,4-4.69,6.79-2.9,1.6,2.8-1.1,2.29-2.75,3.65,3.88-1.15,5.64,3.57,11.34,3l-2-2.46C150.58,112.56,152,113.45,152.8,112.77Z"/><path class="cls-3" d="M132.19,105.16l-.38-.87c-.54,1-1.79,1.7-4.22,3a5.69,5.69,0,0,0,3.71,1.84l.43-4.28Z"/><path class="cls-3" d="M131.79,100.38c3.39.68,4.83,2.77,8.49,1.49-.24-2.55-2.83-1.79-4.3-3.31.84,4.12-1.88-1.18-3.8,1.79a5.46,5.46,0,0,1-.89-2.22,10.88,10.88,0,0,1-1.55,2.13l.21-.1v0H130c.42-.18.68-.24.43,0a.18.18,0,0,1,.07.09,9.4,9.4,0,0,1,1.28.18c-.7,1.2-.88.19-1.28-.18a4.23,4.23,0,0,0-.5,0H130l1.86,4.13C132.28,103.42,132.18,102.32,131.79,100.38Z"/><path class="cls-3" d="M148.76,79.68a1.93,1.93,0,0,1-.78.13C148.39,80.08,148.68,80.18,148.76,79.68Z"/><path class="cls-3" d="M146.72,81.38c-.47-.3-1.82-.55-1.47-1.53,1-.85,1.62,0,2.73,0-.9-.59-2.43-2.06-4.07-.21l.46.29c-1.16,1.66-5.38,3.79-5.85,3.5A38.8,38.8,0,0,0,146.72,81.38Z"/><path class="cls-3" d="M140.12,91l1.66,3.43,2.93-1.75-1.76.09C143.64,90.82,141.47,91.24,140.12,91Z"/><polygon class="cls-3" points="129.58 109.76 126.01 109.31 131.06 111.29 129.58 109.76"/><polygon class="cls-3" points="130.01 114.23 126.9 114.06 128.78 115.24 130.01 114.23"/><path class="cls-3" d="M245.64,189.54l-1,.88A2.88,2.88,0,0,0,245.64,189.54Z"/><path class="cls-3" d="M253,189.75l.18-1.53C252.79,189.07,252.65,189.69,253,189.75Z"/><path class="cls-3" d="M185.54,207.81c1.47,2.9,3.12,7.4,2.94,3.91l-.45-3.41A1.81,1.81,0,0,1,185.54,207.81Z"/><path class="cls-3" d="M260.65,187.48l-.43-1c-.36,1.17-.7,2.27-1,3.26C259.65,189,260.14,188.26,260.65,187.48Z"/><path class="cls-3" d="M261.68,173.38l1.94,2.2A7.52,7.52,0,0,0,261.68,173.38Z"/><path class="cls-3" d="M205.72,193.15l-1.18,3.47C206.39,196.6,205.58,194.86,205.72,193.15Z"/><path class="cls-3" d="M131.27,161.18a13.09,13.09,0,0,0-2.06,5.47C131.17,163.7,134.1,161.64,131.27,161.18Z"/><path class="cls-3" d="M248.52,153.4a2.72,2.72,0,0,0-.86,2.07A2.24,2.24,0,0,0,248.52,153.4Z"/><path class="cls-3" d="M129.22,172.81c.34-.47.52-.89.8-1.34a9.24,9.24,0,0,1-.81-4.82C127.75,168.77,126.86,171.38,129.22,172.81Z"/><path class="cls-3" d="M152.27,61.09a3.47,3.47,0,0,1,.41-.33C152.22,60.73,152.19,60.87,152.27,61.09Z"/><path class="cls-3" d="M162.18,14a5,5,0,0,1,1.73-.26C163.6,13.54,163.08,13.57,162.18,14Z"/><path class="cls-3" d="M128.53,132.19c-.23-.95-.38-.15,0,0Z"/><path class="cls-3" d="M142,127.59a3.63,3.63,0,0,0,1.66.37A4.73,4.73,0,0,1,142,127.59Z"/><path class="cls-3" d="M150.42,175.92V176C151.08,175.33,151,175.45,150.42,175.92Z"/><path class="cls-3" d="M130.07,130.77a4.46,4.46,0,0,0-1,1.21A4.59,4.59,0,0,0,130.07,130.77Z"/><path class="cls-3" d="M128.46,131a7.45,7.45,0,0,0,.33-.83C128.23,130,127.87,130.12,128.46,131Z"/><path class="cls-3" d="M128.71,133.51a2.83,2.83,0,0,1,.35-1.53c-.23.18-.42.26-.53.21C128.58,132.47,128.65,132.86,128.71,133.51Z"/><path class="cls-3" d="M160.57,138.75c.11-.06.18-.13.33-.2C159.49,137.58,159.72,138,160.57,138.75Z"/><path class="cls-3" d="M210.19,172.44s-.07.13-.11.17a.81.81,0,0,1,.14.12Z"/><path class="cls-3" d="M213.59,169.91c-1.45,4.24-2.27,3.72-3.37,2.82l1.13,9.82Z"/><path class="cls-3" d="M228.14,190.52l2.39,3.06c-2.88,5-5,3.3-2.73,7.61.34-10.67,9.29-1.09,9.62-11.75l1.57,2.25c-.45-.11-.52.52-1,.41,3.06,5.11,2.27-7.7,6.22-6.19,1.37.82,2.33,2.37,1.39,3.63l3.07-2.63c.89.2.67,2.05-.22,1.85l4.68-.85,0,.31a37,37,0,0,1,2.92-5.35c1.18,1.53-.6,1.13-.29,2.46l2.58-2.59c1.06,2.77-1.09,5.45-2.87,5,2.41,10.65,2.14-2.68,7.36,3.54l-2.45,1.35c1.58,6,3.49,3.85,6.25,7.63-.66-2-5.53-9.51-2.72-12.16.79.8,1.83,1.19,3.35-1,0,3.79,1.49,2.86,3.34,2.64l-.13,5c2-1.45,1.85-4,3-6.27,2.23.49,2.69,4.38,3.21,7.66,3.44.77-2-5.72,1.36-7.05l-18.3-18.3a2.21,2.21,0,0,1,.13.41c-1.92,3,.13,5.05,3.13,8.61-1.72,2.08-3.07-.37-4.5.38l4,1.84c-.09.45-1.32.31-1.95.23,1.56,1.56,5,.13,6.39,2.57,2.87.35.58,1.69-1.41,3.32l12.51-12.51c-1.51-1.84-3.27-3.41-4.72-.39-.74-1.43.36-3.08.13-5-4.14,4.12-3.55,3-7,8.54l-2.9-3.3c2.13,3.77-.59,8.23-3,11.9.75,1.82,1.4,3.41,1.83,4.17l-3.8,2.7c-.46-.83-.08-2.55.54-4.65-.26.42-.5.83-.69,1.2-1.36-1.85-.66-4.75.32-7.55.46,1,.92,2,1.37,3.09.94-3.05,1.82-6.42,1.62-9.36a2.88,2.88,0,0,1-1.25,1.35,4.52,4.52,0,0,0,.29-2.07c-.13-.53-.52.59-1.15,1.87l-.86-5.6-.21,2.22-5-3.5c-3.56,5.63-6.66,13.93-12.32,16.24,1.41-4.11.31-6.7.38-11.57,1.55,5.15,4.38-2.19,7.31-1.14-1.53-.54-1.19-2.86-.8-3.67L243,175.89c.12-4-1.11-3-2.47-4.62,1,7.86-3.9,5.23-6,7.65-.13-2.65.38-5.34,3-4.7-2.87-5.92-3.7,9.23-6.51,4.2.63-.06,1,.34,1.22-1-1.48,2.35-5.09.49-4.24-1.81l.63-.06c-4.21-.93-12.8-.05-13.43,6.62,0-.86.55-8,.81-9.4l-7.51,22.47c.66-5.73-1.88-19.39,1.61-22.63-1-.82-2.24-1.77-4.35.25.68.82,1.7,8.29.77,8.82-2.56-6.39-1.78-3.42-4.94-8.86,1,1.23-.11,10.22-1.73,9.94.25-1.35-.13-8.88.46-9.82l-4,8.83c1-1.59.18-7.48-.72-10,.41,1.73-3.49-.16-4.56.72l1.71,2c-4.55-1.33-4.49,12.42-9,11.95.54-1.82,1.34-11.22-.95-12.33-.51,2.26-1.71,7.7-3.2,13a31.25,31.25,0,0,1-3.24,7.44,13.67,13.67,0,0,1-4.45,4.78c-.18-.86-.33-1.72-.46-2.58q-2.31,1.47-4.9,2.94A111.76,111.76,0,0,0,175.37,186a57.91,57.91,0,0,0,3.25-7.32c.41-1.11.75-2.16,1-3.09l.37-1.33.16-.59a3.51,3.51,0,0,1,.27-.55,1.64,1.64,0,0,1-.27-.37l-.11-.35c-.06-.22-.1-.43-.14-.62l-.13-.92c-.08-.48-.2-.67-.73-.55a7.21,7.21,0,0,1,.4-2.77,2.72,2.72,0,0,1,.55-1.05,9.13,9.13,0,0,1-1.32-1.56,12.72,12.72,0,0,1-2,5.17,16.87,16.87,0,0,0-2.49,4.52,26.84,26.84,0,0,0,4.33-5.47,26.61,26.61,0,0,1-2.92,9.34c-1.62,3-4.13,5.17-5.73,4.7,0-1,1.18-3.4,2.32-5.7s2.25-4.57,2.57-5.45a6.38,6.38,0,0,1-2.08,2.25c-.75.48-1.35.57-1.1-.07q1.22-1.41,2.28-2.82c0-1-1.28.76-2.61,2.12s-2.66,2.36-1.67-.16c-.14-.17.71-1.87,1.42-3.14s1.2-2.1-.07-.53c-4.3,6-17,24.65-21.94,29.17a13,13,0,0,1-.88-3.4,9,9,0,0,1,1-5.33c1.46-2.36,4.91-5.18,8-7.91a54.87,54.87,0,0,0,7.4-7.4,35.3,35.3,0,0,1-4.43,3.79c.39-.91,2.75-2.9,3.15-3.63.26-.36.36-.63.19-.79-2.68,2.49-2.56,1.62-2.4,1.08s.36-.92-2.12,2.54c-.77-.06-.49-.75-.06-1.56a4.76,4.76,0,0,0,.92-2.51,26.8,26.8,0,0,1-7.37,4.65c-2.7,1.14-5.16,1.37-5.92.62a25.11,25.11,0,0,0,3.94-3,25,25,0,0,1,1.64-6.19,15.75,15.75,0,0,0,1.32-5.31c.65-.33,1.36-1,2.2-1.53a4.7,4.7,0,0,1,3-.8c-1-.24-2.76-.38-2.9-1.42,2.32-1.21,2.5-.62,2.8-.12s.7,1,3.48,0a4.69,4.69,0,0,1-3.55-.89,14.11,14.11,0,0,1-1.32-1.15c-.22-.21-.44-.39-.66-.64a8.1,8.1,0,0,0-.7-.73c-4.8.68-.92,3.89,1,4.85a17.94,17.94,0,0,1-9.65-.66c-2.94-1.08-5.44-3.69-7-5.66-1.65-3.44,4.28-1.49,3.34-2.09,1.15-6.46-11.57-5.51-6.79-10.87,4.22-2.13,8.4-.1,11.44-.57,1.6,2.8-2.68,4.3-2.51,6.2l2-2.34c1.4.9,2.46,2.77,1.24,3.79,3.79-1.79.73-10.92,4.23-15.91-1.42-.88-2.88-2.41-4.58-1.69l.59,1.58c-3.4,1.45-4.7-3-6.29-1-2.4-2.12-6.16-4.49-4.23-7.47l4.81-.56c-1.41.06-2.87,2-1.4,2.78-2.13-1.24,6.51-4.57.21-5.93l-3.33,2.09c-2.42-2.12-7.53-4.75-6-7.39-4.75,1.2.54.61-5,2.49,6.92-1.63-.29,6.75,7,4.14-6.45,1.92-2.74,3.33-8.24,5.85,1.59-.08,3-.9,2.25,1.32a8.13,8.13,0,0,1,1.4.49,1.58,1.58,0,0,1-.12.15l.19-.13c.24.1.29.11.07,0a5.88,5.88,0,0,1,2.41-1.13c3.65,1.1,3.53,4.62,5.42,5.82-.76,1.31-1.82-.55-3.52.16l2.82,1.78c-3.52.18-5.85,3.5-7.92.4l-.16,2.79c-2,1.64-2.76,3.9-1.28,5.29-.76,1.32,3.91,3.32,1.15,2.18l2.18,4.37-.88,0a7.34,7.34,0,0,0,.62,3.29c.22.55.46,1.11.7,1.68l.17.42a2.87,2.87,0,0,1,.17.52c.1.45.21.9.3,1.35.72,3.64.7,7-2.49,11.91.89,2.2,2,4.13,1,8.48-1,.71-2,1.44-3,2.18.53,1.35-.23,4.12-.73,6.64s-.73,4.71.86,4.32a15.57,15.57,0,0,0-4.27,10.72c-.06,3.48.78,6.57,1.11,9.44a12.94,12.94,0,0,1,4.39.09l3.87-4c3.63.23,8.36-.9,14-2.5l2.12-3.52c2.78-1.45,4.55-.82,6.66.12s4.53,2.2,7.62,2a1.88,1.88,0,0,1-3.08.18,4.63,4.63,0,0,0,4.74,2.54,19.11,19.11,0,0,0,6.21-1.72,32.87,32.87,0,0,1,5.7-2.14,6.09,6.09,0,0,1,2.55,0,3.14,3.14,0,0,1,.59.19,3.24,3.24,0,0,1,.4.28,4.54,4.54,0,0,1,.79.87c1-1.28,1.78-.84,2.5,0a.34.34,0,0,0-.25.19,1.07,1.07,0,0,0,.42,0c.45.6.92,1.31,1.43,1.87a7.18,7.18,0,0,0-1.2-1.88,6.85,6.85,0,0,0,3.18-1.4l.51,3.78c.09-.05.17,0,.27-.1,1.16,1.39.93-1.79.31-4.64a8.22,8.22,0,0,0,1.57-2.28c.94,6.1,3.1-2,4.39,4.46.8-3.18,6-2.39,6.58-9.07,0,.87.39,1.29-.25,1.34,1.32.76,2.64,1.52,3.82-.36l.56,4.81,2.88-6.47c1.75,2.93,2.48,4.63.74,8.33,4.19-5.69,3.4-2.14,7-7.78l-.17,3.11c1.27-.12,3.31-4.28,4.08-1.71,2.85,5.9,14.12.81,21.44,6.3-1.42-9.15,3.4,4.1,3.69-3,.43,2.16,1.45,3.39.27,5.27,3.73-2.13,5.61,3.43,8.19-2.55.43,2.17-.8,3.17-.42,4.46.3-.47,1.19-1.88,1.58-.59s-.55,1.81-1.14,2.76c3.82-.37,4.2-7,4.48-13.3,1.94,3,2.9,2.55,4.3-1.56.67,2.05,1.8,4.19-.58,4.93,1.34.3,8.16,3,8.29-2,.42,1.28,1.87.38,2.22-.2,2.88.28,3.23.71,6,.32l19-2.72-8.44-7.8a.79.79,0,0,1,0-.23l-.23.23L278.07,198.5l-.59-.59a10.75,10.75,0,0,1,.59-2.17l7.47-7.48c-2.48-1,.71-2.25.1-4.23l.62.07c4.37-5.44-2.09-2.35,2.89-7.71l-3.76.29c-6.39-.39.27-3.12,1.85-5.78l1.63-2.75-10.8-6.42a1.53,1.53,0,0,0-2.08.17l1.12,2.15c-1.7,2.77-4.75-11-6.46-12-.37-.71.59-1.13,1.11-1.66-4.47-4.77-.58,4.94-3.91,6.08-.62-2.66.79-6.76-1.45-7.26-1.12-2.15-6.5,8.64-9.56,3.54.67,2.05,1.34,4.09-.2,5.64-2.38.73-6.42-7.76-8.56-1.29a3.48,3.48,0,0,1-.42-1.61c-1.82,1.67-5.89,2.77-7,6.28-1.67-13-11.26,6.32-11.22-5.67l-5.58.64.15-1.23c-3.57-.79-4.83,2.09-6.08,5-.82-.81-.22-1.93-.15-2.56-5.21-2.42-5.73-1.91-10.09,4.07l-.46-3.89c-.59,1.13-2.47-.4-4.84-1.64-1.48-.62-1.81-1.17-2.48-1.28s-1.28.22-2.2,1.35a10.19,10.19,0,0,1,.64-1.74c-.9,1.14-1.75,1-2.31.46a5.76,5.76,0,0,1-1.06-2.38c-.48-1.49-.71-1.79-6.47,5.3q-2.36,1.74-5.15,3.49c1.23.55,0,2.08-1.79,3.78s-4.17,3.54-4.16,4.72c-1.28.41-1.62-.65-1.12-1.92a5.43,5.43,0,0,1,3-3.08l-.32.71c4.49-4.7,2.48-4.48,1.71-5a7.75,7.75,0,0,1,2.69-3.8c-.15-2.67.82-6.22,1.86-9.11s2.18-5.24,2.35-7.23q-2.87.25-5.75.71l.18-1,.18-1.58c1.35-.81,4.5-1.06,4.24,1.19,3.27-1.15-2.68-3.81-3.93-3.88,2.37-4.38,6.68,1.79,6.83.44l-.41-1.84-.68.4c-2.33-1.51-4.81-1.66-4.5-4.37,1.17-1.69,3.55-.84,3.78-1.51.41,0,.6-.22.17-1l.54-4-4.55,1.54c-2.22-1.78.27-3.73-4.88-2,7.94-2.61,3-14.79,5.47-16.42-3.28-2.5-3.2-4.93-2.77-7.94-.95.74-6,1.13-5.4-1.46,10.51,1.06,4.62-4.72,12.21-6.74-5,1.82-1.17-7.41-8.32-4.54.87-2.16,3.94-.09,6.43-1.71-4-5.21,2.77-11.36,1.46-17.76-1.38-.11-3.5.94-5.54-.46l6.93-3.3c-.66-1.26-7.95-1.24-3.14-3.49-1.16.31-2.92.78-3.35-.07,5.53-10-1.28-20.57,2.6-30.86l2.86-7.6L172,15.59a20.12,20.12,0,0,1-7.39-4.85c1.72,2.67.57,2.94-.74,3,.85.64,0,3.41.15,5.28l-5.32-5.2c-1,5.19-5.7.35-6.26,5.32l1.68-.9c-2.24,5.87,3.14,13,2.81,20.55,2.51-6.66,6.62,9.87,10.73.33.91,1.53-.77,2.42-.29,4.17,1-3.22,2.3-3.9,4.63-2.46l-11.9-12h0L172,40.91l-.26.76.26,0-12.67-12.8c.59,6.39-2.55,9.2-4.71,16.44l3.72-.51c-.52,1.58-1.68,1.9-2.62,2.63,5.62,1.88.36-4.44,6.56-2.72-7.59,2-.23,11.16-8.84,12.49-.07,2.44,4.31-.67,4.23,1.77l-2.33.62,3,.64c-.51,1.6-3.43,2.37-5.4,2.41.24-.38-.54-1.11-.7-1.52-2.76,2,.87,5.84,0,6.55l1.46-2.33c2.11,6.67-1,14.75,3.63,21.23l1.76-.47c3.2,4.93-2,3.9-.52,9.3l-.42-.2c1.74,1.1,2.61,2.55,2.39,4-2-1.38-4,2.52-6.27.71,3.43,5.35,2.71,2.66,9.19,6.24l-2.92.78c2.62,1.22,4,1.34,4.74,4-2.48-2.23-4.46,1.67-7.74-.83-6.42,5.57,6.35,8.44-3,10.93,8,2.68,4.52-4.83,6.23-3.36,2.65-1.19,6,2.2,5.17,4-.2,1.8-10.33,3-10.23,7.49,0-.45-.56-.48-.53-.93-2.07,1.67,2.75,3.35-.61,5.4,4.86,1.22-.31,2.7,5.9,3.1l-1.39-4.18c.8,1.19,3,2.36,4.58,3.71a4.7,4.7,0,0,1,1.61,2.18,2.23,2.23,0,0,1-.05,1.25,4,4,0,0,1-.31.69,6.13,6.13,0,0,1-.55.86,6.84,6.84,0,0,1-2-1.14,15.24,15.24,0,0,1-1.78-1.33c-.46.28-.61.56-.62.83a3.15,3.15,0,0,0,.29.92,1.73,1.73,0,0,1-.38,2.31,3.16,3.16,0,0,1-2.89-1.26,4,4,0,0,1-.49-1.33,7.06,7.06,0,0,1-.18-1.12c-.14-1.54-.09-3.35-2.44-4.64-2.64,1.2,4.45,4.83-2.27,3.49,2.14.48,3.13,1,3.53,1.55a1.09,1.09,0,0,1,.19.43.78.78,0,0,1,0,.22c0,.11,0,.22,0,.34a8.32,8.32,0,0,1-.29,1.4,7.79,7.79,0,0,0-.47,3.12,3.89,3.89,0,0,0,2.37,3l-3.73.31c.58.69,2.33,1.88,2.22,3.23-1.6-.43-3.21-.94-4.81-1.54,2,1.66,1.12,3.69,0,6s-2.56,4.91-1.45,6.5c0-4.27,1.11-5.1,2.59-5.46s3.31-.35,4.69-2.35c1.23,1.86,1.23,3.2.57,4.54a18.06,18.06,0,0,1-3.44,4.07,23.34,23.34,0,0,0-4,5,10.87,10.87,0,0,0-1.26,7c-.26-.64.32-2.53,1.18-4s2-2.55,2.85-1.89a36,36,0,0,1-4.25,9.17c.35,3.7,1.32,2.59,2.48.87s2.53-4,3.67-3.37c-2.3,2.94-1.85,3.55-.64,3.5s3.18-.71,3.9.06l-3.82,3.44c-.94,3.83-.1,4.15,1.18,3.37,1.54-1.08,3-2.48,4.35-3.37s2.56-1.29,3.76-.36Q159.14,185.4,155,188l5-1.36L155.38,191c3.66-1.6,5.49-2.19,6.9-2.23s2.36.46,4.05,1.07a11.9,11.9,0,0,1,3.49-4.45c1.66-1.4,3.51-2.48,5.15-2.54.88,2.25-3.51,3.6,1.67,3.05A19.48,19.48,0,0,1,173,189c-1.1.6-2,.47-2-1.27-1,1.23-2.69,2.38-3.77,3.6.56,1.29,2.34,1.44,4.16,1.26s3.67-.69,4.68-.71c-.7-.14-1.52-.34-1.7-.88q5.34-2.62,9.85-5.25c.6,1.42-.68,2.56-2.07,3.68,1.71-.41,3.37-2.15,5.6-2.47-1.48,3.07-2.2,6.25-6.28,7.7q4.65-1.71,8.79-3.42a7.92,7.92,0,0,0,1.56,2.49c.66.89,1.19,1.76.57,2.33,2.17.9,5.24-.59,8.12-2l.54-.27a1.87,1.87,0,0,0,.36-.26c.2-.17.41-.33.62-.49a6.7,6.7,0,0,1,1.27-.75,2.38,2.38,0,0,1,2.52.19,2.69,2.69,0,0,1,1.23-1.61c3.11.7,5.88,4.47,9.57.25l2.1,5.52c2.89-1.25-2.84-6.95,2-9,3.41-1.76,1.27,4.71,2.47,6.24,1.7-2.78,4.65-8.44,7.78-4C229.92,190.93,229.11,190.11,228.14,190.52Zm35.7-2.44c-.69.79-2.07,3.25-2.58,1C262.05,184.75,262.66,186.83,263.84,188.08Zm-8.45-7.88c.52-1.25,1.31-.63,2.21.8C257,181.31,256.21,181.17,255.39,180.2ZM131.61,142.57l.18.08C130.32,144.19,130.9,143.64,131.61,142.57Zm1.64-3.2a2,2,0,0,0-1.58-.17c1,.23,1,1,.75,1.77C133.42,140.74,134.1,140.32,133.25,139.37Zm52.92-10.47-1,.62C184.09,128.1,185.08,128.5,186.17,128.9Z"/><path class="cls-3" d="M261.54,175a9.06,9.06,0,0,1,.3,2.06A1.88,1.88,0,0,0,261.54,175Z"/><path class="cls-3" d="M205.94,192.51s-.07,0-.11,0a4.18,4.18,0,0,0-.11.68Z"/><path class="cls-3" d="M165.72,172.81a9.5,9.5,0,0,1-1.2,2C165.4,173.84,166,173.06,165.72,172.81Z"/><path class="cls-3" d="M126.82,122.39l1,2c-.19-1,.64-1.35,1.24-1.85C128.16,122.64,126.88,123,126.82,122.39Z"/><path class="cls-3" d="M150.25,104.58c-.46-.3-.05-.64-.52-.94l-1.76.09C148.09,105,149.5,105.9,150.25,104.58Z"/><path class="cls-3" d="M139.4,120.49c3.18-.16,2.1-1.45,1.51-2.89a.39.39,0,0,1,0,.26C136.46,117.43,137.93,119,139.4,120.49Z"/><path class="cls-3" d="M140.81,117.27a2,2,0,0,1-.08-1.33C138.94,115.77,140.35,116.48,140.81,117.27Z"/><path class="cls-3" d="M131.14,135.3c.82-.68-4.07-.42-2.78-.81C124.31,133.73,133.27,139,131.14,135.3Z"/><polygon class="cls-3" points="149.9 119.33 145.96 119.84 149.13 120.65 149.9 119.33"/><path class="cls-3" d="M147,130.68l1.09-2.3a1.51,1.51,0,0,1-1.34-.62C146.63,129.18,145.84,130.73,147,130.68Z"/><path class="cls-3" d="M146.76,127.76a1.77,1.77,0,0,0-.66-1.84A3.78,3.78,0,0,0,146.76,127.76Z"/><polygon class="cls-3" points="151.07 122.47 150.25 123.14 149.97 124.77 151.07 122.47"/><path class="cls-3" d="M146.25,155.37l1.13,2.51c1.34.25,2.17-.43,1.63-1.36C148.07,155.92,147.55,155,146.25,155.37Z"/><path class="cls-3" d="M157,147.79c-.82.68-1.69.72-3,1.1l4.88.08Z"/><path class="cls-3" d="M158.16,155.1c1.35.25,3.88,3.64,3.57.46C160.39,155.31,159.27,152.8,158.16,155.1Z"/><path class="cls-3" d="M156.29,186.18l-.65.06-6.83,8Q152.62,190.21,156.29,186.18Z"/><path class="cls-3" d="M187.82,167.06c-3-1.92-.7,4.93-3.39,2.54-.69,1.89,2.2,2,1.48,3.58C187.7,171.19,188.65,172.31,187.82,167.06Z"/><path class="cls-3" d="M185.91,173.18a8,8,0,0,0-.91,1.22A3.88,3.88,0,0,0,185.91,173.18Z"/><polygon class="cls-3" points="155.18 9.74 153.27 8.08 154.5 10.76 155.18 9.74"/><path class="cls-3" d="M151.51,15.67l-.45-5.09-1.15,4.61C150.35,15,151.18,14.52,151.51,15.67Z"/><path class="cls-3" d="M269.15,198.34l.14-1.22c-.29-1.33-.74-1.43-1.64-1.64Z"/><polygon class="cls-3" points="243.24 194.53 243.68 194.63 242.85 190.03 243.24 194.53"/><path class="cls-3" d="M221.49,200.41c.89.19,1.93-.84,2.82-.64C222.38,200.6,221.25,194.66,221.49,200.41Z"/><path class="cls-3" d="M361,45.66c8.16,17.92,16.57,54.69,16.57,101.49,0,108.14-62,189.25-176.13,189.25C92.3,336.4,19,255.17,19,136c0-47.44,9.11-78.05,15.3-91.12L70.86,57.09c-8,18.66-21.53,45.43-21.53,77.35,0,90.17,61.57,174.27,152.88,174.27,85.07,0,145.37-77.34,145.37-170.34,0-30.5-13.69-62.61-22.4-82.74Z"/><path class="cls-2" d="M361,45.66c8.16,17.92,16.57,54.69,16.57,101.49,0,108.14-62,189.25-176.13,189.25C92.3,336.4,19,255.17,19,136c0-47.44,9.11-78.05,15.3-91.12L70.86,57.09c-8,18.66-21.53,45.43-21.53,77.35,0,90.17,61.57,174.27,152.88,174.27,85.07,0,145.37-77.34,145.37-170.34,0-30.5-13.69-62.61-22.4-82.74Z"/><path class="cls-3" d="M353.93,30.39c3.35-.67,1.4-3.09,1.77-3.73-2.85,1.12-3.15,2.21-2.83,2.94S354.12,30.72,353.93,30.39Z"/><path class="cls-3" d="M312.42,51.6,310.47,50q3.52,4.56,6.79,8.56Z"/><path class="cls-3" d="M329.11,93.6c1.83-2.29.65-5.12-1.08-8.24-1.09-2-2.31-4.21-3.39-6.43a24.6,24.6,0,0,1-2.41-6.52c.22-.42.45-.84.69-1.23C321,70,319,68.6,317,67.11c1.26,2.62,2.76,5.4,4.18,8.16l2.17,4.1,1.94,3.85c.56,1.17,1.12,2.31,1.65,3.42.4.86.77,1.69,1.09,2.5A14.67,14.67,0,0,1,329.11,93.6Z"/><path class="cls-3" d="M323.67,113.14c1.61-1.43,2.44,3.14-.32-3.92a5.62,5.62,0,0,1-.31.8A22.58,22.58,0,0,1,323.67,113.14Z"/><path class="cls-3" d="M323,110c-.91-3.16-1,2.48,0,0Z"/><path class="cls-3" d="M327,124.5c-.74-1.3-1.57-2.61-2.34-3.88-1,1.06-.6,4.72-1.63,3.49C324.52,128.08,325.5,127.16,327,124.5Z"/><path class="cls-3" d="M331.05,128l-1-2.12C329.65,126.37,329.56,127,331.05,128Z"/><path class="cls-3" d="M327.9,121.5l1.13,2.2,1,2.22c.7-.7,2.25-1-.81-2.06C330.75,124,329.25,123.3,327.9,121.5Z"/><path class="cls-3" d="M328.19,118.73c.56-2.57.55-5.9,3.11-1.85-1.16-4.12-2.61-5.66-3.37-5.16-.39.25-.58,1-.57,2.2A18.17,18.17,0,0,0,328.19,118.73Z"/><path class="cls-3" d="M334.44,93.71l.24-3.86c-.83-.81-1.7-1.61-2.55-2.41C333.44,88.64,333.05,94.4,334.44,93.71Z"/><path class="cls-3" d="M325.13,150.66c1,.35,2.84-1.3,4.18-1.56-.33-1.12-.63-2.23-1-3.34C327.54,147.42,326.66,150.55,325.13,150.66Z"/><path class="cls-3" d="M329.31,149.1l1.48,5.06C331.26,149.74,330.47,148.88,329.31,149.1Z"/><path class="cls-3" d="M336.51,128.26c-1.57-2.57-3.06-5-4.78-7.48l1.33,2.21,1.23,2.24c.83,1.51,1.67,3,2.39,4.58Z"/><polygon class="cls-3" points="322.95 168.91 320.96 165.86 322.42 168.53 323.76 171.22 322.95 168.91"/><path class="cls-3" d="M320.93,180.91c-1.49-2.39-3.87,1.87-4.59-.46a17.08,17.08,0,0,0,.19,4.7,43.84,43.84,0,0,0,1.11,4.45,10.26,10.26,0,0,1,.69-4.19,13.19,13.19,0,0,1,1.08-2.16A21.93,21.93,0,0,1,320.93,180.91Z"/><path class="cls-3" d="M318.49,194.31a22,22,0,0,0-.85-4.71A14.08,14.08,0,0,0,318.49,194.31Z"/><path class="cls-3" d="M329.41,162.52a5.67,5.67,0,0,0-3.49,3.43l3.16-1.51Z"/><path class="cls-3" d="M329.19,164.39l-.11.05c-.38,2.08-.64,3.52-.75,4.14C328.43,168.05,328.69,166.79,329.19,164.39Z"/><path class="cls-3" d="M329.49,162l-.08.48C329.72,162.37,329.83,162.27,329.49,162Z"/><path class="cls-3" d="M334.35,141.15c.78,1.5,1.58,3.83,2.5,5s2,1.34,3.29-1.7C338.19,142.27,336.7,145.69,334.35,141.15Z"/><path class="cls-3" d="M333.35,160l1.22-5.29c-.79,0-2,.91-2.67-.61C332.41,156.08,332.87,158,333.35,160Z"/><polygon class="cls-3" points="334 162.75 333.36 160.03 332.91 161.97 334 162.75"/><path class="cls-3" d="M323.6,186.6c.61,2.49.14,5-.57,7.66.37-.68.72-1.36,1.06-2s.6-1.41.87-2.13a45.1,45.1,0,0,0,1.41-4.31C325.6,185.14,324.35,183.5,323.6,186.6Z"/><path class="cls-3" d="M326.92,176c0,.17,0,.37.07.53C327.29,176.25,327.41,176,326.92,176Z"/><path class="cls-3" d="M312.79,219.67c.22-.06.46-.09.68-.15l-.4-.31Z"/><path class="cls-3" d="M327,185.42a5.38,5.38,0,0,0,.1-5,27.84,27.84,0,0,1-.76,5.39C326.72,186.06,327,186.16,327,185.42Z"/><path class="cls-3" d="M317.33,201.85a27.49,27.49,0,0,0,2.84-3.07C318.9,199.56,316.75,201.21,317.33,201.85Z"/><path class="cls-3" d="M326.06,177.09c0-.12-.05-.23-.06-.35C325.24,177.33,325.55,177.3,326.06,177.09Z"/><path class="cls-3" d="M326.06,177.09a13,13,0,0,0,1.07,3.29,16.25,16.25,0,0,0-.14-3.87A3.17,3.17,0,0,1,326.06,177.09Z"/><path class="cls-3" d="M325.12,236.22c-1.07-.87-1.28-3-.74-5.37a12.64,12.64,0,0,1,4.54-6.85c.51-5.86-9.15-6.14-15.45-4.48,1,.68,2,1.12.93,6.54,1.07-.47,3.21-2.66,5.09-4.16s3.4-2.34,3.52.28a14,14,0,0,1-1.44,3.8,4.4,4.4,0,0,1-1.46,1.59c-1,.62-2.07.67-3.53,1.85,2.21-.47,2.15,2.09,2.11,5a17.29,17.29,0,0,0,.28,4.2,3,3,0,0,0,2.17,2.49c.66-2.19,1.24-4.4,1.85-6.57C323.73,234.77,323.58,237.47,325.12,236.22Z"/><path class="cls-3" d="M317.83,210.69l.51-2.1c-1.38,2-3,3.28-6.27,5.19-.28,3.69.31,4.82,1,5.43l2.39-4.64c.39-.78.82-1.54,1.18-2.33l1.09-2.38Z"/><path class="cls-3" d="M321.74,199.66c2.21,2.5,1.55,7.91,5.65,6,2.08-6.19-.78-5.12-.79-9.15-1.23,5-1.39,4.2-1.73,2.92s-.84-2.93-2.78.27a34.11,34.11,0,0,1,.94-5.43,39.19,39.19,0,0,1-2.86,4.52l.25-.15v0l0,0c.47-.3.73-.36.38,0a.5.5,0,0,1,0,.21,3.37,3.37,0,0,1,.89.79c-1.59,2.54-.88.18-.89-.79a2.19,2.19,0,0,0-.37-.25l-.05,0-1,5c-.17.84-.32,1.68-.5,2.51l-.6,2.47a15.55,15.55,0,0,0,1.68-3.42C320.53,203.73,321.08,201.94,321.74,199.66Z"/><path class="cls-3" d="M346.19,150.54a.76.76,0,0,1-.7.31C345.81,151.58,346,151.87,346.19,150.54Z"/><path class="cls-3" d="M344.15,154.92c-.36-.83-1.49-1.57-1-4.1,1-2.17,1.4.09,2.37,0-.68-1.62-1.77-5.5-3.49-.76l.35.78c-1.19,4.32-5.51,9.4-5.81,8.6A18.37,18.37,0,0,0,344.15,154.92Z"/><path class="cls-3" d="M335,178.89c-.2,3-.33,6-.61,8.93,1.24-1.24,2.35-2.53,3.53-3.82l-1.54-.12C338.06,179.06,336,179.74,335,178.89Z"/><path class="cls-3" d="M311,219.85l-2.26-2.36c.58,2,1.14,4.11,1.68,6.23Z"/><path class="cls-3" d="M306.16,229.42,304,227.7c0,1.07,0,2.18-.05,3.24C304.75,230.46,305.45,229.94,306.16,229.42Z"/><path class="cls-3" d="M41.44,191.49l1.3,2.26A9.94,9.94,0,0,0,41.44,191.49Z"/><path class="cls-3" d="M38.17,173.56l-1.38-.24C37.63,174.05,38.22,174.31,38.17,173.56Z"/><path class="cls-3" d="M93,228.53c.06-2.14.55-4.62.64-6.24s-.15-2.47-1.36-1.54l-2,2.41A11.06,11.06,0,0,1,93,228.53Z"/><path class="cls-3" d="M59.79,54.11a10.55,10.55,0,0,1,.6,1.15,24.56,24.56,0,0,1,4.14-1.61C62.9,53.75,61.26,53.88,59.79,54.11Z"/><path class="cls-3" d="M46.83,62.69l-.15-.07s0,0,0,0h0l.08,0,.16-.07.29-.16a2.71,2.71,0,0,0,.5-.33,2.54,2.54,0,0,0,.67-.78,2.38,2.38,0,0,1-.62.81,3.13,3.13,0,0,1-.5.34L47,62.5l-.17.06-.09,0,0,0h0Z"/><path class="cls-3" d="M89.56,274.05l4.1-.29C90.53,270.86,90.84,273.22,89.56,274.05Z"/><path class="cls-3" d="M221.64,290.9a30.76,30.76,0,0,0-4.18-.68c-.62-.06-1.2-.07-1.76-.09s-1.1-.05-1.62,0A50.51,50.51,0,0,0,219,292C220.39,292.3,221.37,292.18,221.64,290.9Z"/><path class="cls-3" d="M9.1,190.7c.83,1.63,1.64,2.23,2.26,2C10.44,191.09,9.77,190.19,9.1,190.7Z"/><path class="cls-3" d="M205.58,290.63c.53.28,1,.41,1.59.65a29.09,29.09,0,0,1,6.91-1.19,11.39,11.39,0,0,0-4.22-.88A7,7,0,0,0,205.58,290.63Z"/><path class="cls-3" d="M357.51,186.47c.18-.23.3-.53.49-.74C357.62,185.58,357.54,185.94,357.51,186.47Z"/><path class="cls-3" d="M383.3,74.25A34.45,34.45,0,0,1,384.51,79,12.69,12.69,0,0,0,383.3,74.25Z"/><path class="cls-3" d="M278.18,261.27c1.55-1.57.05-.47,0,0Z"/><path class="cls-3" d="M294.37,261.93a1.92,1.92,0,0,0,.36,1.7A2.39,2.39,0,0,1,294.37,261.93Z"/><path class="cls-3" d="M180.86,307.51l-.22,0C181.3,308.15,181.19,308,180.86,307.51Z"/><path class="cls-3" d="M281.55,260a17.13,17.13,0,0,0-2.68,1.29A12.18,12.18,0,0,0,281.55,260Z"/><path class="cls-3" d="M280.27,259.29c.65-.42,1.14-.78,1.61-1.11C281.74,257.63,281.35,257.57,280.27,259.29Z"/><path class="cls-3" d="M275.94,263.37a15.65,15.65,0,0,1,2.93-2.07c-.47.13-.71.12-.69,0C277.72,261.72,277.06,262.35,275.94,263.37Z"/><path class="cls-3" d="M241.31,323.63a5,5,0,0,1,.56.17C244,322.07,243,322.49,241.31,323.63Z"/><path class="cls-3" d="M40.5,179.75c.06.12.15.17.21.27v-.41Z"/><path class="cls-3" d="M36.46,170.57c4.42,3.47,4.36,5.79,4.26,9,2.51-1.64,5.14-3.27,7.72-4.84Q42.49,172.83,36.46,170.57Z"/><path class="cls-3" d="M56.61,231.76c0-2.14-.17-4.21-.08-6.36a43.86,43.86,0,0,1,4.12,3.24c1.07,1,1.86,1.8,2.45,2.29,1.19,1,1.64.62,2.17-2.55-2.16.86-3.9.09-5.44-1.52s-2.67-4.16-3.91-6.65c-.63-1.23-1.18-2.51-1.75-3.7a18,18,0,0,0-1.9-3.16,6.52,6.52,0,0,0-2.34-2A4.2,4.2,0,0,0,47,211.1l.65-4.3c.26,1.08.83,1.07,1.08,2.14,1-4.26-1.09-5-3.55-6s-5.31-2.28-6-7.25c-.09-3.56.69-6.19,2.28-4.16l-2-3.47c-.67-1.17-1.33-2.34-1.92-3.53-.23-2.25,1.45-2,1.68.21L37.81,179c-.24-.95-.49-1.9-.71-2.86l-.59-2.88.28,0a42.7,42.7,0,0,1-5.62-6.73c1-3.18,1.12,1.41,2.2.49l-2.89-6.35c2.14-2.89,4.95,2.33,5.12,6.82,4.22-3.57,3.56-4.79,2.27-6.89a11.78,11.78,0,0,1-1.78-4.17,15.69,15.69,0,0,1,1-7.63l1.53,6A10.35,10.35,0,0,0,42.29,148l.31-2c.12-.68.26-1.38.43-2.11a23.49,23.49,0,0,1,1.59-4.73c-.84.81-2.84,4.22-4.93,6.67s-4.15,3.87-5.5.36c.66-2,.94-4.65-1-8.48,1.66,0,2.23-1,2.43-2.51a48.23,48.23,0,0,0-.08-6l4.35.41c-1.16-5.08-3.33-4.74-5.21-7.83.67-5.68,4.19-6.63,7.09-7.75.65-4.4-.78-3-2.45-1.76-.82.61-1.66,1.18-2.33.92s-1.13-1.35-1.1-4c2.29-7.37,1.1-12.69,0-22,2.35-4.93,2.46,1.35,4-.3-.89-1.7-1.73-3.42-2.59-5.16.29-1.11,1.27-.54,1.77-.25-.31-2-1.32-2.33-2.3-2.9a3,3,0,0,1-1.29-1.32,4.56,4.56,0,0,1-.39-1.3c-.09-.51-.12-1.28-.15-1.78-2.19-1.11.06-3.19,2.22-4.58a9.25,9.25,0,0,0,2.69-2.23c.58-.92.7-2.16.1-4.64.65.11,1.08,1,1.54,1.91a11.42,11.42,0,0,0,1.63,2.71,36.2,36.2,0,0,1-.31-4.84V62c0-.16,0-.33-.09-.39l-.46-.48a9.27,9.27,0,0,1-.69-.86,5,5,0,0,1-.81-1.84,3,3,0,0,1,0-1.19,2.21,2.21,0,0,1,.25-.67l0-.09s0,0,.06,0l.23,0,.94.1,1.9.18,2.13,1.09,1.1.55.56.28.28.15c.08,0,0,0,.07.06a4,4,0,0,1,.28.85,2.12,2.12,0,0,1-.18,1.46A10,10,0,0,0,49,58.7a4.46,4.46,0,0,1,1.14-2.42,7,7,0,0,1,3.36-1.66c.39-.09.8-.18,1.25-.25a5.71,5.71,0,0,1,1.66-.12c.71,0,1.36,0,2,0,.29,0,.59,0,.83,0l.63-.1c-.29-.52-.71-1.06-.9-1.5a2.74,2.74,0,0,1-.27-1.17,7,7,0,0,0-1.34-2l1.76.28.91.15.23,0c.06,0,0,0,.07,0l.1,0a.75.75,0,0,0,.27-.21.25.25,0,0,0,0-.07s0,0,.06,0l.21,0,.88.14c2.36.37,4.88.8,7.58,1.29,1.14,1.14-1.85,1.72-4.86,2.63l2.86-.14c1.4,1.32.63,2.15-.83,2.86s-3.58,1.3-5.28,2a8.61,8.61,0,0,0-.89-3.13,11.11,11.11,0,0,0-2.13,1.42c-1.24.32-2.67.57-4.1.83l-2.09.39-.49.1-.25.19-.46.38c-.59.52-1.1,1-1.6,1.55-.39-.39,2,.15,3.74.53,1,.21,1.94.44,3,.69l.71.18.07,0,.15,0a5,5,0,0,0-.49.9s0,.07-.06.09l-.16.07a.38.38,0,0,0-.19.15.18.18,0,0,0,0,.2.28.28,0,0,0,.08.12s.11.1.07.12c-.11.44.16-.49,1.15-1.33a14.5,14.5,0,0,1-3.3,4c.46-.53,1-1,1.48-1.55a3.67,3.67,0,0,1-.91.45l-.6.18-.33.07-.17,0a.21.21,0,0,0-.19.11c-1.2,1.41-2.34,2.7-3.43,3.84a10.94,10.94,0,0,1,5.76,7,18,18,0,0,1,.72,3.36l.11,1a7.9,7.9,0,0,1,.07,1c0,.79,0,1.59,0,2.41a76.61,76.61,0,0,1-1.1,10.49c-2.24-4.69-5.29-2.57-9.27-4,2.78-1.41,3.31-4.42,3.66-8.08L50,79.3l.08-.73c0-.24,0-.23,0-.42s0-.58,0-.86a5.31,5.31,0,0,1,.83-3.1,2.32,2.32,0,0,1-3.7.61q.24.8.42,1.71l.18.94c0,.08.06.06.05.22l0,.47-.09,1c-.25,2.52-.42,5.09-.59,7.63-3.17-1.44-3.46,2.16-6,5.53,3.68-.44,4,2.58,3.46,6.44-.19,2-.66,4.14-.93,6.25a22.55,22.55,0,0,0-.19,5.71c-2.31,0-4.45-2-2.19-9.18a6,6,0,0,0-2.13,5,11.41,11.41,0,0,0,1.67,4.6,16.42,16.42,0,0,1,2,4.49,6,6,0,0,1-1.2,5c.17-1.81.64-2.72-.43-3.6a11.55,11.55,0,0,1,.4,4.12,28.48,28.48,0,0,1-.56,4.53c-.65,2.77-1.53,4.77-2.51,3.48,0-.62,0-1.24,0-1.85a71.14,71.14,0,0,0-.41,11c.09,2,.14,4,.37,6.06s.51,4,.84,6a40.89,40.89,0,0,0,1.27,5.41,36.09,36.09,0,0,0,1.6,4.46c1.22,2.55,2.64,4.18,4.13,4.39a32.3,32.3,0,0,1-8.42-1.08c3.75,3.1,7.44,6,11.33,8.76,1.93,1.37,3.82,2.71,5.76,4s3.93,2.51,5.88,3.71c-2.62-.26-6.43,1.92-10.18,3.19s-7.46,1.53-10-3a23.88,23.88,0,0,0,.36,5.1A19.79,19.79,0,0,0,44,192c.14-2.11,5.66-6.49,6.79-4.12-1.71,4.14-2.09,5.59-2.29,7.16a79.74,79.74,0,0,1-1,8.36c0-1.57,2.18-2.19,4.43-1.91s4.71,1.43,5.36,3.55c-1.34-.26-7.09,3.05-8.45,1.75q2.82,2,5.59,4t5.72,3.7c-2.35-2-6.19,2.06-7.14,5.35.23-.43.57-.06,1,.76s1,2.08,1.61,3.48,1.23,2.93,1.84,4.26a15.58,15.58,0,0,0,1.83,3c-.23-1.73-.52-3.41-.65-5.15a13.42,13.42,0,0,0,4.58,6.23A18.41,18.41,0,0,0,69,235.1a27.46,27.46,0,0,1,5.85,2.33,13.9,13.9,0,0,1,5.3,5.2,9.54,9.54,0,0,0-5.54,1.75A5.63,5.63,0,0,0,72.39,247a4.58,4.58,0,0,0,.37,3.86l5.83.14c2.53.07,5.45.21,8.58.39a73.19,73.19,0,0,1,9.23,1.17,24.51,24.51,0,0,1,8,2.79l-.3,2.93,3.62,1.91c1.18.65,2.45,1.18,3.67,1.76a68.77,68.77,0,0,1-17.17-.45c-1.69-.24-3.41-.53-5.11-.86s-3.4-.68-5-1.12a65.71,65.71,0,0,1-8.31-2.75c1.61,5-1.26,2.7,3.52,8.42.05,3.42-5-1.18-6.52-2.88q4.88,7.41,10.49,14.41c1.41-1.85,4.58-.2,7.65,1.46s6.26,3.14,7.31,1.51c-2.78-1.55-5.66-3.07-8.35-4.82l-4.13-2.58c-1.38-.87-2.67-1.83-4-2.75.73-.9,2.16-1.36,4-1.43a15.89,15.89,0,0,1,3,.18,28.33,28.33,0,0,1,3.45.68,32.41,32.41,0,0,1,14.15,8c.52,1.64-1.22,2.84-3.23,3.76s-4.31,1.54-4.73,2.19c1.14-.07,3.84,1.25,6.26,2.75.61.38,1.18.78,1.74,1.15s1.08.72,1.53,1.06c.88.67,1.47,1.27,1.52,1.66-1.85-.41-3.77-.78-5.62-1.27,2.14,2.83,5.36,3.32,8.39,4.15a15.12,15.12,0,0,1,4.51,1.65,9.33,9.33,0,0,1,2,1.66,16.36,16.36,0,0,1,1.83,2.5c1.13.86,2.17,3.22,3.21,5.13s2.09,3.27,3,2.21c-.84-3.38.73-8.76,3-13.42s5.3-8.74,7.4-9.76c.27.39,2.47,2.94,4.87,6,1.21,1.48,2.53,2.95,3.62,4.37a24.44,24.44,0,0,1,2.43,3.54c1.18,2.66-1.23,4.38-3.79,5.85s-5.23,2.72-4.17,5.16c.68-1.07,3.58-1.4,4.76-1.52,2.3,2.07-2.63,3.13,3.56,5a2.75,2.75,0,0,1,2.85-1,11.88,11.88,0,0,1,3.18.94c1.73.72,2.09,1-1.86-2.57a13.62,13.62,0,0,1,6.14,2,22.54,22.54,0,0,0,6.8,2.7,2.62,2.62,0,0,1,.84-2.76,15.73,15.73,0,0,1,3.65-2.73A27.13,27.13,0,0,1,175,305a21.31,21.31,0,0,1,2.49-.7,16.35,16.35,0,0,1,2.33-.41c-.53,1.12.51,2.82,1,3.61,1.46.27,2.84.55,4.16.84l3.79.7c2.43.45,4.68,1,6.93,1.34s4.49.72,6.87,1,4.93.21,7.76.13c1.07,1,6.74,1.92,4.56,4.11,1.61-1,3-2.58,6.46-3.24,3.69,1.49,1.77,1.93-.41,2.5s-4.57,1.16-1.61,3.29c.08-1.37,2.31-2.63,5.07-3.84.69-.31,1.41-.61,2.15-.91l2.19-1c1.45-.68,2.84-1.35,4-2-1.23-1.89-4.05-1.48-7.22-.35a44.81,44.81,0,0,0-4.88,1.92l-2.3,1.08-2,.87a7.67,7.67,0,0,1,1.08-4.42,20.9,20.9,0,0,1,3.62-4.6,51.79,51.79,0,0,1,5.49-4.44,79.39,79.39,0,0,1,6.84-4.17,9.12,9.12,0,0,1,4.08-1.11,1.33,1.33,0,0,1,1.36.89c.34,1-.17,2.25.44,1.62a29.75,29.75,0,0,0,5.07-1.8,14.69,14.69,0,0,0,3.41-2.3,18.74,18.74,0,0,0,3.88-4.88,14.21,14.21,0,0,1,3.36-4.25,14.53,14.53,0,0,1,6.9-2.86c3.14.25,4.17,1.76,4.63,3.46s.37,3.59,1.57,4.41a13.94,13.94,0,0,1-4.25,2.62,22.91,22.91,0,0,1-4,1.16c-2.63.39-5,.51-7.22,1.6l6.28-1a15.78,15.78,0,0,1-3.85,3.3,10.53,10.53,0,0,1-2.51,1.21,7.77,7.77,0,0,1-2.39.45c1.4.31,3.87-.06,6.85-1.21,1.49-.56,3.18-1.18,4.9-2l5.42-2.73c1.86-1,3.71-2.14,5.62-3.21l1.42-.81,1.39-.88,2.76-1.7c1.87-1.08,3.61-2.23,5.32-3.25s3.4-1.9,4.92-2.74c1.07-2.52,3.35-6.11.9-6l-2.87,3.09c-2.41.1-1.55-2-.75-3.72s1.57-3.23-.84-2.1c1.44-2.49,2.54-5.5,4.2-8.2a29.18,29.18,0,0,1,2.78-4.05,18.39,18.39,0,0,1,1.8-1.85c.67-.58,1.33-1.2,2.11-1.76l4.08,1.69c-.52-.34-1.81.19-3,1.11s-2.44,2.11-2.7,3.34c.21-.89,1.08-1.61,2.24-2.3s2.53-1.45,3.88-2.26c2.74-1.57,5-3.73,3.94-6.77-1.88.79-3.68,1.61-5.56,2.31a44.43,44.43,0,0,0,1.16-4.46c.35-1.59.77-3.15,1.16-4.77a18.83,18.83,0,0,1,4.31-8.58c-2.52.1-2.61.46-2.9,1s-.77,1.13-4.05,1.53c1.79.09,2.1.92,1.66,2.14a16.68,16.68,0,0,1-2.75,4.27c-2.34,2.92-4.51,5.68-.1,5.2a10.8,10.8,0,0,0-7.2,2.42,15.39,15.39,0,0,1-3,1.87,13.31,13.31,0,0,1-4.43,1.23c.54.43,1.37.52,1.55.91.09.2,0,.47-.33.9a14,14,0,0,1-2.09,1.72,6.23,6.23,0,0,1,0,1.67l-.33.16.32-.07c0,.3,0,.35.12,0a6.32,6.32,0,0,1,3.41-.32,6.77,6.77,0,0,1-.86,3.33,18.81,18.81,0,0,1-2.3,3.55,44.2,44.2,0,0,0-4.47,6c-3,1.44.11-2.07-2.2-2.17l-2,4.6c-1.07-1.09-3.57-1-5.1-1.26s-2.16-1,.32-3.79c-1.84,1.15-3.61,2.39-5.47,3.49a23.18,23.18,0,0,0-6.29,1.77,12.86,12.86,0,0,0-4.9,3.23c-3,.62-5.58,6.3-4.14,3-.69.52-1.42,1-2.14,1.42l-2.19,1.36c-.74.46-1.47.93-2.21,1.37l-2.28,1.24-.33-.69a34.72,34.72,0,0,0-3.58,1.27c-1.21.42-2.41.9-3.62,1.42a79.46,79.46,0,0,1-7.54,2.87,25.05,25.05,0,0,1-4,1,28.9,28.9,0,0,1-4.18.47,27.87,27.87,0,0,1-4.33-.39c-.73-.13-1.46-.29-2.19-.49a20.73,20.73,0,0,1-2.21-.84,39.61,39.61,0,0,1-5.45,1.17,27.74,27.74,0,0,1-7.26-.41l-.94-2.75a12.56,12.56,0,0,1-3.87-.32c-.71-.14-1.45-.29-2.18-.5l-2.16-.67a20.18,20.18,0,0,0-3.87-.88,3.19,3.19,0,0,0-2.62.57,8.12,8.12,0,0,0-4.47-4.27,19,19,0,0,0-3.37-1.35c-1.21-.4-2.53-.61-3.82-1-2.61-.72-5.43-1.16-7.89-2-1.25-.37-2.44-.75-3.52-1.15a14.9,14.9,0,0,1-2.77-1.49l-1.71,3c-1.16-.6-2.36-1.1-3.57-1.6s-2.44-1.05-3.74-1.52c-2.65-.86-5.37-2-8.61-3.1l-1.29,2.79a10.33,10.33,0,0,1-4.56-2.19,28,28,0,0,1-2.21-1.86c-.7-.73-1.41-1.51-2.12-2.31L123,267c-.75-.81-1.43-1.75-2.19-2.6a58.79,58.79,0,0,0-4.81-4.93,2,2,0,0,1,1.93.75,8.59,8.59,0,0,1,1.61,2.23,14,14,0,0,0-.86-2.15,15.11,15.11,0,0,0-1.05-1.95,15.64,15.64,0,0,0-2.76-3.19,36.31,36.31,0,0,0-3.32-2.68c-1.17-.85-2.45-1.59-3.66-2.41-4.86-3.24-9.9-6.63-10.8-12.26a6.53,6.53,0,0,1-3.47-5,1.28,1.28,0,0,0,.47.43,8.17,8.17,0,0,0-.53-.89c-.17-1.22-.28-2.51-.54-3.8a11.47,11.47,0,0,0,.23,3.34,55,55,0,0,0-5.17-6l2.21-2.73c-.16-.18-.25-.34-.42-.52-.36-3-2.51-1.2-3.88,1.34a19.19,19.19,0,0,0-3.62-2.46c1.78-2.3.49-3.77-.82-5.39s-2.49-3.48-.6-6.09c-1.73-.28-3.6-3.49-5.87-6.52s-4.62-6.07-7.66-5.87c.68-.35.7-1.3,1.32.22a40.65,40.65,0,0,0-.92-5,10,10,0,0,0-2.42-4.23L69,186.12l-3.69-2.75L63.49,182l-1.79-1.46c1.43-5,2.48-7,6.61-3.52a36.45,36.45,0,0,1-3.68-5.24c-.74-1.32-1.16-2.28-1.58-3.2a29.3,29.3,0,0,0-1.49-3,46.13,46.13,0,0,0-3.15-4.71l2.74.06a10.81,10.81,0,0,0-1-2.61l-1.33-2.84c-.84-1.88-1.38-3.66-.38-4.73,1.17-1.94,1.62-5.12,1.8-9.11.15-2,.22-4.19.25-6.53,0-1.18.11-2.3.15-3.49s.06-2.4.2-3.63a84.27,84.27,0,0,1,2.47-15.27,51.32,51.32,0,0,1,5.75-13.82c-4.34.52-2.83-1.26-1-3.45s4.23-4.72,1.48-6.14c2.15-.37,4-2.37,4.52,1,.1-.58.22-1.14.35-1.68l.1-.4,0-.19c0-.07,0-.11.08-.26l.46-1.34c.61-1.65,1.26-3.18,1.91-4.63,1.29-2.9,2.75-5.5,4-8a43.86,43.86,0,0,0,3-7.23A12.12,12.12,0,0,0,84.48,60c1.52-1.11,2-.61,2.42,0s.59,1.36,1.61.42a15,15,0,0,1,.31-2.8,6.81,6.81,0,0,1,1.85-3.43c2.12-2.06,1,1.54,1,3.81,2.44-5.87,3.1-9.46,2.49-11.24l-.3,0-.46,0-.93-.08-1.75-.09c-1.13,0-2.18,0-3.16,0a28.66,28.66,0,0,0-5.12.7A31,31,0,0,0,75,50.18a26.07,26.07,0,0,0-9.41-4.86,20.63,20.63,0,0,0-2.39-.48l-.59-.06-.29,0s.08.08.11.11a7.47,7.47,0,0,1,.57.54,3,3,0,0,1,.67,1.17c.14.14-.27.09-.49.12l-.77.05c-.51,0-1,.08-1.54.14-.72-1.17-2.24-2.64-2.19-3.43,0-.39.49-.61,1.74-.5a20.52,20.52,0,0,1,2.51.42c.53.12,1.12.26,1.78.43l1,.27.55.15L65.85,44l.29.08.16.05h0l-.09,0-.84-.33L63.24,43l-5.6-2.15-7-2.6-3.76-1.36L45,36.2l.72.22c.52.16,1,.34,1.52.51l.19.07.09,0L47.36,37l-.9-.23-1.75-.44c-2.28-.56-4.38-1-6.13-1.31-3.51-.58-5.53-.48-5.27.68a9.55,9.55,0,0,0-2.46-1.2c-.91-.24-2.46-1.13-2.41.15a20.63,20.63,0,0,0-1.13,4.23c-1.07,2.31-1.88,4.09-2.56,5.6S23.5,47.24,23,48.52s-1.08,2.55-1.6,4.21-1.19,3.55-1.79,6.15c.49-.79.93-1.6,1.45-2.34,1.63,3.52,1.44,5.44.49,7.71-.45,1.13-1,2.36-1.61,3.82-.29.73-.58,1.51-.83,2.36a14.56,14.56,0,0,0-.46,2.37l-.49-.3a34.05,34.05,0,0,0-2.85,7.18A8.71,8.71,0,0,0,15,82.84,8.1,8.1,0,0,1,14.78,86a28.61,28.61,0,0,1-.94,2.8c-.43,1.16-1,2.58-1.8,4.35l3.35-.37a2.5,2.5,0,0,1,2,3,17.91,17.91,0,0,1-2,5.11,44.32,44.32,0,0,0-2.89,6.43,16.81,16.81,0,0,0-.79,3.41,10.16,10.16,0,0,0,.22,3.35l2.05-2.94c1.08,2.39-1.55,5.44-4.49,8.59s-6.28,6.39-6.73,8.77c-.62,1-1-1.66-1.36-3.14-4.37,12.49,4.23,1.73,5.12,11C4.18,138,.54,134.05.23,140.45c-.45.8-.19,2.36.4,4.37.3,1,.65,2.11,1.08,3.3l1.4,3.76a46.66,46.66,0,0,1,2.21,8,13.83,13.83,0,0,1-.38,7.51c1.58-2.1,3.16-4.11,4.92,0a13.27,13.27,0,0,1,.19,2.67,30.3,30.3,0,0,1-.18,3.06c-.22,2.13-.58,4.44-.8,6.72-.33,4.54.11,9,3.39,11.38-.29.92-.67,1.34-1.1,1.46,1.3,2.35,2.75,6.28,4.49,9.84s3.74,6.76,5.61,7.78c-4.68,3.82-1,11.18,3.08,17.43.49.79,1,1.57,1.47,2.33l1.44,2.18a24.33,24.33,0,0,1,2.16,3.93,5.46,5.46,0,0,1,.47,3.18,3.14,3.14,0,0,1-2,2.18l3.76,7c1.28,2.32,2.71,4.57,4.06,6.85l-1.13.16c.55,1.16,1.08,2.21,1.63,3.14s1.14,1.75,1.7,2.48a21.34,21.34,0,0,0,3.25,3.47,18.44,18.44,0,0,0,1.56,1.16,15.36,15.36,0,0,0,1.58.86c1,.49,2.07.87,3.08,1.24.75,2.31-1,1.48-1.58,1.63.84,1.67,1.6,3.15,2.31,4.48s1.47,2.42,2.15,3.43a26.27,26.27,0,0,0,4,4.91,28,28,0,0,0,4.92,3.48c1,.55,2,1.14,3.24,1.72s2.61,1.16,4.13,1.81l-1.54,3.28a3.92,3.92,0,0,1,1.57,1.14c.58.62,1.22,1.44,2,2.37,1.53,1.88,3.29,4.45,5.49,7.12C78.67,308.6,84.75,314.57,92,317a2.53,2.53,0,0,1-2.2.35,30.54,30.54,0,0,1,5.82,3,65.59,65.59,0,0,1,5.67,3.83c.93.7,1.84,1.43,2.77,2.15l2.8,2.08c1.86,1.38,3.66,2.82,5.49,4.06s3.64,2.32,5.39,3.25c.88.46,1.74.87,2.59,1.23a18.91,18.91,0,0,0,2.53.75c3.31.72,6.27.31,8.72-2,3.76.18,7.44.43,11.12.48-6.41-2.54-5.44-3.71-3.57-4.61s4.66-1.68,2.4-3.52a15.78,15.78,0,0,1,7.08,3.83c1.57,1.58,1.72,2.94-1.51,2.37l-.82-.87c-1,1.38-.56,2.49.71,3.45a12.47,12.47,0,0,0,2.41,1.33c.47.21,1,.41,1.48.6s1.06.34,1.6.51c4.35,1.28,9,2.41,8.43,4.45A367.17,367.17,0,0,0,201,349c13.2.87,26.45.8,39.31-1.27q-1.9-2.2-3.73-4.43l4.39-.59c1.47-.19,2.94-.38,4.39-.68,1.25.32,2.23,1.11,2.09,2-.06.43-.41.87-1.13,1.28a9.37,9.37,0,0,1-3.43,1,3.53,3.53,0,0,0,1.55.46,5.53,5.53,0,0,0,1.67-.26,11.22,11.22,0,0,0,3.29-1.81c2-1.55,3.49-3.48,3.45-4,6.26-.59,5.5,1.07,3.54,2.88s-5.13,3.46-3.19,3.12c1.71-.46,3.39-1.1,5.08-1.68l-1.31-.25c1.83-1.55,2.67-2.87,4-4A10.77,10.77,0,0,1,263.5,339a23.31,23.31,0,0,1,4.29-1.65c4.95-.6,3.39,2.11,5.3,1.68.05.17.25.24.7.13a10.94,10.94,0,0,0,2.16-1.07c3.64-1.28,7.31-2.5,10.87-4.06-2-.56-3.87-1.09-5.78-1.72,3.84-3.83,9.75-4.22,3.18-6.1a10.85,10.85,0,0,0,4.5.23,30.63,30.63,0,0,0,5.76-1.62c1-.38,2.12-.81,3.21-1.28s2.16-1.08,3.27-1.66,2.2-1.22,3.31-1.86l1.66-1c.55-.34,1.08-.71,1.61-1.07,2.12-1.43,4.21-2.88,6.17-4.27s3.68-2.89,5.28-4.13,3-2.36,4.12-3.21a10.44,10.44,0,0,1,2.68-1.61c.43-.85.89-1.66,1.38-2.44s.94-1.58,1.45-2.33A39.53,39.53,0,0,1,332,295.7l.92-1c.31-.35.61-.71.92-1.07.62-.71,1.26-1.42,1.93-2.13l2.08-2.16,1.09-1.1L340,287c-2,1.1-6.07-.92-1.09-6,1.34,2,2.72,2.48,4.21,2.1a7.43,7.43,0,0,0,2.31-1.15,24,24,0,0,0,2.34-2.1c1.59-1.61,3.37-3.43,5.15-5a12.28,12.28,0,0,1,6-3.29c-1.68.55-1.82-.34-1.26-1.9s1.66-3.88,2.72-6.1c.52-1.12,1-2.22,1.39-3.21a8.78,8.78,0,0,0,.55-2.6c0-1.37-.8-1.87-3.12-.8,3.5-5,3.17,1.33,7.27-1.83.24-.92.52-1.83.82-2.74s.56-1.85.89-2.76c.66-1.83,1.43-3.64,2.3-5.46s1.66-3.69,2.59-5.55l1.43-2.81c.49-.94.92-1.92,1.39-2.88l2.82-5.89c.9-2,1.72-4.07,2.54-6.16.41-1,.81-2.09,1.19-3.16s.66-2.15,1-3.23c.6-2.18,1.15-4.39,1.56-6.63-.55-.28-1.44.22-2.32.25s-1.66-.38-2.13-2.45c2.59-2.62,5.28-5.3,7.83-8.08,0-3.69-6.22-4.42-1.08-10.15-1.11.76-2.82,1.86-2.87-.53,5.41-16.83,5.06-35.2,3.81-52.66-.55-8.82-1.24-17.62-1.54-26.5a187.54,187.54,0,0,1,.9-27.16c-1.37,5.2-2.21,2-3-1.55-.1,2.45-2.92.51-4.43,1.28.57-5.09.92-10.25,1.16-15.51a5.38,5.38,0,0,1-2.93-3.07,50.24,50.24,0,0,1-1.92-5.29,27.76,27.76,0,0,0-2-5.07c-.75-1.37-1.69-2.27-2.84-2.27.84,1.42,1.56,2.85,2.33,4.29-3.44-2.21-5.36.89-7.37,4.41s-4.18,7.56-7.47,8c3.65,2.32,2.7,7.07,1.91,12.11a37.38,37.38,0,0,0-.43,3.83,17.08,17.08,0,0,0,.12,3.85,12.19,12.19,0,0,0,4,7.33c-.93,2.52-2.42-1.65-3.7-.16A7.91,7.91,0,0,1,364.16,97a13.35,13.35,0,0,1,.6,3.16,27.61,27.61,0,0,1-.09,4.1l-.77-.59A86.76,86.76,0,0,1,365,114.89c.06,3.39,0,6.5-.23,9.68s-.54,6.43-.95,10.07-.85,7.66-1.25,12.4l3.21-1.42c-.42,4.1-1.51,4.91-2.33,6.79,2.4,2.37,2.52-.47,2.71-3.38s.29-5.93,3-3.77c-1.6,1.39-2.49,3.86-3,6.85-.24,1.49-.38,3.12-.49,4.8s-.29,3.42-.42,5.15-.23,3.44-.49,5.05a34.83,34.83,0,0,1-.95,4.48,12,12,0,0,1-1.54,3.43,4.94,4.94,0,0,1-2.46,1.9c-.84,6.06,3.95-1.33,3.1,4.78L360.79,183c.79.64,1.6,1.29,2.36,1.94-1.12,3.94-3.95,5.49-5.66,5.32.36-.91,0-2.78,0-3.82-1.62,2.33-2,5.92-2.3,9.1s-.26,6.06-.9,6.8c.93-1.75,1.66-3.58,2.5-5.38a84.68,84.68,0,0,1-2.38,12.77l-1.93,6.47c-.31,1.09-.69,2.16-1.07,3.23l-1.13,3.21c-3.06,8.53-6.35,16.8-8.45,24.74l1.91-.34a23.94,23.94,0,0,1-2.63,6.51,15.4,15.4,0,0,1-2.71,3.38,35,35,0,0,0-3.21,3.28c-.6.71-1.21,1.57-1.92,2.58s-1.54,2.18-2.41,3.62v-.61a14,14,0,0,1-1.46,4.7,21,21,0,0,1-3.13,4.41c.42-1.89-1.27-1.22-2.87-.69s-3.21.8-2.46-1.43c-1.64,2.85-2.63,4.7-3.22,6a8.15,8.15,0,0,0-.9,2.71,24.2,24.2,0,0,1-.88,7.81l-3.25-.54a24,24,0,0,1-1,4.4,10.31,10.31,0,0,1-1.33,2.28,32.58,32.58,0,0,1-2.88,3c1.59-2.59.1-2.66-1.33-2.89s-2.82-.59-1.28-3.58a23,23,0,0,0-4.69,1.88,26.53,26.53,0,0,0-3.63,2.25,25,25,0,0,0-2.83,2.53l-2.43,2.42a15.77,15.77,0,0,1-4.53,3.64,7,7,0,0,1-5.8-.36c-1.22,4.6,1.85,4.07,5,2.72.79-.34,1.58-.72,2.3-1.09l1.82-1.07c1-.57,1.47-.75.87,0,1.9.2,1.43,2-.12,4a16.16,16.16,0,0,1-6.48,4.76,5.52,5.52,0,0,1-3.69.17c-1.4-.29-3-.79-4.68-1.22a26.54,26.54,0,0,0-2.71-.53,23.66,23.66,0,0,0-3-.28,19,19,0,0,0-7,1.31c1.07-.31,1-.85,2-1.23a7.47,7.47,0,0,0-3.07.65,26.63,26.63,0,0,0-2.83,1.57,13.69,13.69,0,0,1-3.07,1.43,7.89,7.89,0,0,1-3.83,0c-.82,2.42-2.48,2.81-3.83,3.27s-2.46.87-2.27,3.61l2.51-.87,2.46-1,4.9-2a22.88,22.88,0,0,0-3.85,2.87,40.29,40.29,0,0,1-4.12,3.4c-3.05,2-6.8,3.85-12.07,3.07a8.07,8.07,0,0,1,2.1-2.14c1-.76,2.11-1.5,3-2.14a6.54,6.54,0,0,0-4.23.49,6.06,6.06,0,0,1-4.32.41c0-2.75,3.09-3.54,6.86-4.32,1.86-.48,3.89-.95,5.79-1.64a14.86,14.86,0,0,0,2.68-1.23,10.42,10.42,0,0,0,2.17-1.83,4.13,4.13,0,0,0-3,.37,34.38,34.38,0,0,0-3.29,1.55c-2,1-3.38,1.37-2.46-1.83a5.82,5.82,0,0,1-3.05,3.78,11.41,11.41,0,0,1-4.39.68c-.8,0-1.62,0-2.46.09s-1.69.16-2.56.31a10.4,10.4,0,0,0-5.27,2.71l.15-3.27c-.57.32-1.43.94-2.45,1.49a7.65,7.65,0,0,1-3.3,1c1.24-1.5,2.47-2.93,3.64-4.51a7,7,0,0,1-4.42,1.41,17,17,0,0,1-4.48-.73c-1.48-.36-3-.89-4.42-1.16a8.34,8.34,0,0,0-4.37.23c6.14-.19,6.88.78,6.73,2.06s-1.19,2.95,1.53,4c-3.84,1.25-6.39,1.26-8.24.76a9,9,0,0,1-4.25-2.93,15.14,15.14,0,0,0-4.43-3.57,13.89,13.89,0,0,0-3.61-1.1,23.12,23.12,0,0,0-5.26-.41,8.77,8.77,0,0,1,4.59,1.32,2.77,2.77,0,0,1,1.29,1.3c.1.43-.2.88-1.11,1.18-3.2-.93-7.37-2.39-9.12-4.32-5.5-.33-5.21.55-4.11,1.68s3,2.54.51,3.24c-1.69-2.19-3.08-1.95-4.75-1.09s-3.58,2.18-6.18,2.38l.55-3.25c-3.09-1-4.86-1.3-6.05-1a3.62,3.62,0,0,0-2.27,1.72,3.41,3.41,0,0,1-2.06,1.69,4.82,4.82,0,0,1-2.06-.1,15.82,15.82,0,0,1-3.27-1.37c2-1,4-2,5.9-3.19-2.06,0-4.07-.25-6.12-.39l2.17-3.28c-7,1-8.76-.45-14.34-3.49.57,2.72-2.83,5.29-8.31,3.24-2.84-3.34,3.19-1.94-4.35-4.86a10.33,10.33,0,0,1,3.85-1.22,2.86,2.86,0,0,1,1.81.6,5.24,5.24,0,0,1,1.67,2.07c.74-.86,2.42-1.27,3.14-2.12-1.47-1.8-3.79-2.79-6-3.69s-4.46-1.35-5.72-2a8.37,8.37,0,0,1,2.43,2c-1-.06-2.06-.08-3.08-.18l-3-.32c-2-.24-4.15-.4-6.2-.73-1-2,.78-2.12,2.48-2.26-2.17-.86-4.31-.4-7.44-1.92,2.17-1.82,3.48-4.26,8.12-3l-5.32-1.45c-1.8-.48-3.51-1.13-5.29-1.71a14,14,0,0,0-1.13-3.35c-.47-1.24-.66-2.39.16-2.37a10,10,0,0,0-3.89-2.8c-.8-.38-1.7-.68-2.58-1.05l-2.73-1.13c-.93-.38-1.88-.78-2.81-1.21-.47-.22-.93-.45-1.39-.69s-.87-.53-1.29-.81A14.8,14.8,0,0,1,89,274.29c-.67.11-1.57-.16-3-1.11a54.59,54.59,0,0,1-3.21-4.51c-.93-1.6-1.83-3.19-2.86-4.72-.51-.77-1.08-1.5-1.65-2.25a23.65,23.65,0,0,0-1.85-2.22,21.82,21.82,0,0,0-2.27-2.08c-.86-.66-1.79-1.3-2.78-2q.51-3.48,1.09-6.83c-1.2-1.23-1.85-1.33-2.32-.86A7.61,7.61,0,0,0,69,250.12c-.34.9-.78,1.71-1.65,1.75a3,3,0,0,1-1.67-.6,13.94,13.94,0,0,1-2.43-2.37c-5.74-6.36,1.81-4.75,1.51-7.92a35.44,35.44,0,0,1-7.49-5.14,16,16,0,0,1-3-4.35,12.69,12.69,0,0,1-.89-2.67,12.88,12.88,0,0,1-.16-3.07,10.89,10.89,0,0,1,1.86,3A18.68,18.68,0,0,0,56.61,231.76ZM34.13,146.44c.79,1.73,3.13,5.06,1.26,6.45C31.51,151.14,33.22,149.45,34.13,146.44ZM60.67,63.13c-.49-.19-.45-.65,0-1.38.09-.12.07-.13.06-.16v-.1a1.58,1.58,0,0,1,.06-.26l.24-.77a4,4,0,0,1,.83.14,1.35,1.35,0,0,1,.32.15.57.57,0,0,1,.13.08c0,.05.13,0,0,.19A16.7,16.7,0,0,1,60.67,63.13ZM260,277.58a1.55,1.55,0,0,0-.07.23c-1.9.33-2.52.39-2.33.36S258.76,278,260,277.58Zm7.22-2.79c.39-.82.08-1.16-.43-1.37,0,1-1.36,2-3.17,2.8C264.51,276.66,265.74,276.73,267.21,274.79Zm6.43,62.77c-.65,0-1.32-.15-2-.22,1.76-1.06,2.4-1.43,2.56-1.23S274,336.91,273.64,337.56Z"/><path class="cls-3" d="M49.36,62a5.21,5.21,0,0,1-.85-.74l-.14-.16,0-.08s0,0,0,0l.19-.17.73-.73a9.1,9.1,0,0,0-.7.69,4.17,4.17,0,0,1-.36.37l-.2.17,0,0s0,0,0,0l.09,0,.39.19Z"/><path class="cls-3" d="M88.79,274.09c0,.08.11.13.16.2a1.53,1.53,0,0,0,.61-.24Z"/><path class="cls-3" d="M142.88,310.29a7.52,7.52,0,0,1-2.73-3,1.05,1.05,0,0,0,.21,1.27A6.82,6.82,0,0,0,142.88,310.29Z"/><path class="cls-3" d="M292.85,243.71l-1.16,2.15-1.25,2.08a6.6,6.6,0,0,1,1.92-1.78c.57-.36,1.13-.56,1.7-.86C293.39,244.9,292,244.92,292.85,243.71Z"/><path class="cls-3" d="M332.86,215.4c-.07-.89.61-1.59.54-2.47l-1.5-.37C330.69,215.72,330.9,218.42,332.86,215.4Z"/><path class="cls-3" d="M304.34,246.78c2.44,1.32,3.64-1.93,5.32-5.2a2.16,2.16,0,0,1-.36.53C306.71,239.07,305.56,242.88,304.34,246.78Z"/><path class="cls-3" d="M310.05,240.81a14.31,14.31,0,0,1,1.78-2.88C310.75,236.74,310.82,238.9,310.05,240.81Z"/><path class="cls-3" d="M274,267.66c1.73-.42-1.39-3.37,0-3-.42-1.91-1.8.51-2.46,2.59S271,271.08,274,267.66Z"/><path class="cls-3" d="M313.45,249.71l-3.56-.89c.33,1.11.66,2.24,1,3.37Z"/><path class="cls-3" d="M291.72,270.65c1.66-1.17,3.42-2.26,5-3.53-.48-.34-.18-1.13.29-2-.67.65-1.37,1.29-2,1.9s-1.36,1.12-1.91,1.61C292,269.59,291.32,270.33,291.72,270.65Z"/><path class="cls-3" d="M297,265.13c1.38-1.36,2.65-2.7,2.92-3.9A30.55,30.55,0,0,0,297,265.13Z"/><path class="cls-3" d="M309.17,257.05l-1.69,1c-1,1.08-2,2.09-3,3.14l2.39-2C307.66,258.48,308.39,257.75,309.17,257.05Z"/><path class="cls-3" d="M235.46,301.22l-3.05,1.32-3.12,1.14c-.43,1.28,1.51,1.65,3.84.65C234.48,303.12,236.73,302.06,235.46,301.22Z"/><path class="cls-3" d="M257.9,303.3c-2,.16-2.43-.54-3.84-1.19l1.41,4,1.24-1.37C257.12,304.27,257.51,303.78,257.9,303.3Z"/><path class="cls-3" d="M238.83,311c-.18.66-2.47,2.14-3.65,3.14s-1.23,1.53,3.18.2C238.81,313.05,245.4,310.28,238.83,311Z"/><path class="cls-3" d="M137.84,295.16c.52.24,1,.53,1.56.74l2.87-6.32C140.81,291.46,139.34,293.31,137.84,295.16Z"/><path class="cls-3" d="M59.61,241.71c1.51,4.21,2.7,4.11,3.8,3.91s2.06-.46,3.33,3.39c2.47.79-2-6.27.28-5.28C62.87,240.24,62.35,237.32,59.61,241.71Z"/><path class="cls-3" d="M67,243.73a20.41,20.41,0,0,0,2.32,1.64A9.63,9.63,0,0,0,67,243.73Z"/><path class="cls-3" d="M381.85,53.85c-.06-1.93-.29-3.91-.43-5.89l-1,4.26C380.91,52.76,381.37,53.31,381.85,53.85Z"/><path class="cls-3" d="M373.38,45.32c1.22-1,2.4-2,3.58-3q-2.56-.9-5.08-1.67C372.57,41.81,374,44,373.38,45.32Z"/><path class="cls-3" d="M42.88,133l-1.06-.38c-1.15.73-1.28,1.87-1.44,4.1C41.17,135.52,42.05,134.26,42.88,133Z"/><polygon class="cls-3" points="47.08 196.17 46.88 195.11 43.55 198.11 47.08 196.17"/><path class="cls-3" d="M71.71,241.44a14.89,14.89,0,0,0-1.95-2.61,13.52,13.52,0,0,1-1.82-2.73,5.93,5.93,0,0,1,1.17,2.78c.16.91.22,1.72.27,2.36C69.49,242.52,69.73,243,71.71,241.44Z"/></g></g></svg>