<svg xmlns="http://www.w3.org/2000/svg" viewBox="0 0 47.13 81.45"><defs><style>.cls-1{fill:#4bff5f;}</style></defs><g id="Capa_2" data-name="Capa 2"><g id="timelinePage"><polygon class="cls-1" points="29.35 71.25 29.45 71.44 26.62 76.35 26.51 76.53 25.41 78.45 23.67 81.45 23.46 81.45 20.62 76.53 20.52 76.35 20.3 75.98 17.67 71.43 17.57 71.25 15.2 67.14 14.73 66.33 14.62 66.14 11.78 61.22 11.68 61.04 10.1 58.3 8.84 56.12 8.73 55.94 5.89 51.02 5.79 50.84 5 49.47 2.94 45.92 2.84 45.73 0 40.81 0.11 40.63 2.94 35.72 3.05 35.53 5 32.16 5.89 30.61 6 30.43 8.84 25.51 8.94 25.32 10.1 23.32 11.78 20.41 11.89 20.22 14.73 15.3 14.84 15.12 15.2 14.48 17.67 10.21 17.78 10.02 20.3 5.65 20.62 5.1 20.73 4.92 23.57 0 25.41 3.18 26.4 4.92 26.51 5.1 29.35 10.02 29.45 10.2 26.61 15.12 26.51 15.3 25.41 17.21 23.67 20.22 23.56 20.4 20.72 25.32 20.62 25.51 20.3 26.05 17.77 30.43 15.2 34.89 14.83 35.53 14.72 35.71 11.88 40.63 11.78 40.81 14.62 45.73 14.72 45.92 15.2 46.74 17.56 50.84 17.67 51.02 20.3 55.58 20.51 55.94 20.62 56.13 23.45 61.04 23.56 61.23 25.41 64.42 26.4 66.14 26.51 66.33 29.35 71.25"/><polygon class="cls-1" points="47.13 40.81 45.81 43.1 44.29 45.73 44.19 45.92 41.35 50.84 41.24 51.02 41.13 50.84 40.71 50.11 38.3 45.92 38.19 45.73 35.61 41.27 35.35 40.81 35.24 40.63 32.4 35.72 30.51 39 29.57 40.63 29.46 40.81 30.51 42.63 32.3 45.73 32.4 45.92 35.25 50.84 35.35 51.02 35.61 51.47 38.19 55.94 38.3 56.12 35.61 60.78 35.46 61.04 35.35 61.23 32.51 66.14 32.4 66.33 32.3 66.14 30.51 63.04 29.46 61.23 29.35 61.04 26.51 56.12 26.41 55.94 25.41 54.21 23.57 51.02 23.46 50.84 20.62 45.92 20.51 45.73 20.3 45.37 17.67 40.81 17.78 40.63 20.3 36.26 20.62 35.72 20.73 35.53 23.57 30.61 23.67 30.43 25.41 27.42 26.51 25.51 26.62 25.32 29.46 20.4 29.56 20.22 30.51 18.58 32.4 15.3 35.24 20.22 35.35 20.4 35.61 20.86 38.19 25.32 38.3 25.51 40.71 29.7 41.14 30.43 41.24 30.61 44.08 35.53 44.19 35.72 45.81 38.53 47.03 40.63 47.13 40.81"/></g></g></svg>