<svg xmlns="http://www.w3.org/2000/svg" viewBox="0 0 185.34 109.33"><defs><style>.cls-1{stroke:#29abe2;stroke-miterlimit:10;stroke-width:0.25px;opacity:0.86;}.cls-2{fill:#223a5e;}.cls-3{fill:#ff6e0e;}.cls-4{fill:#e7001e;}.cls-5{fill:#14ff2d;}.cls-6{fill:#89d7ff;}.cls-7{fill:#ffba08;}</style></defs><g id="Capa_2" data-name="Capa 2"><g id="sobre_mi" data-name="sobre mi"><g id="text2"><rect class="cls-1" x="0.13" y="0.13" width="185.09" height="109.08" rx="12"/><circle class="cls-2" cx="152.46" cy="8.02" r="4.84"/><circle class="cls-3" cx="164.75" cy="8.02" r="4.84"/><circle class="cls-4" cx="177" cy="8.02" r="4.84"/><path class="cls-5" d="M14.5,35.32V33.74h6.93v1.58Zm2.2,4.22V32.91q0-3.76,3.63-3.76a9.48,9.48,0,0,1,1.62.14L21.77,31,21,30.93c-.24,0-.46,0-.67,0-1.17,0-1.75.64-1.75,1.93v6.7Z"/><path class="cls-5" d="M25.4,39.68A2,2,0,0,1,23.8,39a2.93,2.93,0,0,1-.57-1.92V32.29h1.86v4.33a1.43,1.43,0,0,0,.28,1,1,1,0,0,0,.78.34,1.11,1.11,0,0,0,1-.5,3.23,3.23,0,0,0,.33-1.69l.37,2.42h-.56a1.92,1.92,0,0,1-.66,1.13A1.84,1.84,0,0,1,25.4,39.68Zm2.06-2.19v-5.2h1.86v4.79Zm.13,2.12-.13-1.74V36.6h1.86v1.29l1,.15v1.5Z"/><path class="cls-5" d="M31.59,39.54V32.29h1.65l.2,1.54v5.71Zm4.28,0V35.28a1.64,1.64,0,0,0-.27-1,.9.9,0,0,0-.77-.36c-.93,0-1.39.67-1.39,2L33,33.61h.61a1.67,1.67,0,0,1,.5-1.09,1.72,1.72,0,0,1,1.2-.36,2.27,2.27,0,0,1,1.78.7,2.81,2.81,0,0,1,.62,2v4.72Z"/><path class="cls-6" d="M48.27,39.54V29.29h.65V39.54Zm4.94,0V34.8a2,2,0,0,0-.51-1.49,1.92,1.92,0,0,0-1.43-.52c-1.57,0-2.35.88-2.35,2.65l-.44-1.83H49a1.75,1.75,0,0,1,.76-1.09,2.68,2.68,0,0,1,1.48-.36,2.6,2.6,0,0,1,1.95.7,2.66,2.66,0,0,1,.69,2v4.72Z"/><path class="cls-6" d="M56.42,39.54v-.61h3.15v.61Zm.41-6.63v-.62h3.23v.62Zm2.83-2.41a.68.68,0,0,1-.48-1.16.68.68,0,0,1,1,0,.65.65,0,0,1,0,1A.66.66,0,0,1,59.66,30.5Zm-.24,9V32.62h.64v6.92Zm.5,0v-.61h2.61v.61Z"/><path class="cls-6" d="M69.83,40.91a3.84,3.84,0,0,1-3.31-1.64,7.85,7.85,0,0,1-1.17-4.62,7.7,7.7,0,0,1,1.17-4.57,3.87,3.87,0,0,1,3.31-1.61H70v.61h-.19A3.26,3.26,0,0,0,67,30.54a7.17,7.17,0,0,0-1,4.11,7.33,7.33,0,0,0,1,4.16,3.24,3.24,0,0,0,2.85,1.48H70v.62Z"/><path class="cls-6" d="M73.11,40.91v-.62h.2a3.24,3.24,0,0,0,2.85-1.48,7.33,7.33,0,0,0,1-4.16,7.17,7.17,0,0,0-1-4.11,3.26,3.26,0,0,0-2.85-1.46h-.2v-.61h.2a3.87,3.87,0,0,1,3.31,1.61,7.7,7.7,0,0,1,1.17,4.57,7.85,7.85,0,0,1-1.17,4.62,3.84,3.84,0,0,1-3.31,1.64Z"/><path class="cls-6" d="M83.87,33.52a.69.69,0,0,1-.48-.2.68.68,0,0,1,0-1,.69.69,0,0,1,1,0,.68.68,0,0,1,0,1A.7.7,0,0,1,83.87,33.52Zm0,6.16a.69.69,0,0,1-.48-.2.68.68,0,0,1,0-1,.69.69,0,0,1,1,0,.68.68,0,0,1,0,1A.7.7,0,0,1,83.87,39.68Z"/><path class="cls-5" d="M50.58,60.54V59h5.07v1.59Zm.27-5.66V53.29h2.74l.13,1.59Zm1.26,5.66V53.29h1.57L54,55.37v5.17ZM54,57.42l-.43-2.49h.62A1.67,1.67,0,0,1,56,53.16a1.84,1.84,0,0,1,1.58.76,3.64,3.64,0,0,1,.55,2.18H56.3a1.43,1.43,0,0,0-.24-.92.92.92,0,0,0-.76-.28,1.07,1.07,0,0,0-1,.66A4.21,4.21,0,0,0,54,57.42Z"/><path class="cls-5" d="M63.1,60.68a4,4,0,0,1-2.91-1,3.69,3.69,0,0,1-1-2.8A4,4,0,0,1,60,54.14a3.59,3.59,0,0,1,4.85-.07,3.69,3.69,0,0,1,.85,2.64c0,.33,0,.64,0,.94H60.38V56.36h3.54a1.56,1.56,0,0,0-.37-1.12,1.38,1.38,0,0,0-1-.39,1.36,1.36,0,0,0-1.13.52,2.38,2.38,0,0,0-.4,1.47,2,2,0,0,0,.59,1.55,2.43,2.43,0,0,0,1.69.54c.33,0,.65,0,1,0s.64-.08,1-.14l.18,1.75a11,11,0,0,1-1.28.15C63.73,60.67,63.39,60.68,63.1,60.68Z"/><path class="cls-5" d="M66.92,55V53.29h6.79V55Zm1.73,2v-5.9H70.5V57Zm3.54,3.67a4,4,0,0,1-2.7-.75,3.11,3.11,0,0,1-.84-2.41v-.94H70.5v.76a1.5,1.5,0,0,0,.43,1.2,2,2,0,0,0,1.4.38,5.33,5.33,0,0,0,.67,0l.82-.1L74,60.51c-.3.06-.59.1-.87.13S72.52,60.68,72.19,60.68Z"/><path class="cls-5" d="M77.81,60.68a2,2,0,0,1-1.6-.68,2.93,2.93,0,0,1-.57-1.92V53.29h1.85v4.33a1.48,1.48,0,0,0,.28,1,1,1,0,0,0,.79.34,1.11,1.11,0,0,0,1-.5,3.23,3.23,0,0,0,.33-1.69l.37,2.42h-.56A2,2,0,0,1,79,60.28,1.86,1.86,0,0,1,77.81,60.68Zm2.06-2.19v-5.2h1.85v4.79ZM80,60.61l-.12-1.74V57.6h1.85v1.29l1,.15v1.5Z"/><path class="cls-5" d="M83.39,60.54V59h5.07v1.59Zm.27-5.66V53.29H86.4l.14,1.59Zm1.26,5.66V53.29h1.57l.28,2.08v5.17Zm1.85-3.12-.43-2.49H87a1.66,1.66,0,0,1,1.85-1.77,1.82,1.82,0,0,1,1.58.76A3.64,3.64,0,0,1,91,56.1H89.11a1.5,1.5,0,0,0-.23-.92.94.94,0,0,0-.77-.28,1.08,1.08,0,0,0-1,.66A4.21,4.21,0,0,0,86.77,57.42Z"/><path class="cls-5" d="M92.2,60.54V53.29h1.65l.2,1.54v5.71Zm4.28,0V56.28a1.64,1.64,0,0,0-.27-1,.9.9,0,0,0-.77-.36c-.93,0-1.39.67-1.39,2l-.43-2.31h.61a1.71,1.71,0,0,1,.49-1.09,1.77,1.77,0,0,1,1.21-.36,2.27,2.27,0,0,1,1.78.7,2.86,2.86,0,0,1,.62,2v4.72Z"/><path class="cls-6" d="M110.94,55.69a2.21,2.21,0,0,1-1.49-.42A1.61,1.61,0,0,1,109,54a3.58,3.58,0,0,1,.33-1.4,5.88,5.88,0,0,1,1.16-1.69l.16-.17.48.41-.19.22a5.3,5.3,0,0,0-1,1.48,3.16,3.16,0,0,0-.29,1.15,1,1,0,0,0,.32.83,1.51,1.51,0,0,0,1,.27h.31v.63Zm2.73,0a2.23,2.23,0,0,1-1.49-.42A1.64,1.64,0,0,1,111.7,54a3.74,3.74,0,0,1,.32-1.4,5.88,5.88,0,0,1,1.16-1.69l.17-.17.47.41-.19.22a5.47,5.47,0,0,0-1,1.48,3,3,0,0,0-.3,1.15,1,1,0,0,0,.32.83,1.53,1.53,0,0,0,1,.27H114v.63Z"/><path class="cls-6" d="M117.6,60.54l-1.18-7.25H117l1.09,6.7h.09l1.14-6.7h1l-.44.55h-.11l-1.06,6.7Zm3.35,0-1.1-6.7h-.1l-.44-.55h1l1.13,6.7h.09l1.23-6.7h.57l-1.39,7.25Z"/><path class="cls-6" d="M128.08,60.68a2.69,2.69,0,0,1-2.22-1,5.27,5.27,0,0,1,0-5.55,3,3,0,0,1,4.44,0,5.27,5.27,0,0,1,0,5.55A2.69,2.69,0,0,1,128.08,60.68Zm0-.63a2,2,0,0,0,1.73-.82,3.76,3.76,0,0,0,.62-2.31,3.81,3.81,0,0,0-.62-2.32,2.26,2.26,0,0,0-3.47,0,3.81,3.81,0,0,0-.61,2.32,3.76,3.76,0,0,0,.61,2.31A2,2,0,0,0,128.08,60.05Z"/><path class="cls-6" d="M132.89,60.54v-.61h4.68v.61Zm.27-6.63v-.62H135v.62Zm1.58,6.63V53.29h.51l.14,2.08v5.17Zm.65-3.12L135,55.15h.48a2.06,2.06,0,0,1,2.21-2,2.11,2.11,0,0,1,1.71.64,3.29,3.29,0,0,1,.53,2.08h-.66a2.6,2.6,0,0,0-.38-1.6,1.44,1.44,0,0,0-1.23-.49,1.82,1.82,0,0,0-1.68.94A5.37,5.37,0,0,0,135.39,57.42Z"/><path class="cls-6" d="M144.09,60.68a2.56,2.56,0,0,1-2.15-.94A4.38,4.38,0,0,1,141.2,57a4.62,4.62,0,0,1,.75-2.86,2.57,2.57,0,0,1,2.19-1,2.85,2.85,0,0,1,1.65.44,2.08,2.08,0,0,1,.79,1.32h.47l-.42,2a3.68,3.68,0,0,0-.61-2.31,2.15,2.15,0,0,0-1.8-.78,2,2,0,0,0-1.76.81,4,4,0,0,0-.6,2.39,3.69,3.69,0,0,0,.6,2.28,2.1,2.1,0,0,0,1.77.78,2.12,2.12,0,0,0,1.79-.78,3.72,3.72,0,0,0,.61-2.31l.49,1.87h-.52a2.2,2.2,0,0,1-.78,1.35A2.66,2.66,0,0,1,144.09,60.68Zm2.68-.07-.14-1.9V50.29h.64V60.57Z"/><path class="cls-6" d="M150.82,55.82l-.48-.41.19-.21a5.48,5.48,0,0,0,1-1.49,3,3,0,0,0,.29-1.15,1,1,0,0,0-.32-.83,1.51,1.51,0,0,0-1-.27h-.31v-.63h.31a2.24,2.24,0,0,1,1.5.42,1.64,1.64,0,0,1,.48,1.31,3.74,3.74,0,0,1-.32,1.4A6.08,6.08,0,0,1,151,55.65Zm2.73,0-.47-.41.19-.21a6,6,0,0,0,1-1.49,3.16,3.16,0,0,0,.29-1.15,1,1,0,0,0-.32-.83,1.53,1.53,0,0,0-1-.27h-.31v-.63h.31a2.21,2.21,0,0,1,1.49.42,1.64,1.64,0,0,1,.48,1.31,3.55,3.55,0,0,1-.32,1.4,6,6,0,0,1-1.16,1.69Z"/><path class="cls-6" d="M15.31,80.08v-.65L21,76.72v0L15.31,74v-.65l6.22,3v.77Z"/><path class="cls-7" d="M23.61,84.69V74.29h.77L24.52,76v8.73Zm3.29-3a2.48,2.48,0,0,1-1.58-.46A2,2,0,0,1,24.61,80H24L24.52,78a3.39,3.39,0,0,0,.55,2.1,1.93,1.93,0,0,0,1.63.72,1.89,1.89,0,0,0,1.62-.73A3.45,3.45,0,0,0,28.87,78a3.81,3.81,0,0,0-.55-2.25A1.86,1.86,0,0,0,26.71,75a1.92,1.92,0,0,0-1.63.71,3.37,3.37,0,0,0-.56,2.12l-.45-2h.51a1.88,1.88,0,0,1,.73-1.24,2.62,2.62,0,0,1,1.56-.42,2.56,2.56,0,0,1,2.18,1A4.69,4.69,0,0,1,29.79,78a4.44,4.44,0,0,1-.73,2.75A2.57,2.57,0,0,1,26.9,81.68Z"/><path class="cls-7" d="M31.21,81.54v-.81h4.73v.81Zm.27-6.44v-.81h2.05l0,.81ZM33,81.54V74.29h.73l.19,2.08v5.17Zm.92-3.12-.43-2.27H34a2,2,0,0,1,2.13-2,2,2,0,0,1,1.69.64,3.29,3.29,0,0,1,.52,2.08H37.4a2.48,2.48,0,0,0-.33-1.45A1.24,1.24,0,0,0,36,75a1.69,1.69,0,0,0-1.58.89A5.09,5.09,0,0,0,33.9,78.42Z"/><path class="cls-7" d="M42.86,81.68a2.75,2.75,0,0,1-2.26-1,5.21,5.21,0,0,1,0-5.55,3.1,3.1,0,0,1,4.52,0,5.21,5.21,0,0,1,0,5.55A2.75,2.75,0,0,1,42.86,81.68Zm0-.86a1.83,1.83,0,0,0,1.57-.76,4.46,4.46,0,0,0,0-4.29,2,2,0,0,0-3.14,0,4.39,4.39,0,0,0,0,4.29A1.82,1.82,0,0,0,42.86,80.82Z"/><path class="cls-7" d="M51.76,81.68A3.38,3.38,0,0,1,48,77.9a3.87,3.87,0,0,1,.93-2.76,3.45,3.45,0,0,1,2.64-1,3.61,3.61,0,0,1,1.74.39,2.24,2.24,0,0,1,1,1.11l-.75.52a2.12,2.12,0,0,0-.89-.89,2.56,2.56,0,0,0-1.2-.28,2.46,2.46,0,0,0-1.9.74,2.93,2.93,0,0,0-.69,2.09,3.05,3.05,0,0,0,.74,2.22,2.9,2.9,0,0,0,2.17.76c.36,0,.72,0,1.08,0s.71-.09,1-.16l.11.84a7.08,7.08,0,0,1-1.15.18C52.52,81.66,52.14,81.68,51.76,81.68Z"/><path class="cls-7" d="M60,81.68a3.74,3.74,0,0,1-2.78-1,3.86,3.86,0,0,1-1-2.83A4.06,4.06,0,0,1,57,75.13a2.89,2.89,0,0,1,2.34-1,2.77,2.77,0,0,1,2.18.87,3.64,3.64,0,0,1,.78,2.49,6.68,6.68,0,0,1,0,.71H56.94v-.78h4.51a2.72,2.72,0,0,0-.54-1.81A1.88,1.88,0,0,0,59.38,75a2.06,2.06,0,0,0-1.69.74,3.22,3.22,0,0,0-.61,2.1,3,3,0,0,0,.8,2.21,3,3,0,0,0,2.25.79,8.4,8.4,0,0,0,.85,0l.86-.14.13.84a9.44,9.44,0,0,1-1,.14C60.63,81.66,60.29,81.68,60,81.68Z"/><path class="cls-7" d="M66.91,81.68c-.54,0-1,0-1.36-.05a5.78,5.78,0,0,1-1-.16l.11-.87c.47.08.88.13,1.24.17s.69,0,1,0a4.86,4.86,0,0,0,1.94-.28.93.93,0,0,0,.61-.9,1,1,0,0,0-.28-.7,1.89,1.89,0,0,0-.9-.43l-1.63-.41a3.52,3.52,0,0,1-1.53-.71,1.54,1.54,0,0,1-.47-1.16,1.67,1.67,0,0,1,.89-1.58,6.16,6.16,0,0,1,2.86-.49c.32,0,.61,0,.89,0s.58,0,.91.1l-.1.82-1-.08-.77,0a5.74,5.74,0,0,0-2.12.29,1,1,0,0,0-.65.91.77.77,0,0,0,.33.63,2.73,2.73,0,0,0,1.06.44l1.3.32a3.5,3.5,0,0,1,1.61.75,1.89,1.89,0,0,1-.32,2.84A5.41,5.41,0,0,1,66.91,81.68Z"/><path class="cls-7" d="M75.11,81.68c-.53,0-1,0-1.36-.05a5.66,5.66,0,0,1-1-.16l.1-.87c.47.08.89.13,1.24.17s.7,0,1,0a5,5,0,0,0,2-.28.93.93,0,0,0,.6-.9.91.91,0,0,0-.28-.7,1.89,1.89,0,0,0-.9-.43l-1.62-.41a3.41,3.41,0,0,1-1.53-.71,1.51,1.51,0,0,1-.48-1.16,1.67,1.67,0,0,1,.89-1.58,6.16,6.16,0,0,1,2.86-.49c.32,0,.62,0,.89,0s.58,0,.92.1l-.11.82-1-.08-.78,0a5.68,5.68,0,0,0-2.11.29,1,1,0,0,0-.66.91.77.77,0,0,0,.33.63,2.72,2.72,0,0,0,1.07.44l1.29.32a3.55,3.55,0,0,1,1.62.75,1.71,1.71,0,0,1,.5,1.28,1.67,1.67,0,0,1-.83,1.56A5.38,5.38,0,0,1,75.11,81.68Z"/><path class="cls-7" d="M86.61,81.68a.77.77,0,0,1-.56-.23.8.8,0,0,1,0-1.12.77.77,0,0,1,.56-.23.79.79,0,1,1,0,1.58Zm5.47,0a.77.77,0,0,1-.56-.23.77.77,0,0,1,0-1.12.77.77,0,0,1,.56-.23.79.79,0,1,1,0,1.58Zm5.47,0a.77.77,0,0,1-.56-.23.77.77,0,0,1,0-1.12.77.77,0,0,1,.56-.23.8.8,0,0,1,.56.23.8.8,0,0,1,0,1.12A.8.8,0,0,1,97.55,81.68Z"/><path class="cls-7" d="M105.17,72.67v-.84h6.9l-.61.84Zm0,2.29V72H106V75Zm2.75,6.58,3.22-9.71h.93l-3.22,9.71Z"/><path class="cls-7" d="M113.57,78.27v-.88a5.59,5.59,0,0,1,1.36-4.07,6,6,0,0,1,4.14-1.53l.08.84q-4.64.21-4.64,4.36v.87Zm3.17,3.41a3.09,3.09,0,0,1-2.38-.86,3.62,3.62,0,0,1-.79-2.55l.55-1.3h.46a2.06,2.06,0,0,1,.87-1.17,3,3,0,0,1,1.6-.41,2.85,2.85,0,0,1,2.15.78A3.12,3.12,0,0,1,120,78.4a3.32,3.32,0,0,1-.82,2.43A3.17,3.17,0,0,1,116.74,81.68Zm.07-.83a2.14,2.14,0,0,0,1.67-.63,2.58,2.58,0,0,0,.58-1.82,2.16,2.16,0,0,0-.58-1.62,2.23,2.23,0,0,0-1.65-.56,2.39,2.39,0,0,0-1.74.6,2.28,2.28,0,0,0-.61,1.71,2.31,2.31,0,0,0,.61,1.71A2.33,2.33,0,0,0,116.81,80.85Z"/><path class="cls-7" d="M123.41,76.12a2.08,2.08,0,0,1-1.56-.61,2.18,2.18,0,0,1-.58-1.59,2.21,2.21,0,0,1,.58-1.61,2.12,2.12,0,0,1,1.56-.61,2,2,0,0,1,1.55.61,2.46,2.46,0,0,1,0,3.2A2,2,0,0,1,123.41,76.12Zm-1.35,3.33-.44-.63L127.79,74l.44.62Zm1.35-4.12a1.24,1.24,0,0,0,1-.39,1.49,1.49,0,0,0,.35-1,1.53,1.53,0,0,0-.35-1,1.35,1.35,0,0,0-1.9,0,1.49,1.49,0,0,0-.36,1,1.44,1.44,0,0,0,.36,1A1.24,1.24,0,0,0,123.41,75.33Zm3.11,6.35a2,2,0,0,1-1.56-.61,2.18,2.18,0,0,1-.59-1.59,2.23,2.23,0,0,1,.59-1.61,2.29,2.29,0,0,1,3.11,0,2.27,2.27,0,0,1,.58,1.61,2.22,2.22,0,0,1-.58,1.59A2,2,0,0,1,126.52,81.68Zm0-.78a1.21,1.21,0,0,0,.94-.39,1.47,1.47,0,0,0,.36-1,1.5,1.5,0,0,0-.36-1,1.21,1.21,0,0,0-.94-.39,1.24,1.24,0,0,0-1,.39,1.5,1.5,0,0,0-.36,1,1.47,1.47,0,0,0,.36,1A1.24,1.24,0,0,0,126.52,80.9Z"/></g></g></g></svg>